;TYPE=PLATED
;Layer: PTH_Through
;EasyEDA Pro v2.2.24.2, 2024-07-29 14:19:07
;Gerber Generator version 0.3
M48
METRIC,LZ,000.00000
;Hole size 1 = 0.30000 METRIC
T01C0.30000
;Hole size 2 = 0.50000 METRIC
T02C0.50000
;Hole size 3 = 0.60000 METRIC
T03C0.60000
;Hole size 4 = 0.60950 METRIC
T04C0.60950
;Hole size 5 = 0.80000 METRIC
T05C0.80000
%
G05
G90
T01
X159.49968Y-129.25916
X159.99968Y-129.67992
X162.50009Y-126.60007
X161.90009Y-126.60007
X164.00009Y-129.27932
X163.50009Y-129.70007
X160.69968Y-128.752
X161.29968Y-128.752
X162.14968Y-128.802
X161.44968Y-130.05199
X162.04968Y-130.05199
X162.49968Y-129.30199
X160.49968Y-130.10007
X160.70009Y-127.30007
X161.30009Y-127.30007
X162.99967Y-130.10007
X161.79968Y-123.64976
X160.59968Y-124.34975
X161.34639Y-124.34975
X162.96581Y-124.34975
X162.2191Y-124.34975
X161.39968Y-122.94975
X162.61639Y-122.94975
X165.69967Y-122.44976
X165.69967Y-123.24976
X165.69967Y-124.04975
X165.69967Y-124.84975
X163.30009Y-121.30006
X159.90009Y-126.20007
X159.60009Y-124.50007
X161.90009Y-127.45007
X162.45009Y-127.20007
X163.03116Y-127.40007
X174.74965Y-129.25916
X175.24965Y-129.67992
X175.74965Y-130.10007
X175.94965Y-128.752
X175.95006Y-127.30007
X176.54965Y-128.752
X176.55006Y-127.30007
X176.69965Y-130.05199
X177.15006Y-126.60007
X177.29965Y-130.05199
X177.39965Y-128.802
X177.74964Y-129.30199
X177.75006Y-126.60007
X178.24964Y-130.10007
X178.75006Y-129.70007
X179.25006Y-129.27932
X177.04965Y-123.64976
X175.84965Y-124.34975
X176.59635Y-124.34975
X178.21578Y-124.34975
X177.46907Y-124.34975
X176.64965Y-122.94975
X177.86636Y-122.94975
X180.94964Y-122.44976
X180.94964Y-123.24976
X180.94964Y-124.04975
X180.94964Y-124.84975
X175.15006Y-126.20007
X174.85006Y-124.50007
X177.15006Y-127.45007
X178.28113Y-127.40007
X177.70006Y-127.20007
X190.74962Y-129.25916
X191.24962Y-129.67992
X191.74962Y-130.10007
X191.94962Y-128.752
X191.95003Y-127.30007
X192.54961Y-128.752
X192.55002Y-127.30007
X192.69961Y-130.05199
X193.15003Y-126.60007
X193.29961Y-130.05199
X193.39961Y-128.802
X193.74961Y-129.30199
X193.75002Y-126.60007
X194.24961Y-130.10007
X194.75002Y-129.70007
X195.25002Y-129.27932
X193.04961Y-123.64976
X191.84962Y-124.34975
X192.59632Y-124.34975
X194.21575Y-124.34975
X193.46904Y-124.34975
X192.64961Y-122.94975
X193.86633Y-122.94975
X196.94961Y-122.44976
X196.94961Y-123.24976
X196.94961Y-124.04975
X196.94961Y-124.84975
X191.15002Y-126.20007
X190.85002Y-124.50007
X193.15003Y-127.45007
X194.2811Y-127.40007
X193.70002Y-127.20007
X194.55002Y-121.30006
X178.55006Y-121.30006
X149.21253Y-109.49978
X148.79178Y-109.99978
X148.37162Y-110.49978
X148.4197Y-111.44978
X148.4197Y-112.04978
X149.1697Y-112.49978
X148.37162Y-112.99977
X148.77162Y-113.50019
X149.19238Y-114.00019
X149.7197Y-110.69978
X152.27163Y-109.90019
X151.17163Y-110.70019
X149.7197Y-111.29978
X151.17163Y-111.30019
X151.02163Y-111.90019
X151.87162Y-111.90019
X149.6697Y-112.14978
X151.27163Y-112.45019
X151.87162Y-112.50019
X151.07163Y-113.03126
X153.97163Y-109.60019
X154.12194Y-110.59978
X154.12194Y-111.34649
X154.12194Y-112.2192
X154.12194Y-112.96591
X153.62194Y-115.69977
X155.00008Y-115.70006
X182.33248Y-113.83267
X184.03247Y-112.13268
X185.48247Y-110.68268
X187.01678Y-111.28268
X188.41678Y-112.73268
X188.11678Y-115.71698
X183.48248Y-115.41699
X186.46678Y-117.36698
X186.03247Y-117.91698
X181.76679Y-113.26699
X183.46679Y-111.56699
X184.91679Y-110.117
X187.58247Y-110.71699
X188.98246Y-112.16699
X188.68246Y-116.28267
X185.46679Y-118.48266
X187.03247Y-117.93266
X182.91679Y-115.98267
X183.0001Y-123.10007
X182.4001Y-123.10007
X199.5996Y-124.93475
X199.5996Y-125.63475
X193.45011Y-118.60006
X193.45011Y-118.00006
X194.54961Y-115.24977
X194.54961Y-115.84977
X199.5996Y-119.79976
X199.5996Y-121.19976
X167.50009Y-120.80007
X166.90009Y-120.80007
X188.4001Y-107.70006
X189.0001Y-107.70006
X189.8001Y-107.70006
X190.4001Y-107.70006
X176.4501Y-114.80007
X176.4501Y-115.40006
X165.35009Y-115.55006
X165.35009Y-116.15006
X192.1475Y-108.96204
X192.64961Y-109.44978
X191.9001Y-108.00006
X191.43294Y-108.46722
X192.50011Y-108.20006
X193.0001Y-108.70006
X193.50011Y-109.20006
X194.0001Y-109.70006
X194.0001Y-110.30006
X192.35963Y-110.7298
X190.84723Y-110.24984
X154.82194Y-111.79978
X155.52194Y-111.39978
X155.52194Y-112.61649
X150.70008Y-132.00007
X149.70008Y-130.50007
X149.70008Y-131.50007
X150.70008Y-131.00007
X150.70008Y-130.00007
X149.70008Y-129.50007
X150.70008Y-129.00007
X149.70008Y-128.50007
X153.89969Y-133.70723
X153.39969Y-133.30723
X152.89969Y-133.70723
X152.3997Y-133.30723
X168.7601Y-111.70006
X168.2501Y-112.25206
X143.84971Y-118.57226
X146.54971Y-120.42726
X150.10008Y-117.10006
X150.73667Y-117.10006
X150.73667Y-117.73665
X150.10008Y-117.73665
X148.718Y-117.80964
X148.08141Y-117.80964
X148.718Y-118.44623
X148.08141Y-118.44623
X148.718Y-119.08282
X148.08141Y-119.08282
X149.35459Y-119.08282
X149.99118Y-119.08282
X150.62777Y-119.08282
X150.73629Y-120.66317
X150.73629Y-121.29976
X147.98178Y-121.50006
X147.98178Y-120.70007
X148.61837Y-120.70007
X148.61837Y-121.50007
X150.47326Y-122.98177
X149.83667Y-122.98177
X149.20008Y-122.98177
X148.56349Y-122.98177
X147.9269Y-122.98177
X149.83667Y-123.61836
X149.83667Y-124.89154
X149.20008Y-124.89154
X150.47326Y-123.61836
X147.88178Y-125.00007
X148.51837Y-125.00007
X148.51837Y-124.36348
X147.88178Y-124.36348
X150.60846Y-124.38146
X150.60846Y-125.01805
X145.44971Y-118.57226
X146.04971Y-118.57226
X145.44971Y-117.97226
X146.04971Y-117.97226
X146.67071Y-117.35006
X146.04971Y-120.80007
X144.34971Y-118.05006
X143.34971Y-118.05006
X143.84971Y-120.49976
X144.84971Y-120.42726
X144.84971Y-121.09976
X144.17721Y-121.09976
X150.60008Y-133.50007
X149.80757Y-133.50007
X149.80344Y-127.04975
X150.59595Y-127.04975
X153.9611Y-132.10007
X154.52901Y-117.82879
X154.52901Y-117.20609
X154.52901Y-118.45429
X155.12901Y-118.15429
X155.12901Y-117.52879
X153.92901Y-118.14154
X153.92901Y-117.51604
X155.95077Y-117.47528
X156.57347Y-117.47528
X157.19897Y-117.47528
X155.95077Y-118.97528
X156.57347Y-118.97528
X157.19897Y-118.97528
X155.90252Y-122.90007
X155.60014Y-121.49986
X152.60311Y-117.30972
X153.20201Y-117.30538
X155.65402Y-123.9797
X155.65402Y-124.6024
X155.65402Y-125.2279
X156.45299Y-126.32189
X157.26888Y-126.31321
X153.14969Y-126.97225
X153.82487Y-120.57528
X155.27487Y-120.72528
X152.76438Y-120.58785
X152.76438Y-121.2542
X152.76438Y-121.92055
X154.49988Y-122.78344
X154.49988Y-123.44979
X154.49988Y-122.11709
X154.49988Y-121.45075
X153.59988Y-123.45027
X152.93353Y-123.45027
X168.85721Y-108.20006
X169.29298Y-109.46008
X169.80721Y-108.26006
X170.29298Y-109.46008
X170.8072Y-108.26006
X171.29297Y-109.46008
X171.7572Y-108.20006
X172.7401Y-109.70718
X172.20009Y-108.90006
X171.54008Y-111.69295
X172.8001Y-112.15718
X172.14009Y-110.70007
X171.29297Y-113.15007
X172.3501Y-112.61718
X170.8072Y-111.95005
X170.29298Y-113.15007
X169.80721Y-111.95005
X169.39659Y-113.50006
X169.50009Y-111.30006
X167.86008Y-110.19295
X169.34966Y-110.14978
X173.90009Y-110.68579
X167.30009Y-108.50006
X167.25009Y-110.10006
X211.59958Y-128.14974
X210.89958Y-128.84974
X211.59958Y-129.54974
X210.29958Y-128.15007
X184.39963Y-110.64978
X168.20009Y-107.70006
X152.64969Y-129.20007
X182.3001Y-112.85006
X175.8001Y-108.30006
X182.79981Y-112.49978
X178.44964Y-113.29977
X183.32473Y-108.52469
X196.14961Y-122.44976
X164.89967Y-122.44976
X164.89967Y-123.24976
X180.14964Y-122.44976
X191.6501Y-111.75006
X171.80009Y-114.00006
X180.7001Y-121.70007
X180.14964Y-123.24976
X186.89963Y-129.83587
X173.10009Y-112.80006
X169.70009Y-110.70006
X167.80009Y-110.80006
X170.89966Y-129.79974
X169.60009Y-119.20006
X167.20009Y-111.29978
X166.70009Y-106.80006
X196.15011Y-123.25007
X156.10008Y-128.90007
X186.39963Y-134.39973
X187.09963Y-134.39973
X187.09963Y-135.09973
X186.39963Y-135.09973
X170.39966Y-134.39973
X171.09966Y-134.39973
X171.09966Y-135.09973
X170.39966Y-135.09973
X155.14969Y-134.39973
X155.84969Y-134.39973
X155.84969Y-135.09973
X155.14969Y-135.09973
X143.44971Y-123.79975
X144.14971Y-124.49975
X143.44971Y-124.49975
X188.94962Y-122.39976
X189.54962Y-122.39976
X154.60008Y-127.25007
X154.05009Y-127.67226
X153.35842Y-127.93
X152.50099Y-127.9265
X186.34963Y-132.19974
X186.34963Y-132.94973
X170.33264Y-132.19974
X170.33264Y-132.94973
X155.13267Y-132.19974
X155.13267Y-132.94973
X187.4501Y-107.20006
X188.0501Y-107.20006
X183.30931Y-107.70393
X183.75931Y-107.30393
X179.91132Y-109.55953
X179.51132Y-109.10953
X193.13246Y-112.33268
X170.30009Y-110.10006
X167.50009Y-107.70006
X152.20008Y-107.40006
X199.20011Y-123.20007
X200.00011Y-123.80007
X199.17213Y-123.80007
X200.00011Y-123.20007
X196.90011Y-121.05006
X152.93912Y-124.24826
X154.07134Y-124.31486
X154.14132Y-125.00751
X153.52193Y-124.97422
X152.88584Y-124.98088
X153.14969Y-128.72724
X170.90009Y-110.70006
X174.09965Y-108.39978
X178.5168Y-112.56699
X178.94964Y-113.84977
X182.26682Y-108.96697
X182.9501Y-111.90006
X193.53246Y-112.86699
X187.78294Y-120.88291
X197.20011Y-112.80006
X159.30009Y-110.70006
X156.95363Y-108.04978
X197.57507Y-118.26953
X190.25226Y-123.83823
X185.3029Y-130.48495
X173.74015Y-123.75162
X155.14969Y-130.24974
X155.60009Y-126.17361
X152.79969Y-126.09975
X152.33212Y-126.59975
X157.20008Y-122.60007
X157.20008Y-124.30007
X157.20008Y-125.0647
X158.62039Y-123.84975
X168.90009Y-130.50007
X155.10008Y-108.00006
X143.70008Y-108.60006
X143.70008Y-109.38364
X143.70008Y-110.16721
X143.70008Y-110.95079
X143.70008Y-111.73437
X143.70008Y-112.51795
X143.70008Y-113.30152
X143.70008Y-114.0851
X143.70008Y-114.86868
X144.43823Y-114.88409
X144.43823Y-114.10051
X144.43823Y-113.31693
X144.43823Y-111.74978
X144.43823Y-110.9662
X144.43823Y-110.18262
X144.43823Y-109.39904
X144.43823Y-108.61547
X144.43823Y-112.53335
X145.20248Y-114.88409
X145.20248Y-114.10051
X145.20248Y-113.31693
X145.20248Y-111.74978
X145.20248Y-110.9662
X145.20248Y-110.18262
X145.20248Y-109.39904
X145.20248Y-108.61547
X145.20248Y-112.53335
X164.88399Y-134.85864
X164.10041Y-134.85864
X163.31683Y-134.85864
X161.74968Y-134.85864
X160.9661Y-134.85864
X160.18252Y-134.85864
X159.39894Y-134.85864
X158.61537Y-134.85864
X162.53325Y-134.85864
X164.88399Y-134.09439
X164.10041Y-134.09439
X163.31683Y-134.09439
X161.74968Y-134.09439
X160.9661Y-134.09439
X160.18252Y-134.09439
X159.39894Y-134.09439
X158.61537Y-134.09439
X162.53325Y-134.09439
X164.88399Y-133.36011
X164.10041Y-133.36011
X163.31683Y-133.36011
X161.74968Y-133.36011
X160.9661Y-133.36011
X160.18252Y-133.36011
X159.39894Y-133.36011
X158.61537Y-133.36011
X162.53325Y-133.36011
X180.13396Y-134.83241
X179.35038Y-134.83241
X178.5668Y-134.83241
X176.99965Y-134.83241
X176.21607Y-134.83241
X175.43249Y-134.83241
X174.64891Y-134.83241
X173.86534Y-134.83241
X177.78322Y-134.83241
X180.13396Y-133.99323
X179.35038Y-133.99323
X178.5668Y-133.99323
X176.99965Y-133.99323
X176.21607Y-133.99323
X175.43249Y-133.99323
X174.64891Y-133.99323
X173.86534Y-133.99323
X177.78322Y-133.99323
X180.13396Y-133.18403
X179.35038Y-133.18403
X178.5668Y-133.18403
X176.99965Y-133.18403
X176.21607Y-133.18403
X175.43249Y-133.18403
X174.64891Y-133.18403
X173.86534Y-133.18403
X177.78322Y-133.18403
X196.13392Y-134.74749
X195.35035Y-134.74749
X194.56677Y-134.74749
X192.99961Y-134.74749
X192.21604Y-134.74749
X191.43246Y-134.74749
X190.64888Y-134.74749
X189.8653Y-134.74749
X193.78319Y-134.74749
X196.13392Y-133.99823
X195.35035Y-133.99823
X194.56677Y-133.99823
X192.99961Y-133.99823
X192.21604Y-133.99823
X191.43246Y-133.99823
X190.64888Y-133.99823
X189.8653Y-133.99823
X193.78319Y-133.99823
X196.13392Y-133.24896
X195.35035Y-133.24896
X194.56677Y-133.24896
X192.99961Y-133.24896
X192.21604Y-133.24896
X191.43246Y-133.24896
X190.64888Y-133.24896
X189.8653Y-133.24896
X193.78319Y-133.24896
X164.80009Y-116.45006
X164.79079Y-115.29006
X167.80009Y-120.25006
X167.80009Y-121.35007
X166.60009Y-121.35007
X166.60009Y-120.25006
X183.3001Y-123.65007
X183.3001Y-122.55006
X182.1001Y-123.65007
X182.1001Y-122.55006
X188.64962Y-122.94976
X194.00011Y-117.70006
X192.90011Y-117.70006
X192.90011Y-118.90006
X194.00011Y-118.90006
X195.10011Y-115.55006
X193.99961Y-116.09977
X199.6496Y-126.34975
X199.60011Y-114.70006
X199.5996Y-116.65683
X177.0001Y-114.50006
X180.1501Y-108.95006
X180.5001Y-109.70006
X184.4001Y-107.40006
X188.7001Y-107.15006
X190.1001Y-107.15006
X189.4001Y-107.20006
X189.4001Y-108.1944
X190.79843Y-108.1944
X190.79843Y-107.15246
X186.8068Y-107.20006
X163.96489Y-130.24512
X179.21486Y-130.24512
X195.21483Y-130.24512
X199.5996Y-117.49977
X169.00009Y-131.87157
X153.44969Y-129.69974
X154.60008Y-128.55007
X153.85009Y-128.70007
X151.81971Y-132.68044
X154.20008Y-132.65007
X187.69962Y-129.39974
X185.3001Y-131.85007
X189.54867Y-129.50199
X154.24615Y-126.19975
X156.30013Y-121.64986
X195.2001Y-119.40006
X169.70009Y-114.20006
X170.80009Y-107.50006
T02
X148.9497Y-127.34975
X148.9497Y-133.14973
T03
X172.67965Y-128.11199G85X172.67965Y-129.11199
X172.67965Y-133.22198G85X172.67965Y-134.72198
X181.31964Y-128.11199G85X181.31964Y-129.11199
X181.31964Y-133.22198G85X181.31964Y-134.72198
X188.67962Y-128.11199G85X188.67962Y-129.11199
X188.67962Y-133.22198G85X188.67962Y-134.72198
X197.31961Y-128.11199G85X197.31961Y-129.11199
X197.31961Y-133.22198G85X197.31961Y-134.72198
X157.42969Y-128.11199G85X157.42969Y-129.11199
X157.42969Y-133.22198G85X157.42969Y-134.72198
X166.06967Y-128.11199G85X166.06967Y-129.11199
X166.06967Y-133.22198G85X166.06967Y-134.72198
X150.3597Y-107.42979G85X149.3597Y-107.42979
X145.24971Y-107.42979G85X143.74971Y-107.42979
X150.3597Y-116.06977G85X149.3597Y-116.06977
X145.24971Y-116.06977G85X143.74971Y-116.06977
T04
X200.20435Y-128.44974G85X201.19485Y-128.44974
X200.20435Y-112.54977G85X201.19485Y-112.54977
X205.70384Y-128.44974G85X206.69434Y-128.44974
X205.70384Y-112.54977G85X206.69434Y-112.54977
T05
X149.8557Y-125.92475G85X149.0557Y-125.92475
X145.57571Y-125.92475G85X144.97571Y-125.92475
X149.8557Y-134.57473G85X149.0557Y-134.57473
X145.57571Y-134.57473G85X144.97571Y-134.57473
M30