G04 Layer: InnerLayer3*
G04 EasyEDA Pro v2.2.24.2, 2024-07-29 14:19:07*
G04 Gerber Generator version 0.3*
G04 Scale: 100 percent, Rotated: No, Reflected: No*
G04 Dimensions in millimeters*
G04 Leading zeros omitted, absolute positions, 3 integers and 5 decimals*
%FSLAX35Y35*%
%MOMM*%
%ADD10C,0.2032*%
%ADD11C,0.75*%
%ADD12O,2.0X1.2*%
%ADD13O,1.8X1.2*%
%ADD14O,2.49999X1.3*%
%ADD15O,1.0X2.1*%
%ADD16O,1.0001X2.59999*%
%ADD17O,1.0X2.59999*%
%ADD18O,2.1X1.0*%
%ADD19O,2.59999X1.0*%
%ADD20C,0.4*%
%ADD21C,0.139*%
%ADD22C,0.15*%
%ADD23C,0.2*%
%ADD24C,0.5*%
G75*


G04 Copper Start*
G36*
G01X14379971Y-10635793D02*
G01X16652337Y-10635793D01*
G03X16670009Y-10727620I17672J-44213D01*
G03X16687682Y-10635793I0J47614D01*
G01X17304563Y-10635793D01*
G01X17249180Y-10691176D01*
G03X17238896Y-10716005I24829J-24829D01*
G01X17238896Y-10846298D01*
G03X17217714Y-10842447I-18886J-43708D01*
G03X17186491Y-10773626I-41994J22441D01*
G03X17128134Y-10821645I-10770J-46380D01*
G03X17082811Y-10778438I-47414J-4361D01*
G01X17049550Y-10745176D01*
G03X17024720Y-10734892I-24829J-24829D01*
G01X16852167Y-10734892D01*
G03X16785009Y-10737724I-32157J-35114D01*
G03X16702395Y-10770006I-35000J-32282D01*
G03X16785009Y-10802287I47614J0D01*
G03X16838502Y-10813882I35000J32282D01*
G03X16869835Y-10864892I47219J-6124D01*
G01X14720008Y-10864892D01*
G03X14695179Y-10875176I0J-35114D01*
G01X14625178Y-10945177D01*
G03X14614894Y-10970006I24829J-24829D01*
G01X14614894Y-11625462D01*
G01X14565463Y-11674892D01*
G01X14480008Y-11674892D01*
G03X14455178Y-11685177I0J-35114D01*
G01X14410142Y-11730214D01*
G03X14399857Y-11755043I24829J-24829D01*
G01X14399857Y-11772849D01*
G03X14387587Y-11809684I35114J-32157D01*
G03X14352042Y-11891618I-2616J-47542D01*
G03X14432355Y-11852549I32929J34391D01*
G03X14478006Y-11825380I2616J47542D01*
G03X14470085Y-11772849I-43035J20373D01*
G01X14470085Y-11769588D01*
G01X14494553Y-11745120D01*
G01X14499257Y-11745120D01*
G03X14486911Y-11775923I32251J-30803D01*
G01X14486911Y-11984718D01*
G03X14488011Y-11995209I50592J0D01*
G03X14449641Y-12074646I-3040J-47517D01*
G03X14370121Y-12111152I-31920J-35330D01*
G03X14451346Y-12143687I47600J1176D01*
G03X14518639Y-12143644I33625J33711D01*
G03X14518682Y-12076351I-33668J33668D01*
G03X14531955Y-12035005I-33711J33625D01*
G03X14537502Y-12035310I5548J50286D01*
G01X14588561Y-12035310D01*
G03X14573665Y-12115882I16410J-44697D01*
G03X14651478Y-12090212I31305J35876D01*
G03X14683718Y-12080683I3492J47486D01*
G01X14683718Y-12169537D01*
G03X14735308Y-12221127I51591J0D01*
G01X14869177Y-12221127D01*
G03X14930758Y-12159547I0J61581D01*
G01X14930758Y-12012691D01*
G03X14845200Y-11927133I-85557J0D01*
G01X14794891Y-11927133D01*
G01X14794891Y-11841858D01*
G03X14684358Y-11731326I-110533J0D01*
G01X14608347Y-11731326D01*
G01X14674837Y-11664836D01*
G03X14685122Y-11640006I-24829J24829D01*
G01X14685122Y-10984551D01*
G01X14734553Y-10935120D01*
G01X14876017Y-10935120D01*
G03X14874043Y-10943791I45236J-14858D01*
G03X14873716Y-10952678I47210J-6187D01*
G03X14831641Y-11002685I5462J-47300D01*
G03X14789633Y-11052820I5522J-47293D01*
G03X14837315Y-11097592I47529J2842D01*
G03X14804996Y-11174978I4655J-47386D01*
G03X14837315Y-11252364I36974J-30000D01*
G03X14789704Y-11296130I-153J-47614D01*
G03X14829644Y-11346994I47458J-3847D01*
G03X14871700Y-11397318I47518J-3024D01*
G03X14949895Y-11436450I47537J-2700D01*
G03X14924700Y-11352719I-30657J36431D01*
G03X14884680Y-11303002I-47537J2700D01*
G03X14880812Y-11280957I-47518J3024D01*
G03X14927454Y-11296423I36158J30979D01*
G03X14962930Y-11262420I-10484J46445D01*
G03X15012401Y-11229231I4040J47442D01*
G03X14990755Y-11173730I-45431J14253D01*
G03X15008944Y-11099978I-18785J43752D01*
G03X14971970Y-11022364I-36974J30000D01*
G03X14934995Y-11099978I0J-47614D01*
G03X14948185Y-11171226I36974J-30000D01*
G03X14921010Y-11202535I18785J-43752D01*
G03X14889158Y-11211330I-4040J-47442D01*
G03X14878944Y-11174978I-47188J6353D01*
G03X14841817Y-11097364I-36974J30000D01*
G03X14884699Y-11047271I-4655J47386D01*
G03X14926715Y-10997278I-5522J47293D01*
G03X14961359Y-10975642I-5462J47300D01*
G03X14966490Y-10935120I-40106J25663D01*
G01X15356578Y-10935120D01*
G03X15397163Y-11007633I40585J-24899D01*
G03X15437748Y-10935120I0J47614D01*
G01X16882945Y-10935120D01*
G03X16899533Y-10983172I46352J-10888D01*
G03X16889845Y-11030183I35433J-31806D01*
G01X16854128Y-10994466D01*
G03X16829298Y-10984181I-24829J-24829D01*
G01X16818166Y-10984181D01*
G03X16760968Y-10978797I-32157J-35114D01*
G03X16692852Y-10974892I-35959J-31209D01*
G01X15900008Y-10974892D01*
G03X15875179Y-10985177I0J-35114D01*
G01X15845179Y-11015177D01*
G03X15834894Y-11040006I24829J-24829D01*
G01X15834894Y-11545462D01*
G01X15735464Y-11644892D01*
G01X15230008Y-11644892D01*
G03X15205179Y-11655177I0J-35114D01*
G01X15165179Y-11695177D01*
G03X15154894Y-11720006I24829J-24829D01*
G01X15154894Y-11995462D01*
G01X15119153Y-12031203D01*
G01X15105786Y-12031203D01*
G03X15040118Y-12032492I-32157J-35114D01*
G03X15038217Y-12098146I33511J-33824D01*
G03X15071504Y-12177542I35412J-31830D01*
G03X15111738Y-12101431I2125J47567D01*
G01X15133698Y-12101431D01*
G03X15158527Y-12091146I0J35114D01*
G01X15214838Y-12034836D01*
G03X15225122Y-12010006I-24829J24829D01*
G01X15225122Y-11734551D01*
G01X15244553Y-11715120D01*
G01X15362306Y-11715120D01*
G03X15356998Y-11782879I30594J-36484D01*
G03X15353125Y-11840326I35902J-31275D01*
G03X15407414Y-11859502I39776J26171D01*
G03X15476076Y-11887023I45487J14073D01*
G03X15488803Y-11814154I-23175J41594D01*
G03X15500515Y-11782972I-35902J31275D01*
G03X15488924Y-11751744I-47614J93D01*
G03X15500197Y-11715120I-36024J31135D01*
G01X15560194Y-11715120D01*
G03X15560810Y-11780587I34883J-32408D01*
G03X15626212Y-11783552I34267J33058D01*
G03X15688622Y-11783431I31135J36024D01*
G03X15754237Y-11780511I31275J35902D01*
G03X15754508Y-11714831I-34341J32982D01*
G03X15774838Y-11704836I-4500J34825D01*
G01X15892394Y-11587279D01*
G01X15892394Y-11764426D01*
G01X15766899Y-11889921D01*
G03X15688622Y-11861626I-47003J-7607D01*
G03X15626212Y-11861504I-31275J-35902D01*
G03X15564267Y-11861226I-31135J-36024D01*
G03X15554470Y-11922392I30810J-36302D01*
G01X15550008Y-11922392D01*
G03X15523411Y-11933409I0J-37614D01*
G01X15423492Y-12033328D01*
G03X15348818Y-12023860I-41006J-24200D01*
G03X15358287Y-12098534I33668J-33668D01*
G01X15343411Y-12113409D01*
G03X15332394Y-12140007I26597J-26597D01*
G01X15332394Y-12204426D01*
G01X15314428Y-12222392D01*
G01X15238985Y-12222392D01*
G03X15212388Y-12233409I0J-37614D01*
G01X15054892Y-12390905D01*
G03X15023232Y-12467339I5954J-47240D01*
G01X15023232Y-12472611D01*
G03X15060846Y-12549419I37614J-29194D01*
G03X15098461Y-12472611I0J47614D01*
G01X15098461Y-12467339D01*
G03X15108087Y-12444100I-37614J29194D01*
G01X15254566Y-12297621D01*
G01X15288908Y-12297621D01*
G03X15247085Y-12333785I4445J-47406D01*
G03X15267652Y-12385108I46268J-11241D01*
G03X15261026Y-12459259I26260J-39718D01*
G03X15241419Y-12504610I27558J-38829D01*
G03X15272599Y-12542938I47165J6523D01*
G01X15242766Y-12572771D01*
G03X15233524Y-12585255I37204J-37204D01*
G01X15196008Y-12622771D01*
G03X15270415Y-12697179I37204J-37204D01*
G01X15317173Y-12650421D01*
G03X15326415Y-12637937I-37204J37204D01*
G01X15353286Y-12611066D01*
G01X15479305Y-12611066D01*
G01X15507394Y-12639155D01*
G01X15507394Y-12720351D01*
G03X15412635Y-12720227I-47386J-4657D01*
G03X15359921Y-12751923I-7626J-46999D01*
G03X15293055Y-12772110I-24079J-41077D01*
G03X15202485Y-12792455I-42956J-20539D01*
G03X15292886Y-12813539I47614J-194D01*
G03X15302326Y-12826819I42956J20539D01*
G03X15267356Y-12872453I12643J-45905D01*
G03X15230374Y-12952722I-2387J-47554D01*
G03X15312583Y-12920278I34595J32715D01*
G03X15358532Y-12891944I2387J47554D01*
G03X15348485Y-12838904I-43563J19220D01*
G03X15380930Y-12808303I-12643J45905D01*
G03X15452382Y-12772006I24079J41077D01*
G03X15507394Y-12729664I7626J46999D01*
G01X15507394Y-12838141D01*
G01X15477765Y-12867770D01*
G03X15462355Y-12904974I37204J-37204D01*
G01X15462355Y-13024974D01*
G03X15500099Y-13075443I52614J0D01*
G01X15174325Y-13075443D01*
G01X15164572Y-13065690D01*
G01X15164572Y-12880007D01*
G03X15154449Y-12855567I-34564J0D01*
G01X15124449Y-12825566D01*
G03X15100008Y-12815443I-24441J-24440D01*
G01X15002756Y-12815443D01*
G03X14922394Y-12850007I-32748J-34564D01*
G03X15002756Y-12884571I47614J0D01*
G01X15024966Y-12884571D01*
G03X15040489Y-12937367I45043J-15436D01*
G03X15095444Y-12940258I29519J37360D01*
G01X15095444Y-12959756D01*
G03X15022394Y-13000007I-25436J-40251D01*
G03X15095444Y-13040258I47614J0D01*
G01X15095444Y-13059756D01*
G03X15040490Y-13062647I-25436J-40251D01*
G03X15024966Y-13115443I29519J-37360D01*
G01X15002756Y-13115443D01*
G03X14932387Y-13179192I-32748J-34564D01*
G01X14725944Y-12972748D01*
G01X14725944Y-12487589D01*
G01X14742212Y-12487589D01*
G03X14763241Y-12540568I45966J-12418D01*
G03X14820008Y-12535418I24937J40561D01*
G03X14885506Y-12533675I31830J35412D01*
G03X14887249Y-12468177I-33668J33668D01*
G03X14885506Y-12402680I-35412J31830D01*
G03X14820008Y-12400936I-33668J-33668D01*
G03X14747048Y-12412361I-31830J-35412D01*
G01X14444165Y-12412361D01*
G03X14379971Y-12417693I-29194J-37614D01*
G03X14297357Y-12449975I-35000J-32282D01*
G03X14379971Y-12482257I47614J0D01*
G03X14444165Y-12487589I35000J32282D01*
G01X14650715Y-12487589D01*
G01X14650715Y-12988329D01*
G03X14661732Y-13014926I37614J0D01*
G01X14896689Y-13249882D01*
G03X14854885Y-13366287I-1718J-65091D01*
G03X14957710Y-13297551I40085J51313D01*
G01X14960008Y-13297621D01*
G01X15054428Y-13297621D01*
G01X15097394Y-13340587D01*
G01X15097394Y-13445007D01*
G03X15108411Y-13471604I37614J0D01*
G01X15153411Y-13516604D01*
G03X15180008Y-13527621I26597J26597D01*
G01X15380008Y-13527621D01*
G03X15406606Y-13516604I0J37614D01*
G01X15445623Y-13477587D01*
G01X15480065Y-13477587D01*
G03X15516820Y-13557551I34904J-32386D01*
G03X15547251Y-13474973I-1851J47578D01*
G03X15549969Y-13472255I-32282J35000D01*
G03X15632583Y-13439973I35000J32282D01*
G03X15549969Y-13407691I-47614J0D01*
G03X15485775Y-13402359I-35000J-32282D01*
G01X15430042Y-13402359D01*
G03X15425283Y-13402661I0J-37614D01*
G03X15424572Y-13338017I-35314J31938D01*
G01X15424572Y-13300007D01*
G03X15414449Y-13275567I-34564J0D01*
G01X15323453Y-13184571D01*
G01X15481428Y-13184571D01*
G03X15483927Y-13257473I31840J-35403D01*
G03X15513268Y-13342587I29340J-37500D01*
G03X15542608Y-13257473I0J47614D01*
G03X15545107Y-13184571I-29340J37500D01*
G01X16620009Y-13184571D01*
G03X16644449Y-13174447I0J34564D01*
G01X16924450Y-12894448D01*
G03X16929690Y-12887720I-24440J24440D01*
G03X16935180Y-12894836I30319J17713D01*
G01X17045147Y-13004803D01*
G03X17054105Y-13011297I24829J24829D01*
G03X17135957Y-12992300I35861J31323D01*
G03X17074577Y-12934916I-45991J12326D01*
G01X16995123Y-12855462D01*
G01X16995123Y-11967364D01*
G03X17004468Y-11984124I34174J8069D01*
G01X17175180Y-12154836D01*
G03X17200009Y-12165121I24829J24829D01*
G01X17822848Y-12165121D01*
G03X17880846Y-12169999I32157J35114D01*
G03X17900233Y-12115121I-25840J39992D01*
G01X17935465Y-12115121D01*
G01X17979850Y-12159506D01*
G01X17979850Y-12212818D01*
G03X17989136Y-12284976I35114J-32157D01*
G03X18014964Y-12372590I25828J-40000D01*
G03X18040792Y-12284976I0J47614D01*
G03X18050727Y-12213541I-25828J40000D01*
G03X18108675Y-12197794I19283J43535D01*
G03X18105124Y-12137849I-38665J27787D01*
G01X18105124Y-12120007D01*
G03X18094839Y-12095177I-35114J0D01*
G01X18004839Y-12005177D01*
G03X17980010Y-11994892I-24829J-24829D01*
G01X17244554Y-11994892D01*
G01X17215123Y-11965462D01*
G01X17215123Y-11432164D01*
G03X17180009Y-11352392I-35114J32157D01*
G03X17144895Y-11432164I0J-47614D01*
G01X17144895Y-11965234D01*
G01X17115123Y-11935462D01*
G01X17115123Y-11360463D01*
G03X17176739Y-11310960I14174J45455D01*
G03X17107628Y-11272610I-47442J-4047D01*
G03X17104839Y-11269464I-27619J-21684D01*
G01X17077911Y-11242536D01*
G03X17126485Y-11208148I2810J47531D01*
G03X17181997Y-11207814I27523J38853D01*
G03X17199463Y-11155120I-27989J38519D01*
G01X17265465Y-11155120D01*
G01X17278473Y-11168128D01*
G03X17246344Y-11182047I1537J-47589D01*
G03X17232421Y-11214174I33666J-33671D01*
G03X17190797Y-11279389I2589J-47544D01*
G03X17265905Y-11297947I44213J17672D01*
G03X17318122Y-11326924I44105J17941D01*
G03X17357578Y-11282097I-8112J46918D01*
G01X17364839Y-11274835D01*
G03X17375123Y-11250006I-24829J24829D01*
G01X17375123Y-11180006D01*
G03X17364839Y-11155177I-35114J0D01*
G01X17304839Y-11095177D01*
G03X17280009Y-11084892I-24829J-24829D01*
G01X17135237Y-11084892D01*
G03X17075292Y-11024724I-45227J14886D01*
G03X17064908Y-10977615I-45282J14718D01*
G03X17028768Y-10898397I-35610J31607D01*
G03X16994399Y-10978399I529J-47611D01*
G03X16982403Y-11010874I35610J-31607D01*
G03X16964731Y-10977814I-47437J-4104D01*
G03X16952149Y-10904236I-35433J31806D01*
G01X16982811Y-10873574D01*
G03X17028252Y-10823196I-2091J47568D01*
G01X17033152Y-10828097D01*
G03X17082585Y-10873583I47568J2091D01*
G03X17128306Y-10824367I-1865J47578D01*
G03X17178015Y-10867565I47414J4361D01*
G03X17184975Y-10922250I41994J-22441D01*
G03X17238896Y-10933714I35035J32244D01*
G01X17238896Y-10938561D01*
G03X17274010Y-11018332I35114J-32157D01*
G03X17309124Y-10938561I0J47614D01*
G01X17309124Y-10730550D01*
G01X17344554Y-10695120D01*
G01X18125465Y-10695120D01*
G01X18284905Y-10854559D01*
G03X18357401Y-10893036I47568J2091D01*
G03X18355830Y-10810977I-24928J40567D01*
G03X18377939Y-10777964I-24899J40585D01*
G03X18411518Y-10698760I-2008J47572D01*
G03X18328923Y-10722821I-35587J-31633D01*
G03X18285573Y-10755910I2008J-47572D01*
G01X18165456Y-10635793D01*
G01X21119958Y-10635793D01*
G02X21214144Y-10729979I0J-94186D01*
G01X21214144Y-11334163D01*
G01X20094960Y-11334163D01*
G03X20059146Y-11369977I0J-35814D01*
G01X20059146Y-12730148D01*
G03X20094960Y-12765962I35814J0D01*
G01X21214144Y-12765962D01*
G01X21214144Y-13469973D01*
G02X21119958Y-13564159I-94186J0D01*
G01X14379971Y-13564159D01*
G02X14285786Y-13469973I0J94186D01*
G01X14285786Y-10729979D01*
G02X14379971Y-10635793I94186J0D01*
G37*
%LPC*%
G36*
G01X14894970Y-12669860D02*
G03X14894970Y-12800089I0J-65114D01*
G03X14894970Y-12669860I0J65114D01*
G37*
G36*
G01X14922394Y-13050007D02*
G03X15017622Y-13050007I47614J0D01*
G03X14922394Y-13050007I-47614J0D01*
G37*
G36*
G01X14922394Y-12950007D02*
G03X15017622Y-12950007I47614J0D01*
G03X14922394Y-12950007I-47614J0D01*
G37*
G36*
G01X14976340Y-11807334D02*
G03X15041838Y-11809077I33668J33668D01*
G03X15107335Y-11807334I31830J35412D01*
G03X15109079Y-11741836I-33668J33668D01*
G03X15107335Y-11676338I-35412J31830D01*
G03X15041838Y-11674595I-33668J-33668D01*
G03X14976340Y-11676338I-31830J-35412D01*
G03X14974596Y-11741836I33668J-33668D01*
G03X14976340Y-11807334I35412J-31830D01*
G37*
G36*
G01X15054705Y-11193872D02*
G03X15081157Y-11232749I47458J3854D01*
G03X15082770Y-11262235I46006J-12270D01*
G03X15091667Y-11348148I24393J-40891D01*
G03X15151555Y-11285910I15496J45022D01*
G03X15154099Y-11284281I-24393J40891D01*
G03X15219353Y-11285102I33063J34262D01*
G03X15224137Y-11220019I-32191J35084D01*
G03X15222029Y-11157593I-36974J30000D01*
G03X15159920Y-11150968I-34867J-32426D01*
G03X15154137Y-11100019I-42758J20949D01*
G03X15117163Y-11022405I-36974J30000D01*
G03X15080188Y-11100019I0J-47614D01*
G03X15074538Y-11151238I36974J-30000D01*
G03X15054705Y-11193872I27625J-38781D01*
G37*
G36*
G01X15172394Y-10740006D02*
G03X15267622Y-10740006I47614J0D01*
G03X15172394Y-10740006I-47614J0D01*
G37*
G36*
G01X15179549Y-10990019D02*
G03X15274777Y-10990019I47614J0D01*
G03X15179549Y-10990019I-47614J0D01*
G37*
G36*
G01X15462394Y-10800006D02*
G03X15557622Y-10800006I47614J0D01*
G03X15462394Y-10800006I-47614J0D01*
G37*
G36*
G01X15647749Y-10804978D02*
G03X15742977Y-10804978I47614J0D01*
G03X15647749Y-10804978I-47614J0D01*
G37*
G36*
G01X16842395Y-13050007D02*
G03X16937623Y-13050007I47614J0D01*
G03X16842395Y-13050007I-47614J0D01*
G37*
G36*
G01X17033264Y-13342587D02*
G03X17062605Y-13257473I0J47614D01*
G03X17033264Y-13172359I-29340J37500D01*
G03X17003924Y-13257473I0J-47614D01*
G03X17033264Y-13342587I29340J-37500D01*
G37*
G36*
G01X17039966Y-13557587D02*
G03X17072248Y-13474973I0J47614D01*
G03X17074966Y-13472255I-32282J35000D01*
G03X17157580Y-13439973I35000J32282D01*
G03X17074966Y-13407691I-47614J0D01*
G03X17006298Y-13406305I-35000J-32282D01*
G03X17007684Y-13474973I33668J-33668D01*
G03X17039966Y-13557587I32282J-35000D01*
G37*
G36*
G01X17081683Y-10946008D02*
G03X17176912Y-10946008I47614J0D01*
G03X17081683Y-10946008I-47614J0D01*
G37*
G36*
G01X18477676Y-13053157D02*
G03X18582904Y-13053157I52614J0D01*
G01X18582904Y-12897042D01*
G01X19038091Y-12441854D01*
G03X19121800Y-12480223I46911J-8152D01*
G03X19067881Y-12405577I-36797J30217D01*
G03X19068738Y-12403155I-49153J18767D01*
G03X19038876Y-12338208I-43513J19332D01*
G03X18981524Y-12349607I-20149J-48603D01*
G01X18532732Y-12798399D01*
G01X18241460Y-12507126D01*
G03X18204256Y-12491716I-37204J-37204D01*
G01X17507972Y-12491716D01*
G03X17507277Y-12407922I-22966J41709D01*
G03X17437602Y-12454475I-22271J-42084D01*
G01X17426629Y-12443503D01*
G01X17426629Y-12370278D01*
G03X17321401Y-12370278I-52614J0D01*
G01X17321401Y-12465296D01*
G03X17336811Y-12502500I52614J0D01*
G01X17415845Y-12581534D01*
G03X17453049Y-12596944I37204J37204D01*
G01X17473350Y-12596944D01*
G03X17515006Y-12667621I41656J-23063D01*
G03X17556661Y-12596944I0J47614D01*
G01X18182462Y-12596944D01*
G01X18477676Y-12892158D01*
G01X18477676Y-13053157D01*
G37*
G36*
G01X17362351Y-10839978D02*
G03X17457579Y-10839978I47614J0D01*
G03X17362351Y-10839978I-47614J0D01*
G37*
G36*
G01X17699965Y-12968225D02*
G03X17649418Y-12962247I-30000J-36974D01*
G03X17622351Y-13005352I20547J-42953D01*
G03X17572258Y-12962470I-47386J-4655D01*
G03X17522265Y-12920454I-47293J-5522D01*
G03X17438534Y-12895259I-47300J-5462D01*
G03X17477665Y-12973454I36431J-30657D01*
G03X17527672Y-13015529I47300J5462D01*
G03X17577807Y-13057536I47293J5522D01*
G03X17622579Y-13009854I-2842J47529D01*
G03X17699965Y-13042174I47386J4655D01*
G03X17777351Y-13009854I30000J36974D01*
G03X17821117Y-13057465I47614J-153D01*
G03X17871981Y-13017525I3847J47458D01*
G03X17922305Y-12975469I3024J47518D01*
G03X17961437Y-12897275I2700J47537D01*
G03X17877706Y-12922470I-36431J-30657D01*
G03X17827989Y-12962489I-2700J-47537D01*
G03X17805943Y-12966357I-3024J-47518D01*
G03X17787407Y-12884240I-30979J36158D01*
G03X17754217Y-12834769I-47442J4040D01*
G03X17698717Y-12856415I-14253J-45431D01*
G03X17624965Y-12838225I-43752J-18785D01*
G03X17547351Y-12875200I-30000J-36974D01*
G03X17624965Y-12912174I47614J0D01*
G03X17696213Y-12898984I30000J36974D01*
G03X17727522Y-12926159I43752J18785D01*
G03X17736317Y-12958011I47442J-4040D01*
G03X17699965Y-12968225I-6353J-47188D01*
G37*
G36*
G01X17546341Y-10796338D02*
G03X17577919Y-10877574I33668J-33668D01*
G01X17960152Y-11259807D01*
G03X17984981Y-11270092I24829J24829D01*
G01X18184792Y-11270092D01*
G03X18182719Y-11279469I45218J-14914D01*
G03X18139168Y-11356025I-6039J-47230D01*
G03X18223971Y-11332236I37511J29326D01*
G03X18275976Y-11297423I6039J47230D01*
G03X18322624Y-11228795I4005J47445D01*
G03X18340547Y-11203917I-27614J38789D01*
G03X18386699Y-11130902I6133J47218D01*
G03X18301142Y-11142789I-40020J-25797D01*
G01X18300914Y-11142759D01*
G01X18187624Y-11029426D01*
G01X18187624Y-10988950D01*
G01X18232636Y-10943937D01*
G03X18260351Y-10863028I-5954J47240D01*
G03X18179442Y-10890743I-33668J-33668D01*
G01X18123413Y-10946772D01*
G03X18112396Y-10973369I26597J-26597D01*
G01X18112396Y-11045006D01*
G03X18123413Y-11071603I37614J0D01*
G01X18247770Y-11195960D01*
G03X18248427Y-11199863I47240J5954D01*
G01X17999526Y-11199863D01*
G01X17627578Y-10827915D01*
G03X17546341Y-10796338I-47568J-2091D01*
G37*
G36*
G01X17682580Y-12625140D02*
G03X17675955Y-12687249I32426J-34867D01*
G03X17625006Y-12693032I-20949J-42758D01*
G03X17547392Y-12730007I-30000J-36974D01*
G03X17625006Y-12766981I47614J0D01*
G03X17676225Y-12772631I30000J36974D01*
G03X17718859Y-12792465I38781J27625D01*
G03X17757736Y-12766013I-3854J47458D01*
G03X17787222Y-12764399I12270J46006D01*
G03X17873135Y-12755503I40891J24393D01*
G03X17810897Y-12695614I-45022J15496D01*
G03X17809268Y-12693070I-40891J-24393D01*
G03X17810089Y-12627816I-34262J33063D01*
G03X17745006Y-12623033I-35084J-32191D01*
G03X17682580Y-12625140I-30000J-36974D01*
G37*
G36*
G01X17645010Y-11587620D02*
G03X17681985Y-11510006I0J47614D01*
G03X17645010Y-11432392I-36974J30000D01*
G03X17608036Y-11510006I0J-47614D01*
G03X17645010Y-11587620I36974J-30000D01*
G37*
G36*
G01X17847941Y-11377498D02*
G03X17926993Y-11420209I47023J-7479D01*
G03X17891987Y-11337456I-32029J35232D01*
G03X17878418Y-11296096I-47023J7479D01*
G03X17856025Y-11209284I-26739J39397D01*
G03X17818226Y-11290580I-4345J-47415D01*
G03X17799910Y-11345380I26739J-39397D01*
G03X17847941Y-11377498I45054J15403D01*
G37*
G36*
G01X17998704Y-10908944D02*
G03X17919499Y-10875366I-47572J-2008D01*
G03X17943560Y-10957961I31633J-35587D01*
G03X18022765Y-10991540I47572J2008D01*
G03X17998704Y-10908944I-31633J35587D01*
G37*
G36*
G01X18192396Y-12310007D02*
G03X18270010Y-12346981I47614J0D01*
G03X18347624Y-12310007I30000J36974D01*
G03X18270010Y-12273032I-47614J0D01*
G03X18192396Y-12310007I-30000J-36974D01*
G37*
G36*
G01X18244065Y-11598267D02*
G03X18339293Y-11598267I47614J0D01*
G03X18244065Y-11598267I-47614J0D01*
G37*
G36*
G01X18406800Y-11099143D02*
G03X18487213Y-11059104I33163J34166D01*
G03X18524842Y-10977534I4465J47404D01*
G03X18444428Y-11017574I-33163J-34166D01*
G03X18406800Y-11099143I-4465J-47404D01*
G37*
G36*
G01X18499065Y-11848266D02*
G03X18594293Y-11848266I47614J0D01*
G03X18499065Y-11848266I-47614J0D01*
G37*
G36*
G01X18634963Y-13342587D02*
G03X18664303Y-13257473I0J47614D01*
G03X18634963Y-13172359I-29340J37500D01*
G03X18605622Y-13257473I0J-47614D01*
G03X18634963Y-13342587I29340J-37500D01*
G37*
G36*
G01X18639963Y-13557587D02*
G03X18672244Y-13474973I0J47614D01*
G03X18674963Y-13472255I-32282J35000D01*
G03X18757577Y-13439973I35000J32282D01*
G03X18674963Y-13407691I-47614J0D01*
G03X18606294Y-13406305I-35000J-32282D01*
G03X18607681Y-13474973I33668J-33668D01*
G03X18639963Y-13557587I32282J-35000D01*
G37*
G36*
G01X18642349Y-12983587D02*
G03X18737577Y-12983587I47614J0D01*
G03X18642349Y-12983587I-47614J0D01*
G37*
G36*
G01X18655633Y-11793266D02*
G03X18750861Y-11793266I47614J0D01*
G03X18655633Y-11793266I-47614J0D01*
G37*
G36*
G01X18817726Y-10812083D02*
G03X18870010Y-10806980I22285J42077D01*
G03X18940010Y-10795834I30000J36974D01*
G03X19010010Y-10806980I40000J25828D01*
G03X19087624Y-10770006I30000J36974D01*
G03X19010010Y-10733032I-47614J0D01*
G03X18940010Y-10744178I-30000J-36974D01*
G03X18870010Y-10733032I-40000J-25828D01*
G03X18852452Y-10724046I-30000J-36974D01*
G03X18827295Y-10677929I-47442J4040D01*
G03X18775010Y-10683031I-22285J-42077D01*
G03X18697396Y-10720006I-30000J-36974D01*
G03X18775010Y-10756980I47614J0D01*
G03X18792568Y-10765966I30000J36974D01*
G03X18817726Y-10812083I47442J-4040D01*
G37*
G36*
G01X18710633Y-11071699D02*
G03X18805861Y-11071699I47614J0D01*
G03X18710633Y-11071699I-47614J0D01*
G37*
G36*
G01X18730680Y-12088291D02*
G03X18825909Y-12088291I47614J0D01*
G03X18730680Y-12088291I-47614J0D01*
G37*
G36*
G01X18820632Y-11628267D02*
G03X18915861Y-11628267I47614J0D01*
G03X18820632Y-11628267I-47614J0D01*
G37*
G36*
G01X18847348Y-12239976D02*
G03X18924962Y-12276950I47614J0D01*
G03X19002576Y-12239976I30000J36974D01*
G03X18924962Y-12203001I-47614J0D01*
G03X18847348Y-12239976I-30000J-36974D01*
G37*
G36*
G01X18850632Y-11216699D02*
G03X18945861Y-11216699I47614J0D01*
G03X18850632Y-11216699I-47614J0D01*
G37*
G36*
G01X19427986Y-12962489D02*
G03X19405940Y-12966357I-3024J-47518D01*
G03X19421407Y-12919715I-30979J36158D01*
G03X19387404Y-12884240I-46445J-10484D01*
G03X19354214Y-12834769I-47442J4040D01*
G03X19298713Y-12856415I-14253J-45431D01*
G03X19224962Y-12838225I-43752J-18785D01*
G03X19147348Y-12875200I-30000J-36974D01*
G03X19224962Y-12912174I47614J0D01*
G03X19296209Y-12898984I30000J36974D01*
G03X19327519Y-12926159I43752J18785D01*
G03X19336314Y-12958011I47442J-4040D01*
G03X19299961Y-12968225I-6353J-47188D01*
G03X19249415Y-12962247I-30000J-36974D01*
G03X19222348Y-13005352I20547J-42953D01*
G03X19172255Y-12962470I-47386J-4655D01*
G03X19122262Y-12920454I-47293J-5522D01*
G03X19038531Y-12895259I-47300J-5462D01*
G03X19077662Y-12973454I36431J-30657D01*
G03X19127669Y-13015529I47300J5462D01*
G03X19177803Y-13057536I47293J5522D01*
G01X19177803Y-13057536D01*
G03X19222575Y-13009854I-2842J47529D01*
G03X19299961Y-13042174I47386J4655D01*
G03X19348311Y-13049136I30000J36974D01*
G03X19377347Y-13009854I-18349J43936D01*
G03X19421114Y-13057465I47614J-153D01*
G03X19471978Y-13017525I3847J47458D01*
G03X19522302Y-12975469I3024J47518D01*
G03X19561434Y-12897275I2700J47537D01*
G03X19477703Y-12922470I-36431J-30657D01*
G03X19427986Y-12962489I-2700J-47537D01*
G37*
G36*
G01X19067388Y-12620007D02*
G03X19162616Y-12620007I47614J0D01*
G03X19067388Y-12620007I-47614J0D01*
G37*
G36*
G01X19117396Y-11175006D02*
G03X19212624Y-11175006I47614J0D01*
G03X19117396Y-11175006I-47614J0D01*
G37*
G36*
G01X19410086Y-12627816D02*
G03X19345002Y-12623033I-35084J-32191D01*
G03X19282577Y-12625140I-30000J-36974D01*
G03X19275952Y-12687249I32426J-34867D01*
G03X19225002Y-12693032I-20949J-42758D01*
G03X19147388Y-12730007I-30000J-36974D01*
G03X19225002Y-12766981I47614J0D01*
G03X19276221Y-12772631I30000J36974D01*
G03X19357732Y-12766013I38781J27625D01*
G03X19387219Y-12764399I12270J46006D01*
G03X19473132Y-12755503I40891J24393D01*
G03X19410894Y-12695614I-45022J15496D01*
G03X19409265Y-12693070I-40891J-24393D01*
G03X19410086Y-12627816I-34262J33063D01*
G37*
G36*
G01X19690817Y-11317620D02*
G03X19767625Y-11280006I29194J37614D01*
G03X19690817Y-11242392I-47614J0D01*
G01X19370681Y-11242392D01*
G03X19360433Y-11239631I-17435J-44307D01*
G03X19284711Y-11195151I-47187J6363D01*
G03X19306059Y-11280336I28535J-38116D01*
G03X19333812Y-11330167I47187J-6363D01*
G03X19389453Y-11317620I19434J43468D01*
G01X19690817Y-11317620D01*
G37*
G36*
G01X19345011Y-11907620D02*
G03X19381985Y-11830006I0J47614D01*
G03X19345011Y-11752392I-36974J30000D01*
G03X19308036Y-11830006I0J-47614D01*
G03X19345011Y-11907620I36974J-30000D01*
G37*
G36*
G01X19454961Y-11632591D02*
G03X19491935Y-11554977I0J47614D01*
G03X19454961Y-11477363I-36974J30000D01*
G03X19417987Y-11554977I0J-47614D01*
G03X19454961Y-11632591I36974J-30000D01*
G37*
G36*
G01X19407388Y-12130006D02*
G03X19502617Y-12130006I47614J0D01*
G03X19407388Y-12130006I-47614J0D01*
G37*
G36*
G01X19615040Y-12372621D02*
G03X19640790Y-12284975I-30J47614D01*
G03X19614931Y-12197362I-25829J39999D01*
G03X19589181Y-12285007I30J-47614D01*
G03X19615040Y-12372621I25829J-39999D01*
G37*
G36*
G01X19642397Y-12105006D02*
G03X19737625Y-12105006I47614J0D01*
G03X19642397Y-12105006I-47614J0D01*
G37*
G36*
G01X19709893Y-11826953D02*
G03X19805121Y-11826953I47614J0D01*
G03X19709893Y-11826953I-47614J0D01*
G37*
G36*
G01X19892944Y-12280834D02*
G03X19881704Y-12348285I27067J-39173D01*
G03X19889435Y-12418679I35509J-31721D01*
G03X19958612Y-12403527I27777J38672D01*
G03X20026862Y-12419327I41399J23521D01*
G03X20036985Y-12350007I-26852J39320D01*
G03X20027966Y-12281463I-36974J30000D01*
G03X19960011Y-12294178I-27955J-38544D01*
G03X19892944Y-12280834I-40000J-25828D01*
G37*
G36*
G01X19912346Y-11979976D02*
G03X20007574Y-11979976I47614J0D01*
G03X19912346Y-11979976I-47614J0D01*
G37*
G36*
G01X19912346Y-12119976D02*
G03X20007574Y-12119976I47614J0D01*
G03X19912346Y-12119976I-47614J0D01*
G37*
G36*
G01X19959960Y-12611089D02*
G03X19992242Y-12528475I0J47614D01*
G03X19959960Y-12445861I-32282J35000D01*
G03X19927678Y-12528475I0J-47614D01*
G03X19959960Y-12611089I32282J-35000D01*
G37*
G36*
G01X21050873Y-12857781D02*
G03X21120953Y-12921118I39085J-27193D01*
G03X21069043Y-12842200I-30995J36144D01*
G03X20998963Y-12778863I-39085J27193D01*
G03X21050873Y-12857781I30995J-36144D01*
G37*
G36*
G01X21112344Y-12814974D02*
G03X21207572Y-12814974I47614J0D01*
G03X21112344Y-12814974I-47614J0D01*
G37*
%LPD*%
G36*
G01X14531508Y-11769100D02*
G01X14633833Y-11769100D01*
G03X14698764Y-11770540I33238J34093D01*
G02X14757117Y-11841858I-14405J-71318D01*
G01X14757117Y-11934767D01*
G03X14787257Y-11964908I30140J0D01*
G01X14845200Y-11964908D01*
G02X14892984Y-12012691I0J-47783D01*
G01X14892984Y-12159547D01*
G02X14869177Y-12183353I-23807J0D01*
G01X14735308Y-12183353D01*
G02X14721492Y-12169537I0J13816D01*
G01X14721492Y-12047656D01*
G03X14671371Y-11997536I-50121J0D01*
G01X14669968Y-11997536D01*
G03X14639973Y-11997536I-14998J-45190D01*
G01X14537502Y-11997536D01*
G02X14524685Y-11984718I0J12817D01*
G01X14524685Y-11775923D01*
G02X14531508Y-11769100I6823J0D01*
G37*
G36*
G01X14869782Y-11243625D02*
G03X14873320Y-11268998I47188J-6353D01*
G03X14841817Y-11252591I-36158J-30979D01*
G03X14869782Y-11243625I153J47614D01*
G37*
G36*
G01X14940824Y-13187628D02*
G03X15002756Y-13184571I29185J37621D01*
G01X15024966Y-13184571D01*
G03X15027985Y-13222393I45043J-15436D01*
G01X14975588Y-13222393D01*
G01X14940824Y-13187628D01*
G37*
G36*
G01X15100101Y-13236906D02*
G03X15102756Y-13234571I-30093J36899D01*
G01X15275691Y-13234571D01*
G01X15326249Y-13285129D01*
G03X15292953Y-13323203I13720J-45594D01*
G03X15286986Y-13323203I-2984J-47521D01*
G03X15202789Y-13300979I-47016J-7521D01*
G03X15242953Y-13378244I37180J-29744D01*
G03X15289969Y-13418337I47016J7521D01*
G03X15336986Y-13378244I0J47614D01*
G03X15342953Y-13378244I2984J47521D01*
G03X15399434Y-13417387I47016J7521D01*
G01X15364428Y-13452393D01*
G01X15195588Y-13452393D01*
G01X15172622Y-13429427D01*
G01X15172622Y-13325007D01*
G03X15161605Y-13298410I-37614J0D01*
G01X15100101Y-13236906D01*
G37*
G36*
G01X15330008Y-12297621D02*
G03X15356605Y-12286604I0J37614D01*
G01X15396606Y-12246604D01*
G03X15406173Y-12230347I-26597J26597D01*
G03X15415972Y-12245027I43815J18638D01*
G03X15415972Y-12311661I34015J-33317D01*
G03X15404979Y-12329443I34016J-33317D01*
G03X15326671Y-12311011I-44992J-15584D01*
G03X15297798Y-12297621I-33317J-34016D01*
G01X15330008Y-12297621D01*
G37*
G36*
G01X15565589Y-11997621D02*
G01X15750009Y-11997621D01*
G03X15776606Y-11986604I0J37614D01*
G01X15956606Y-11806604D01*
G03X15967623Y-11780006I-26597J26597D01*
G01X15967623Y-11099200D01*
G03X15970602Y-11045121I-37614J29194D01*
G01X16692852Y-11045121D01*
G03X16739214Y-11055452I32157J35114D01*
G03X16732567Y-11084050I40795J-24554D01*
G03X16673729Y-11141170I-12558J-45928D01*
G03X16752166Y-11165092I46280J11192D01*
G01X16756042Y-11165092D01*
G01X16745569Y-11175566D01*
G03X16735445Y-11200006I24440J-24440D01*
G01X16735445Y-11240006D01*
G03X16745569Y-11264446I34564J0D01*
G01X16825445Y-11344323D01*
G01X16825445Y-12835690D01*
G01X16585692Y-13075443D01*
G01X15529839Y-13075443D01*
G03X15567583Y-13024974I-14870J50469D01*
G01X15567583Y-12926768D01*
G01X15573627Y-12920724D01*
G03X15652625Y-12911242I36381J30717D01*
G03X15612623Y-12842465I-42617J21235D01*
G01X15612623Y-12639155D01*
G01X15701456Y-12550321D01*
G03X15754022Y-12539790I18552J43851D01*
G03X15763468Y-12487018I-34013J33320D01*
G03X15772623Y-12457361I-43459J29657D01*
G01X15772623Y-12437590D01*
G01X15862039Y-12437590D01*
G03X15862039Y-12332361I0J52614D01*
G01X15735666Y-12332361D01*
G03X15667394Y-12382592I-15658J-50230D01*
G01X15667394Y-12435568D01*
G01X15605635Y-12497327D01*
G03X15601304Y-12491515I-40234J-25463D01*
G03X15601426Y-12429105I-35902J31275D01*
G03X15565402Y-12350356I-36024J31135D01*
G03X15529378Y-12429105I0J-47614D01*
G03X15529500Y-12491515I36024J-31135D01*
G03X15519752Y-12509255I35902J-31275D01*
G03X15501099Y-12505837I-18653J-49197D01*
G01X15461474Y-12505837D01*
G03X15442956Y-12462853I-47342J5086D01*
G03X15414043Y-12384376I-35822J31367D01*
G03X15363815Y-12451247I-6909J-47110D01*
G03X15330866Y-12454851I-11621J-46174D01*
G03X15319614Y-12384745I-36954J30025D01*
G03X15326671Y-12379042I-26260J39718D01*
G03X15404996Y-12360563I33317J34016D01*
G03X15475047Y-12385465I44992J15584D01*
G03X15484003Y-12311661I-25059J40486D01*
G03X15484003Y-12245027I-34016J33317D01*
G03X15484003Y-12178392I-34015J33317D01*
G03X15496103Y-12133223I-34016J33317D01*
G03X15463724Y-12099485I-46116J-11852D01*
G01X15565589Y-11997621D01*
G37*
%LPC*%
G36*
G01X15512400Y-12149986D02*
G03X15607628Y-12149986I47614J0D01*
G03X15512400Y-12149986I-47614J0D01*
G37*
G36*
G01X15542638Y-12290007D02*
G03X15637866Y-12290007I47614J0D01*
G03X15542638Y-12290007I-47614J0D01*
G37*
G36*
G01X15672394Y-12260007D02*
G03X15767623Y-12260007I47614J0D01*
G03X15672394Y-12260007I-47614J0D01*
G37*
G36*
G01X16097582Y-13009854D02*
G03X16174968Y-13042174I47386J4655D01*
G03X16223317Y-13049136I30000J36974D01*
G03X16252354Y-13009854I-18349J43936D01*
G03X16296120Y-13057465I47614J-153D01*
G03X16346984Y-13017525I3847J47458D01*
G03X16397308Y-12975469I3024J47518D01*
G03X16436440Y-12897275I2700J47537D01*
G03X16352709Y-12922470I-36431J-30657D01*
G03X16302992Y-12962489I-2700J-47537D01*
G03X16280947Y-12966357I-3024J-47518D01*
G03X16296413Y-12919715I-30979J36158D01*
G03X16262410Y-12884240I-46445J-10484D01*
G03X16229221Y-12834769I-47442J4040D01*
G03X16173720Y-12856415I-14253J-45431D01*
G03X16099968Y-12838225I-43752J-18785D01*
G03X16022354Y-12875200I-30000J-36974D01*
G03X16099968Y-12912174I47614J0D01*
G03X16171216Y-12898984I30000J36974D01*
G03X16202525Y-12926159I43752J18785D01*
G03X16211320Y-12958011I47442J-4040D01*
G03X16174968Y-12968225I-6353J-47188D01*
G03X16124421Y-12962247I-30000J-36974D01*
G03X16097354Y-13005352I20547J-42953D01*
G03X16047261Y-12962470I-47386J-4655D01*
G03X15997268Y-12920454I-47293J-5522D01*
G03X15913537Y-12895259I-47300J-5462D01*
G03X15952668Y-12973454I36431J-30657D01*
G03X16002675Y-13015529I47300J5462D01*
G03X16097582Y-13009854I47293J5522D01*
G37*
G36*
G01X15912395Y-12450007D02*
G03X16007623Y-12450007I47614J0D01*
G03X15912395Y-12450007I-47614J0D01*
G37*
G36*
G01X15942395Y-12620007D02*
G03X16037623Y-12620007I47614J0D01*
G03X15942395Y-12620007I-47614J0D01*
G37*
G36*
G01X16285092Y-12627816D02*
G03X16220009Y-12623033I-35084J-32191D01*
G03X16157583Y-12625140I-30000J-36974D01*
G03X16150958Y-12687249I32426J-34867D01*
G03X16100009Y-12693032I-20949J-42758D01*
G03X16022395Y-12730007I-30000J-36974D01*
G03X16100009Y-12766981I47614J0D01*
G03X16151228Y-12772631I30000J36974D01*
G03X16232739Y-12766013I38781J27625D01*
G03X16262225Y-12764399I12270J46006D01*
G03X16348138Y-12755503I40891J24393D01*
G03X16285900Y-12695614I-45022J15496D01*
G03X16284271Y-12693070I-40891J-24393D01*
G03X16285092Y-12627816I-34262J33063D01*
G37*
G36*
G01X16282395Y-12130006D02*
G03X16377623Y-12130006I47614J0D01*
G03X16282395Y-12130006I-47614J0D01*
G37*
G36*
G01X16489967Y-12372590D02*
G03X16515795Y-12284976I0J47614D01*
G03X16489967Y-12197362I-25828J40000D01*
G03X16464139Y-12284976I0J-47614D01*
G03X16489967Y-12372590I25828J-40000D01*
G37*
G36*
G01X16535009Y-11662620D02*
G03X16571983Y-11585006I0J47614D01*
G03X16535009Y-11507392I-36974J30000D01*
G03X16498035Y-11585006I0J-47614D01*
G03X16535009Y-11662620I36974J-30000D01*
G37*
G36*
G01X16720009Y-12043032D02*
G03X16642395Y-12080007I-30000J-36974D01*
G03X16720009Y-12116981I47614J0D01*
G03X16797623Y-12080007I30000J36974D01*
G03X16720009Y-12043032I-47614J0D01*
G37*
%LPD*%
G36*
G01X16243615Y-12977388D02*
G03X16268988Y-12973849I6353J47188D01*
G03X16252581Y-13005352I30979J-36158D01*
G03X16243615Y-12977388I-47614J153D01*
G37*
G36*
G01X16872606Y-11223922D02*
G03X16871988Y-11217450I-47597J-1284D01*
G03X16908359Y-11204944I4022J47444D01*
G03X16923622Y-11169640I-32350J34937D01*
G03X16937131Y-11175846I26387J39634D01*
G03X16978630Y-11242573I43589J-19160D01*
G01X17008320Y-11272263D01*
G03X16994184Y-11347165I20978J-42744D01*
G01X16994184Y-11886852D01*
G03X16965638Y-11872726I-34174J-33154D01*
G03X16934573Y-11879756I-5628J-47280D01*
G01X16934573Y-11397348D01*
G03X16987273Y-11350006I5086J47342D01*
G03X16934573Y-11302664I-47614J0D01*
G01X16934573Y-11300206D01*
G03X16924450Y-11275765I-34564J0D01*
G01X16872606Y-11223922D01*
G37*
G36*
G01X16984727Y-11024724D02*
G03X16981744Y-11023861I-14718J-45282D01*
G03X16982409Y-11019006I-46778J8883D01*
G03X16982572Y-11014110I-47443J4029D01*
G03X16984727Y-11024724I47437J4104D01*
G37*
G36*
G01X17768612Y-12977388D02*
G03X17793985Y-12973849I6353J47188D01*
G03X17777578Y-13005352I30979J-36158D01*
G03X17775305Y-12990661I-47614J153D01*
G03X17768612Y-12977388I-45340J-14538D01*
G37*
G36*
G01X19368609Y-12977388D02*
G03X19393982Y-12973849I6353J47188D01*
G03X19377575Y-13005352I30979J-36158D01*
G03X19368609Y-12977388I-47614J153D01*
G37*
G54D10*
G01X14379971Y-10635793D02*
G01X16652337Y-10635793D01*
G03X16670009Y-10727620I17672J-44213D01*
G03X16687682Y-10635793I0J47614D01*
G01X17304563Y-10635793D01*
G01X17249180Y-10691176D01*
G03X17238896Y-10716005I24829J-24829D01*
G01X17238896Y-10846298D01*
G03X17217714Y-10842447I-18886J-43708D01*
G03X17186491Y-10773626I-41994J22441D01*
G03X17128134Y-10821645I-10770J-46380D01*
G03X17082811Y-10778438I-47414J-4361D01*
G01X17049550Y-10745176D01*
G03X17024720Y-10734892I-24829J-24829D01*
G01X16852167Y-10734892D01*
G03X16785009Y-10737724I-32157J-35114D01*
G03X16702395Y-10770006I-35000J-32282D01*
G03X16785009Y-10802287I47614J0D01*
G03X16838502Y-10813882I35000J32282D01*
G03X16869835Y-10864892I47219J-6124D01*
G01X14720008Y-10864892D01*
G03X14695179Y-10875176I0J-35114D01*
G01X14625178Y-10945177D01*
G03X14614894Y-10970006I24829J-24829D01*
G01X14614894Y-11625462D01*
G01X14565463Y-11674892D01*
G01X14480008Y-11674892D01*
G03X14455178Y-11685177I0J-35114D01*
G01X14410142Y-11730214D01*
G03X14399857Y-11755043I24829J-24829D01*
G01X14399857Y-11772849D01*
G03X14387587Y-11809684I35114J-32157D01*
G03X14352042Y-11891618I-2616J-47542D01*
G03X14432355Y-11852549I32929J34391D01*
G03X14478006Y-11825380I2616J47542D01*
G03X14470085Y-11772849I-43035J20373D01*
G01X14470085Y-11769588D01*
G01X14494553Y-11745120D01*
G01X14499257Y-11745120D01*
G03X14486911Y-11775923I32251J-30803D01*
G01X14486911Y-11984718D01*
G03X14488011Y-11995209I50592J0D01*
G03X14449641Y-12074646I-3040J-47517D01*
G03X14370121Y-12111152I-31920J-35330D01*
G03X14451346Y-12143687I47600J1176D01*
G03X14518639Y-12143644I33625J33711D01*
G03X14518682Y-12076351I-33668J33668D01*
G03X14531955Y-12035005I-33711J33625D01*
G03X14537502Y-12035310I5548J50286D01*
G01X14588561Y-12035310D01*
G03X14573665Y-12115882I16410J-44697D01*
G03X14651478Y-12090212I31305J35876D01*
G03X14683718Y-12080683I3492J47486D01*
G01X14683718Y-12169537D01*
G03X14735308Y-12221127I51591J0D01*
G01X14869177Y-12221127D01*
G03X14930758Y-12159547I0J61581D01*
G01X14930758Y-12012691D01*
G03X14845200Y-11927133I-85557J0D01*
G01X14794891Y-11927133D01*
G01X14794891Y-11841858D01*
G03X14684358Y-11731326I-110533J0D01*
G01X14608347Y-11731326D01*
G01X14674837Y-11664836D01*
G03X14685122Y-11640006I-24829J24829D01*
G01X14685122Y-10984551D01*
G01X14734553Y-10935120D01*
G01X14876017Y-10935120D01*
G03X14874043Y-10943791I45236J-14858D01*
G03X14873716Y-10952678I47210J-6187D01*
G03X14831641Y-11002685I5462J-47300D01*
G03X14789633Y-11052820I5522J-47293D01*
G03X14837315Y-11097592I47529J2842D01*
G03X14804996Y-11174978I4655J-47386D01*
G03X14837315Y-11252364I36974J-30000D01*
G03X14789704Y-11296130I-153J-47614D01*
G03X14829644Y-11346994I47458J-3847D01*
G03X14871700Y-11397318I47518J-3024D01*
G03X14949895Y-11436450I47537J-2700D01*
G03X14924700Y-11352719I-30657J36431D01*
G03X14884680Y-11303002I-47537J2700D01*
G03X14880812Y-11280957I-47518J3024D01*
G03X14927454Y-11296423I36158J30979D01*
G03X14962930Y-11262420I-10484J46445D01*
G03X15012401Y-11229231I4040J47442D01*
G03X14990755Y-11173730I-45431J14253D01*
G03X15008944Y-11099978I-18785J43752D01*
G03X14971970Y-11022364I-36974J30000D01*
G03X14934995Y-11099978I0J-47614D01*
G03X14948185Y-11171226I36974J-30000D01*
G03X14921010Y-11202535I18785J-43752D01*
G03X14889158Y-11211330I-4040J-47442D01*
G03X14878944Y-11174978I-47188J6353D01*
G03X14841817Y-11097364I-36974J30000D01*
G03X14884699Y-11047271I-4655J47386D01*
G03X14926715Y-10997278I-5522J47293D01*
G03X14961359Y-10975642I-5462J47300D01*
G03X14966490Y-10935120I-40106J25663D01*
G01X15356578Y-10935120D01*
G03X15397163Y-11007633I40585J-24899D01*
G03X15437748Y-10935120I0J47614D01*
G01X16882945Y-10935120D01*
G03X16899533Y-10983172I46352J-10888D01*
G03X16889845Y-11030183I35433J-31806D01*
G01X16854128Y-10994466D01*
G03X16829298Y-10984181I-24829J-24829D01*
G01X16818166Y-10984181D01*
G03X16760968Y-10978797I-32157J-35114D01*
G03X16692852Y-10974892I-35959J-31209D01*
G01X15900008Y-10974892D01*
G03X15875179Y-10985177I0J-35114D01*
G01X15845179Y-11015177D01*
G03X15834894Y-11040006I24829J-24829D01*
G01X15834894Y-11545462D01*
G01X15735464Y-11644892D01*
G01X15230008Y-11644892D01*
G03X15205179Y-11655177I0J-35114D01*
G01X15165179Y-11695177D01*
G03X15154894Y-11720006I24829J-24829D01*
G01X15154894Y-11995462D01*
G01X15119153Y-12031203D01*
G01X15105786Y-12031203D01*
G03X15040118Y-12032492I-32157J-35114D01*
G03X15038217Y-12098146I33511J-33824D01*
G03X15071504Y-12177542I35412J-31830D01*
G03X15111738Y-12101431I2125J47567D01*
G01X15133698Y-12101431D01*
G03X15158527Y-12091146I0J35114D01*
G01X15214838Y-12034836D01*
G03X15225122Y-12010006I-24829J24829D01*
G01X15225122Y-11734551D01*
G01X15244553Y-11715120D01*
G01X15362306Y-11715120D01*
G03X15356998Y-11782879I30594J-36484D01*
G03X15353125Y-11840326I35902J-31275D01*
G03X15407414Y-11859502I39776J26171D01*
G03X15476076Y-11887023I45487J14073D01*
G03X15488803Y-11814154I-23175J41594D01*
G03X15500515Y-11782972I-35902J31275D01*
G03X15488924Y-11751744I-47614J93D01*
G03X15500197Y-11715120I-36024J31135D01*
G01X15560194Y-11715120D01*
G03X15560810Y-11780587I34883J-32408D01*
G03X15626212Y-11783552I34267J33058D01*
G03X15688622Y-11783431I31135J36024D01*
G03X15754237Y-11780511I31275J35902D01*
G03X15754508Y-11714831I-34341J32982D01*
G03X15774838Y-11704836I-4500J34825D01*
G01X15892394Y-11587279D01*
G01X15892394Y-11764426D01*
G01X15766899Y-11889921D01*
G03X15688622Y-11861626I-47003J-7607D01*
G03X15626212Y-11861504I-31275J-35902D01*
G03X15564267Y-11861226I-31135J-36024D01*
G03X15554470Y-11922392I30810J-36302D01*
G01X15550008Y-11922392D01*
G03X15523411Y-11933409I0J-37614D01*
G01X15423492Y-12033328D01*
G03X15348818Y-12023860I-41006J-24200D01*
G03X15358287Y-12098534I33668J-33668D01*
G01X15343411Y-12113409D01*
G03X15332394Y-12140007I26597J-26597D01*
G01X15332394Y-12204426D01*
G01X15314428Y-12222392D01*
G01X15238985Y-12222392D01*
G03X15212388Y-12233409I0J-37614D01*
G01X15054892Y-12390905D01*
G03X15023232Y-12467339I5954J-47240D01*
G01X15023232Y-12472611D01*
G03X15060846Y-12549419I37614J-29194D01*
G03X15098461Y-12472611I0J47614D01*
G01X15098461Y-12467339D01*
G03X15108087Y-12444100I-37614J29194D01*
G01X15254566Y-12297621D01*
G01X15288908Y-12297621D01*
G03X15247085Y-12333785I4445J-47406D01*
G03X15267652Y-12385108I46268J-11241D01*
G03X15261026Y-12459259I26260J-39718D01*
G03X15241419Y-12504610I27558J-38829D01*
G03X15272599Y-12542938I47165J6523D01*
G01X15242766Y-12572771D01*
G03X15233524Y-12585255I37204J-37204D01*
G01X15196008Y-12622771D01*
G03X15270415Y-12697179I37204J-37204D01*
G01X15317173Y-12650421D01*
G03X15326415Y-12637937I-37204J37204D01*
G01X15353286Y-12611066D01*
G01X15479305Y-12611066D01*
G01X15507394Y-12639155D01*
G01X15507394Y-12720351D01*
G03X15412635Y-12720227I-47386J-4657D01*
G03X15359921Y-12751923I-7626J-46999D01*
G03X15293055Y-12772110I-24079J-41077D01*
G03X15202485Y-12792455I-42956J-20539D01*
G03X15292886Y-12813539I47614J-194D01*
G03X15302326Y-12826819I42956J20539D01*
G03X15267356Y-12872453I12643J-45905D01*
G03X15230374Y-12952722I-2387J-47554D01*
G03X15312583Y-12920278I34595J32715D01*
G03X15358532Y-12891944I2387J47554D01*
G03X15348485Y-12838904I-43563J19220D01*
G03X15380930Y-12808303I-12643J45905D01*
G03X15452382Y-12772006I24079J41077D01*
G03X15507394Y-12729664I7626J46999D01*
G01X15507394Y-12838141D01*
G01X15477765Y-12867770D01*
G03X15462355Y-12904974I37204J-37204D01*
G01X15462355Y-13024974D01*
G03X15500099Y-13075443I52614J0D01*
G01X15174325Y-13075443D01*
G01X15164572Y-13065690D01*
G01X15164572Y-12880007D01*
G03X15154449Y-12855567I-34564J0D01*
G01X15124449Y-12825566D01*
G03X15100008Y-12815443I-24441J-24440D01*
G01X15002756Y-12815443D01*
G03X14922394Y-12850007I-32748J-34564D01*
G03X15002756Y-12884571I47614J0D01*
G01X15024966Y-12884571D01*
G03X15040489Y-12937367I45043J-15436D01*
G03X15095444Y-12940258I29519J37360D01*
G01X15095444Y-12959756D01*
G03X15022394Y-13000007I-25436J-40251D01*
G03X15095444Y-13040258I47614J0D01*
G01X15095444Y-13059756D01*
G03X15040490Y-13062647I-25436J-40251D01*
G03X15024966Y-13115443I29519J-37360D01*
G01X15002756Y-13115443D01*
G03X14932387Y-13179192I-32748J-34564D01*
G01X14725944Y-12972748D01*
G01X14725944Y-12487589D01*
G01X14742212Y-12487589D01*
G03X14763241Y-12540568I45966J-12418D01*
G03X14820008Y-12535418I24937J40561D01*
G03X14885506Y-12533675I31830J35412D01*
G03X14887249Y-12468177I-33668J33668D01*
G03X14885506Y-12402680I-35412J31830D01*
G03X14820008Y-12400936I-33668J-33668D01*
G03X14747048Y-12412361I-31830J-35412D01*
G01X14444165Y-12412361D01*
G03X14379971Y-12417693I-29194J-37614D01*
G03X14297357Y-12449975I-35000J-32282D01*
G03X14379971Y-12482257I47614J0D01*
G03X14444165Y-12487589I35000J32282D01*
G01X14650715Y-12487589D01*
G01X14650715Y-12988329D01*
G03X14661732Y-13014926I37614J0D01*
G01X14896689Y-13249882D01*
G03X14854885Y-13366287I-1718J-65091D01*
G03X14957710Y-13297551I40085J51313D01*
G01X14960008Y-13297621D01*
G01X15054428Y-13297621D01*
G01X15097394Y-13340587D01*
G01X15097394Y-13445007D01*
G03X15108411Y-13471604I37614J0D01*
G01X15153411Y-13516604D01*
G03X15180008Y-13527621I26597J26597D01*
G01X15380008Y-13527621D01*
G03X15406606Y-13516604I0J37614D01*
G01X15445623Y-13477587D01*
G01X15480065Y-13477587D01*
G03X15516820Y-13557551I34904J-32386D01*
G03X15547251Y-13474973I-1851J47578D01*
G03X15549969Y-13472255I-32282J35000D01*
G03X15632583Y-13439973I35000J32282D01*
G03X15549969Y-13407691I-47614J0D01*
G03X15485775Y-13402359I-35000J-32282D01*
G01X15430042Y-13402359D01*
G03X15425283Y-13402661I0J-37614D01*
G03X15424572Y-13338017I-35314J31938D01*
G01X15424572Y-13300007D01*
G03X15414449Y-13275567I-34564J0D01*
G01X15323453Y-13184571D01*
G01X15481428Y-13184571D01*
G03X15483927Y-13257473I31840J-35403D01*
G03X15513268Y-13342587I29340J-37500D01*
G03X15542608Y-13257473I0J47614D01*
G03X15545107Y-13184571I-29340J37500D01*
G01X16620009Y-13184571D01*
G03X16644449Y-13174447I0J34564D01*
G01X16924450Y-12894448D01*
G03X16929690Y-12887720I-24440J24440D01*
G03X16935180Y-12894836I30319J17713D01*
G01X17045147Y-13004803D01*
G03X17054105Y-13011297I24829J24829D01*
G03X17135957Y-12992300I35861J31323D01*
G03X17074577Y-12934916I-45991J12326D01*
G01X16995123Y-12855462D01*
G01X16995123Y-11967364D01*
G03X17004468Y-11984124I34174J8069D01*
G01X17175180Y-12154836D01*
G03X17200009Y-12165121I24829J24829D01*
G01X17822848Y-12165121D01*
G03X17880846Y-12169999I32157J35114D01*
G03X17900233Y-12115121I-25840J39992D01*
G01X17935465Y-12115121D01*
G01X17979850Y-12159506D01*
G01X17979850Y-12212818D01*
G03X17989136Y-12284976I35114J-32157D01*
G03X18014964Y-12372590I25828J-40000D01*
G03X18040792Y-12284976I0J47614D01*
G03X18050727Y-12213541I-25828J40000D01*
G03X18108675Y-12197794I19283J43535D01*
G03X18105124Y-12137849I-38665J27787D01*
G01X18105124Y-12120007D01*
G03X18094839Y-12095177I-35114J0D01*
G01X18004839Y-12005177D01*
G03X17980010Y-11994892I-24829J-24829D01*
G01X17244554Y-11994892D01*
G01X17215123Y-11965462D01*
G01X17215123Y-11432164D01*
G03X17180009Y-11352392I-35114J32157D01*
G03X17144895Y-11432164I0J-47614D01*
G01X17144895Y-11965234D01*
G01X17115123Y-11935462D01*
G01X17115123Y-11360463D01*
G03X17176739Y-11310960I14174J45455D01*
G03X17107628Y-11272610I-47442J-4047D01*
G03X17104839Y-11269464I-27619J-21684D01*
G01X17077911Y-11242536D01*
G03X17126485Y-11208148I2810J47531D01*
G03X17181997Y-11207814I27523J38853D01*
G03X17199463Y-11155120I-27989J38519D01*
G01X17265465Y-11155120D01*
G01X17278473Y-11168128D01*
G03X17246344Y-11182047I1537J-47589D01*
G03X17232421Y-11214174I33666J-33671D01*
G03X17190797Y-11279389I2589J-47544D01*
G03X17265905Y-11297947I44213J17672D01*
G03X17318122Y-11326924I44105J17941D01*
G03X17357578Y-11282097I-8112J46918D01*
G01X17364839Y-11274835D01*
G03X17375123Y-11250006I-24829J24829D01*
G01X17375123Y-11180006D01*
G03X17364839Y-11155177I-35114J0D01*
G01X17304839Y-11095177D01*
G03X17280009Y-11084892I-24829J-24829D01*
G01X17135237Y-11084892D01*
G03X17075292Y-11024724I-45227J14886D01*
G03X17064908Y-10977615I-45282J14718D01*
G03X17028768Y-10898397I-35610J31607D01*
G03X16994399Y-10978399I529J-47611D01*
G03X16982403Y-11010874I35610J-31607D01*
G03X16964731Y-10977814I-47437J-4104D01*
G03X16952149Y-10904236I-35433J31806D01*
G01X16982811Y-10873574D01*
G03X17028252Y-10823196I-2091J47568D01*
G01X17033152Y-10828097D01*
G03X17082585Y-10873583I47568J2091D01*
G03X17128306Y-10824367I-1865J47578D01*
G03X17178015Y-10867565I47414J4361D01*
G03X17184975Y-10922250I41994J-22441D01*
G03X17238896Y-10933714I35035J32244D01*
G01X17238896Y-10938561D01*
G03X17274010Y-11018332I35114J-32157D01*
G03X17309124Y-10938561I0J47614D01*
G01X17309124Y-10730550D01*
G01X17344554Y-10695120D01*
G01X18125465Y-10695120D01*
G01X18284905Y-10854559D01*
G03X18357401Y-10893036I47568J2091D01*
G03X18355830Y-10810977I-24928J40567D01*
G03X18377939Y-10777964I-24899J40585D01*
G03X18411518Y-10698760I-2008J47572D01*
G03X18328923Y-10722821I-35587J-31633D01*
G03X18285573Y-10755910I2008J-47572D01*
G01X18165456Y-10635793D01*
G01X21119958Y-10635793D01*
G02X21214144Y-10729979I0J-94186D01*
G01X21214144Y-11334163D01*
G01X20094960Y-11334163D01*
G03X20059146Y-11369977I0J-35814D01*
G01X20059146Y-12730148D01*
G03X20094960Y-12765962I35814J0D01*
G01X21214144Y-12765962D01*
G01X21214144Y-13469973D01*
G02X21119958Y-13564159I-94186J0D01*
G01X14379971Y-13564159D01*
G02X14285786Y-13469973I0J94186D01*
G01X14285786Y-10729979D01*
G02X14379971Y-10635793I94186J0D01*
G01X14894970Y-12669860D02*
G03X14894970Y-12800089I0J-65114D01*
G03X14894970Y-12669860I0J65114D01*
G01X14922394Y-13050007D02*
G03X15017622Y-13050007I47614J0D01*
G03X14922394Y-13050007I-47614J0D01*
G01X14922394Y-12950007D02*
G03X15017622Y-12950007I47614J0D01*
G03X14922394Y-12950007I-47614J0D01*
G01X14976340Y-11807334D02*
G03X15041838Y-11809077I33668J33668D01*
G03X15107335Y-11807334I31830J35412D01*
G03X15109079Y-11741836I-33668J33668D01*
G03X15107335Y-11676338I-35412J31830D01*
G03X15041838Y-11674595I-33668J-33668D01*
G03X14976340Y-11676338I-31830J-35412D01*
G03X14974596Y-11741836I33668J-33668D01*
G03X14976340Y-11807334I35412J-31830D01*
G01X15054705Y-11193872D02*
G03X15081157Y-11232749I47458J3854D01*
G03X15082770Y-11262235I46006J-12270D01*
G03X15091667Y-11348148I24393J-40891D01*
G03X15151555Y-11285910I15496J45022D01*
G03X15154099Y-11284281I-24393J40891D01*
G03X15219353Y-11285102I33063J34262D01*
G03X15224137Y-11220019I-32191J35084D01*
G03X15222029Y-11157593I-36974J30000D01*
G03X15159920Y-11150968I-34867J-32426D01*
G03X15154137Y-11100019I-42758J20949D01*
G03X15117163Y-11022405I-36974J30000D01*
G03X15080188Y-11100019I0J-47614D01*
G03X15074538Y-11151238I36974J-30000D01*
G03X15054705Y-11193872I27625J-38781D01*
G01X15172394Y-10740006D02*
G03X15267622Y-10740006I47614J0D01*
G03X15172394Y-10740006I-47614J0D01*
G01X15179549Y-10990019D02*
G03X15274777Y-10990019I47614J0D01*
G03X15179549Y-10990019I-47614J0D01*
G01X15462394Y-10800006D02*
G03X15557622Y-10800006I47614J0D01*
G03X15462394Y-10800006I-47614J0D01*
G01X15647749Y-10804978D02*
G03X15742977Y-10804978I47614J0D01*
G03X15647749Y-10804978I-47614J0D01*
G01X16842395Y-13050007D02*
G03X16937623Y-13050007I47614J0D01*
G03X16842395Y-13050007I-47614J0D01*
G01X17033264Y-13342587D02*
G03X17062605Y-13257473I0J47614D01*
G03X17033264Y-13172359I-29340J37500D01*
G03X17003924Y-13257473I0J-47614D01*
G03X17033264Y-13342587I29340J-37500D01*
G01X17039966Y-13557587D02*
G03X17072248Y-13474973I0J47614D01*
G03X17074966Y-13472255I-32282J35000D01*
G03X17157580Y-13439973I35000J32282D01*
G03X17074966Y-13407691I-47614J0D01*
G03X17006298Y-13406305I-35000J-32282D01*
G03X17007684Y-13474973I33668J-33668D01*
G03X17039966Y-13557587I32282J-35000D01*
G01X17081683Y-10946008D02*
G03X17176912Y-10946008I47614J0D01*
G03X17081683Y-10946008I-47614J0D01*
G01X18477676Y-13053157D02*
G03X18582904Y-13053157I52614J0D01*
G01X18582904Y-12897042D01*
G01X19038091Y-12441854D01*
G03X19121800Y-12480223I46911J-8152D01*
G03X19067881Y-12405577I-36797J30217D01*
G03X19068738Y-12403155I-49153J18767D01*
G03X19038876Y-12338208I-43513J19332D01*
G03X18981524Y-12349607I-20149J-48603D01*
G01X18532732Y-12798399D01*
G01X18241460Y-12507126D01*
G03X18204256Y-12491716I-37204J-37204D01*
G01X17507972Y-12491716D01*
G03X17507277Y-12407922I-22966J41709D01*
G03X17437602Y-12454475I-22271J-42084D01*
G01X17426629Y-12443503D01*
G01X17426629Y-12370278D01*
G03X17321401Y-12370278I-52614J0D01*
G01X17321401Y-12465296D01*
G03X17336811Y-12502500I52614J0D01*
G01X17415845Y-12581534D01*
G03X17453049Y-12596944I37204J37204D01*
G01X17473350Y-12596944D01*
G03X17515006Y-12667621I41656J-23063D01*
G03X17556661Y-12596944I0J47614D01*
G01X18182462Y-12596944D01*
G01X18477676Y-12892158D01*
G01X18477676Y-13053157D01*
G01X17362351Y-10839978D02*
G03X17457579Y-10839978I47614J0D01*
G03X17362351Y-10839978I-47614J0D01*
G01X17699965Y-12968225D02*
G03X17649418Y-12962247I-30000J-36974D01*
G03X17622351Y-13005352I20547J-42953D01*
G03X17572258Y-12962470I-47386J-4655D01*
G03X17522265Y-12920454I-47293J-5522D01*
G03X17438534Y-12895259I-47300J-5462D01*
G03X17477665Y-12973454I36431J-30657D01*
G03X17527672Y-13015529I47300J5462D01*
G03X17577807Y-13057536I47293J5522D01*
G03X17622579Y-13009854I-2842J47529D01*
G03X17699965Y-13042174I47386J4655D01*
G03X17777351Y-13009854I30000J36974D01*
G03X17821117Y-13057465I47614J-153D01*
G03X17871981Y-13017525I3847J47458D01*
G03X17922305Y-12975469I3024J47518D01*
G03X17961437Y-12897275I2700J47537D01*
G03X17877706Y-12922470I-36431J-30657D01*
G03X17827989Y-12962489I-2700J-47537D01*
G03X17805943Y-12966357I-3024J-47518D01*
G03X17787407Y-12884240I-30979J36158D01*
G03X17754217Y-12834769I-47442J4040D01*
G03X17698717Y-12856415I-14253J-45431D01*
G03X17624965Y-12838225I-43752J-18785D01*
G03X17547351Y-12875200I-30000J-36974D01*
G03X17624965Y-12912174I47614J0D01*
G03X17696213Y-12898984I30000J36974D01*
G03X17727522Y-12926159I43752J18785D01*
G03X17736317Y-12958011I47442J-4040D01*
G03X17699965Y-12968225I-6353J-47188D01*
G01X17546341Y-10796338D02*
G03X17577919Y-10877574I33668J-33668D01*
G01X17960152Y-11259807D01*
G03X17984981Y-11270092I24829J24829D01*
G01X18184792Y-11270092D01*
G03X18182719Y-11279469I45218J-14914D01*
G03X18139168Y-11356025I-6039J-47230D01*
G03X18223971Y-11332236I37511J29326D01*
G03X18275976Y-11297423I6039J47230D01*
G03X18322624Y-11228795I4005J47445D01*
G03X18340547Y-11203917I-27614J38789D01*
G03X18386699Y-11130902I6133J47218D01*
G03X18301142Y-11142789I-40020J-25797D01*
G01X18300914Y-11142759D01*
G01X18187624Y-11029426D01*
G01X18187624Y-10988950D01*
G01X18232636Y-10943937D01*
G03X18260351Y-10863028I-5954J47240D01*
G03X18179442Y-10890743I-33668J-33668D01*
G01X18123413Y-10946772D01*
G03X18112396Y-10973369I26597J-26597D01*
G01X18112396Y-11045006D01*
G03X18123413Y-11071603I37614J0D01*
G01X18247770Y-11195960D01*
G03X18248427Y-11199863I47240J5954D01*
G01X17999526Y-11199863D01*
G01X17627578Y-10827915D01*
G03X17546341Y-10796338I-47568J-2091D01*
G01X17682580Y-12625140D02*
G03X17675955Y-12687249I32426J-34867D01*
G03X17625006Y-12693032I-20949J-42758D01*
G03X17547392Y-12730007I-30000J-36974D01*
G03X17625006Y-12766981I47614J0D01*
G03X17676225Y-12772631I30000J36974D01*
G03X17718859Y-12792465I38781J27625D01*
G03X17757736Y-12766013I-3854J47458D01*
G03X17787222Y-12764399I12270J46006D01*
G03X17873135Y-12755503I40891J24393D01*
G03X17810897Y-12695614I-45022J15496D01*
G03X17809268Y-12693070I-40891J-24393D01*
G03X17810089Y-12627816I-34262J33063D01*
G03X17745006Y-12623033I-35084J-32191D01*
G03X17682580Y-12625140I-30000J-36974D01*
G01X17645010Y-11587620D02*
G03X17681985Y-11510006I0J47614D01*
G03X17645010Y-11432392I-36974J30000D01*
G03X17608036Y-11510006I0J-47614D01*
G03X17645010Y-11587620I36974J-30000D01*
G01X17847941Y-11377498D02*
G03X17926993Y-11420209I47023J-7479D01*
G03X17891987Y-11337456I-32029J35232D01*
G03X17878418Y-11296096I-47023J7479D01*
G03X17856025Y-11209284I-26739J39397D01*
G03X17818226Y-11290580I-4345J-47415D01*
G03X17799910Y-11345380I26739J-39397D01*
G03X17847941Y-11377498I45054J15403D01*
G01X17998704Y-10908944D02*
G03X17919499Y-10875366I-47572J-2008D01*
G03X17943560Y-10957961I31633J-35587D01*
G03X18022765Y-10991540I47572J2008D01*
G03X17998704Y-10908944I-31633J35587D01*
G01X18192396Y-12310007D02*
G03X18270010Y-12346981I47614J0D01*
G03X18347624Y-12310007I30000J36974D01*
G03X18270010Y-12273032I-47614J0D01*
G03X18192396Y-12310007I-30000J-36974D01*
G01X18244065Y-11598267D02*
G03X18339293Y-11598267I47614J0D01*
G03X18244065Y-11598267I-47614J0D01*
G01X18406800Y-11099143D02*
G03X18487213Y-11059104I33163J34166D01*
G03X18524842Y-10977534I4465J47404D01*
G03X18444428Y-11017574I-33163J-34166D01*
G03X18406800Y-11099143I-4465J-47404D01*
G01X18499065Y-11848266D02*
G03X18594293Y-11848266I47614J0D01*
G03X18499065Y-11848266I-47614J0D01*
G01X18634963Y-13342587D02*
G03X18664303Y-13257473I0J47614D01*
G03X18634963Y-13172359I-29340J37500D01*
G03X18605622Y-13257473I0J-47614D01*
G03X18634963Y-13342587I29340J-37500D01*
G01X18639963Y-13557587D02*
G03X18672244Y-13474973I0J47614D01*
G03X18674963Y-13472255I-32282J35000D01*
G03X18757577Y-13439973I35000J32282D01*
G03X18674963Y-13407691I-47614J0D01*
G03X18606294Y-13406305I-35000J-32282D01*
G03X18607681Y-13474973I33668J-33668D01*
G03X18639963Y-13557587I32282J-35000D01*
G01X18642349Y-12983587D02*
G03X18737577Y-12983587I47614J0D01*
G03X18642349Y-12983587I-47614J0D01*
G01X18655633Y-11793266D02*
G03X18750861Y-11793266I47614J0D01*
G03X18655633Y-11793266I-47614J0D01*
G01X18817726Y-10812083D02*
G03X18870010Y-10806980I22285J42077D01*
G03X18940010Y-10795834I30000J36974D01*
G03X19010010Y-10806980I40000J25828D01*
G03X19087624Y-10770006I30000J36974D01*
G03X19010010Y-10733032I-47614J0D01*
G03X18940010Y-10744178I-30000J-36974D01*
G03X18870010Y-10733032I-40000J-25828D01*
G03X18852452Y-10724046I-30000J-36974D01*
G03X18827295Y-10677929I-47442J4040D01*
G03X18775010Y-10683031I-22285J-42077D01*
G03X18697396Y-10720006I-30000J-36974D01*
G03X18775010Y-10756980I47614J0D01*
G03X18792568Y-10765966I30000J36974D01*
G03X18817726Y-10812083I47442J-4040D01*
G01X18710633Y-11071699D02*
G03X18805861Y-11071699I47614J0D01*
G03X18710633Y-11071699I-47614J0D01*
G01X18730680Y-12088291D02*
G03X18825909Y-12088291I47614J0D01*
G03X18730680Y-12088291I-47614J0D01*
G01X18820632Y-11628267D02*
G03X18915861Y-11628267I47614J0D01*
G03X18820632Y-11628267I-47614J0D01*
G01X18847348Y-12239976D02*
G03X18924962Y-12276950I47614J0D01*
G03X19002576Y-12239976I30000J36974D01*
G03X18924962Y-12203001I-47614J0D01*
G03X18847348Y-12239976I-30000J-36974D01*
G01X18850632Y-11216699D02*
G03X18945861Y-11216699I47614J0D01*
G03X18850632Y-11216699I-47614J0D01*
G01X19427986Y-12962489D02*
G03X19405940Y-12966357I-3024J-47518D01*
G03X19421407Y-12919715I-30979J36158D01*
G03X19387404Y-12884240I-46445J-10484D01*
G03X19354214Y-12834769I-47442J4040D01*
G03X19298713Y-12856415I-14253J-45431D01*
G03X19224962Y-12838225I-43752J-18785D01*
G03X19147348Y-12875200I-30000J-36974D01*
G03X19224962Y-12912174I47614J0D01*
G03X19296209Y-12898984I30000J36974D01*
G03X19327519Y-12926159I43752J18785D01*
G03X19336314Y-12958011I47442J-4040D01*
G03X19299961Y-12968225I-6353J-47188D01*
G03X19249415Y-12962247I-30000J-36974D01*
G03X19222348Y-13005352I20547J-42953D01*
G03X19172255Y-12962470I-47386J-4655D01*
G03X19122262Y-12920454I-47293J-5522D01*
G03X19038531Y-12895259I-47300J-5462D01*
G03X19077662Y-12973454I36431J-30657D01*
G03X19127669Y-13015529I47300J5462D01*
G03X19177803Y-13057536I47293J5522D01*
G01X19177803Y-13057536D01*
G03X19222575Y-13009854I-2842J47529D01*
G03X19299961Y-13042174I47386J4655D01*
G03X19348311Y-13049136I30000J36974D01*
G03X19377347Y-13009854I-18349J43936D01*
G03X19421114Y-13057465I47614J-153D01*
G03X19471978Y-13017525I3847J47458D01*
G03X19522302Y-12975469I3024J47518D01*
G03X19561434Y-12897275I2700J47537D01*
G03X19477703Y-12922470I-36431J-30657D01*
G03X19427986Y-12962489I-2700J-47537D01*
G01X19067388Y-12620007D02*
G03X19162616Y-12620007I47614J0D01*
G03X19067388Y-12620007I-47614J0D01*
G01X19117396Y-11175006D02*
G03X19212624Y-11175006I47614J0D01*
G03X19117396Y-11175006I-47614J0D01*
G01X19410086Y-12627816D02*
G03X19345002Y-12623033I-35084J-32191D01*
G03X19282577Y-12625140I-30000J-36974D01*
G03X19275952Y-12687249I32426J-34867D01*
G03X19225002Y-12693032I-20949J-42758D01*
G03X19147388Y-12730007I-30000J-36974D01*
G03X19225002Y-12766981I47614J0D01*
G03X19276221Y-12772631I30000J36974D01*
G03X19357732Y-12766013I38781J27625D01*
G03X19387219Y-12764399I12270J46006D01*
G03X19473132Y-12755503I40891J24393D01*
G03X19410894Y-12695614I-45022J15496D01*
G03X19409265Y-12693070I-40891J-24393D01*
G03X19410086Y-12627816I-34262J33063D01*
G01X19690817Y-11317620D02*
G03X19767625Y-11280006I29194J37614D01*
G03X19690817Y-11242392I-47614J0D01*
G01X19370681Y-11242392D01*
G03X19360433Y-11239631I-17435J-44307D01*
G03X19284711Y-11195151I-47187J6363D01*
G03X19306059Y-11280336I28535J-38116D01*
G03X19333812Y-11330167I47187J-6363D01*
G03X19389453Y-11317620I19434J43468D01*
G01X19690817Y-11317620D01*
G01X19345011Y-11907620D02*
G03X19381985Y-11830006I0J47614D01*
G03X19345011Y-11752392I-36974J30000D01*
G03X19308036Y-11830006I0J-47614D01*
G03X19345011Y-11907620I36974J-30000D01*
G01X19454961Y-11632591D02*
G03X19491935Y-11554977I0J47614D01*
G03X19454961Y-11477363I-36974J30000D01*
G03X19417987Y-11554977I0J-47614D01*
G03X19454961Y-11632591I36974J-30000D01*
G01X19407388Y-12130006D02*
G03X19502617Y-12130006I47614J0D01*
G03X19407388Y-12130006I-47614J0D01*
G01X19615040Y-12372621D02*
G03X19640790Y-12284975I-30J47614D01*
G03X19614931Y-12197362I-25829J39999D01*
G03X19589181Y-12285007I30J-47614D01*
G03X19615040Y-12372621I25829J-39999D01*
G01X19642397Y-12105006D02*
G03X19737625Y-12105006I47614J0D01*
G03X19642397Y-12105006I-47614J0D01*
G01X19709893Y-11826953D02*
G03X19805121Y-11826953I47614J0D01*
G03X19709893Y-11826953I-47614J0D01*
G01X19892944Y-12280834D02*
G03X19881704Y-12348285I27067J-39173D01*
G03X19889435Y-12418679I35509J-31721D01*
G03X19958612Y-12403527I27777J38672D01*
G03X20026862Y-12419327I41399J23521D01*
G03X20036985Y-12350007I-26852J39320D01*
G03X20027966Y-12281463I-36974J30000D01*
G03X19960011Y-12294178I-27955J-38544D01*
G03X19892944Y-12280834I-40000J-25828D01*
G01X19912346Y-11979976D02*
G03X20007574Y-11979976I47614J0D01*
G03X19912346Y-11979976I-47614J0D01*
G01X19912346Y-12119976D02*
G03X20007574Y-12119976I47614J0D01*
G03X19912346Y-12119976I-47614J0D01*
G01X19959960Y-12611089D02*
G03X19992242Y-12528475I0J47614D01*
G03X19959960Y-12445861I-32282J35000D01*
G03X19927678Y-12528475I0J-47614D01*
G03X19959960Y-12611089I32282J-35000D01*
G01X21050873Y-12857781D02*
G03X21120953Y-12921118I39085J-27193D01*
G03X21069043Y-12842200I-30995J36144D01*
G03X20998963Y-12778863I-39085J27193D01*
G03X21050873Y-12857781I30995J-36144D01*
G01X21112344Y-12814974D02*
G03X21207572Y-12814974I47614J0D01*
G03X21112344Y-12814974I-47614J0D01*
G01X14531508Y-11769100D02*
G01X14633833Y-11769100D01*
G03X14698764Y-11770540I33238J34093D01*
G02X14757117Y-11841858I-14405J-71318D01*
G01X14757117Y-11934767D01*
G03X14787257Y-11964908I30140J0D01*
G01X14845200Y-11964908D01*
G02X14892984Y-12012691I0J-47783D01*
G01X14892984Y-12159547D01*
G02X14869177Y-12183353I-23807J0D01*
G01X14735308Y-12183353D01*
G02X14721492Y-12169537I0J13816D01*
G01X14721492Y-12047656D01*
G03X14671371Y-11997536I-50121J0D01*
G01X14669968Y-11997536D01*
G03X14639973Y-11997536I-14998J-45190D01*
G01X14537502Y-11997536D01*
G02X14524685Y-11984718I0J12817D01*
G01X14524685Y-11775923D01*
G02X14531508Y-11769100I6823J0D01*
G01X14869782Y-11243625D02*
G03X14873320Y-11268998I47188J-6353D01*
G03X14841817Y-11252591I-36158J-30979D01*
G03X14869782Y-11243625I153J47614D01*
G01X14940824Y-13187628D02*
G03X15002756Y-13184571I29185J37621D01*
G01X15024966Y-13184571D01*
G03X15027985Y-13222393I45043J-15436D01*
G01X14975588Y-13222393D01*
G01X14940824Y-13187628D01*
G01X15100101Y-13236906D02*
G03X15102756Y-13234571I-30093J36899D01*
G01X15275691Y-13234571D01*
G01X15326249Y-13285129D01*
G03X15292953Y-13323203I13720J-45594D01*
G03X15286986Y-13323203I-2984J-47521D01*
G03X15202789Y-13300979I-47016J-7521D01*
G03X15242953Y-13378244I37180J-29744D01*
G03X15289969Y-13418337I47016J7521D01*
G03X15336986Y-13378244I0J47614D01*
G03X15342953Y-13378244I2984J47521D01*
G03X15399434Y-13417387I47016J7521D01*
G01X15364428Y-13452393D01*
G01X15195588Y-13452393D01*
G01X15172622Y-13429427D01*
G01X15172622Y-13325007D01*
G03X15161605Y-13298410I-37614J0D01*
G01X15100101Y-13236906D01*
G01X15330008Y-12297621D02*
G03X15356605Y-12286604I0J37614D01*
G01X15396606Y-12246604D01*
G03X15406173Y-12230347I-26597J26597D01*
G03X15415972Y-12245027I43815J18638D01*
G03X15415972Y-12311661I34015J-33317D01*
G03X15404979Y-12329443I34016J-33317D01*
G03X15326671Y-12311011I-44992J-15584D01*
G03X15297798Y-12297621I-33317J-34016D01*
G01X15330008Y-12297621D01*
G01X15565589Y-11997621D02*
G01X15750009Y-11997621D01*
G03X15776606Y-11986604I0J37614D01*
G01X15956606Y-11806604D01*
G03X15967623Y-11780006I-26597J26597D01*
G01X15967623Y-11099200D01*
G03X15970602Y-11045121I-37614J29194D01*
G01X16692852Y-11045121D01*
G03X16739214Y-11055452I32157J35114D01*
G03X16732567Y-11084050I40795J-24554D01*
G03X16673729Y-11141170I-12558J-45928D01*
G03X16752166Y-11165092I46280J11192D01*
G01X16756042Y-11165092D01*
G01X16745569Y-11175566D01*
G03X16735445Y-11200006I24440J-24440D01*
G01X16735445Y-11240006D01*
G03X16745569Y-11264446I34564J0D01*
G01X16825445Y-11344323D01*
G01X16825445Y-12835690D01*
G01X16585692Y-13075443D01*
G01X15529839Y-13075443D01*
G03X15567583Y-13024974I-14870J50469D01*
G01X15567583Y-12926768D01*
G01X15573627Y-12920724D01*
G03X15652625Y-12911242I36381J30717D01*
G03X15612623Y-12842465I-42617J21235D01*
G01X15612623Y-12639155D01*
G01X15701456Y-12550321D01*
G03X15754022Y-12539790I18552J43851D01*
G03X15763468Y-12487018I-34013J33320D01*
G03X15772623Y-12457361I-43459J29657D01*
G01X15772623Y-12437590D01*
G01X15862039Y-12437590D01*
G03X15862039Y-12332361I0J52614D01*
G01X15735666Y-12332361D01*
G03X15667394Y-12382592I-15658J-50230D01*
G01X15667394Y-12435568D01*
G01X15605635Y-12497327D01*
G03X15601304Y-12491515I-40234J-25463D01*
G03X15601426Y-12429105I-35902J31275D01*
G03X15565402Y-12350356I-36024J31135D01*
G03X15529378Y-12429105I0J-47614D01*
G03X15529500Y-12491515I36024J-31135D01*
G03X15519752Y-12509255I35902J-31275D01*
G03X15501099Y-12505837I-18653J-49197D01*
G01X15461474Y-12505837D01*
G03X15442956Y-12462853I-47342J5086D01*
G03X15414043Y-12384376I-35822J31367D01*
G03X15363815Y-12451247I-6909J-47110D01*
G03X15330866Y-12454851I-11621J-46174D01*
G03X15319614Y-12384745I-36954J30025D01*
G03X15326671Y-12379042I-26260J39718D01*
G03X15404996Y-12360563I33317J34016D01*
G03X15475047Y-12385465I44992J15584D01*
G03X15484003Y-12311661I-25059J40486D01*
G03X15484003Y-12245027I-34016J33317D01*
G03X15484003Y-12178392I-34015J33317D01*
G03X15496103Y-12133223I-34016J33317D01*
G03X15463724Y-12099485I-46116J-11852D01*
G01X15565589Y-11997621D01*
G01X15512400Y-12149986D02*
G03X15607628Y-12149986I47614J0D01*
G03X15512400Y-12149986I-47614J0D01*
G01X15542638Y-12290007D02*
G03X15637866Y-12290007I47614J0D01*
G03X15542638Y-12290007I-47614J0D01*
G01X15672394Y-12260007D02*
G03X15767623Y-12260007I47614J0D01*
G03X15672394Y-12260007I-47614J0D01*
G01X16097582Y-13009854D02*
G03X16174968Y-13042174I47386J4655D01*
G03X16223317Y-13049136I30000J36974D01*
G03X16252354Y-13009854I-18349J43936D01*
G03X16296120Y-13057465I47614J-153D01*
G03X16346984Y-13017525I3847J47458D01*
G03X16397308Y-12975469I3024J47518D01*
G03X16436440Y-12897275I2700J47537D01*
G03X16352709Y-12922470I-36431J-30657D01*
G03X16302992Y-12962489I-2700J-47537D01*
G03X16280947Y-12966357I-3024J-47518D01*
G03X16296413Y-12919715I-30979J36158D01*
G03X16262410Y-12884240I-46445J-10484D01*
G03X16229221Y-12834769I-47442J4040D01*
G03X16173720Y-12856415I-14253J-45431D01*
G03X16099968Y-12838225I-43752J-18785D01*
G03X16022354Y-12875200I-30000J-36974D01*
G03X16099968Y-12912174I47614J0D01*
G03X16171216Y-12898984I30000J36974D01*
G03X16202525Y-12926159I43752J18785D01*
G03X16211320Y-12958011I47442J-4040D01*
G03X16174968Y-12968225I-6353J-47188D01*
G03X16124421Y-12962247I-30000J-36974D01*
G03X16097354Y-13005352I20547J-42953D01*
G03X16047261Y-12962470I-47386J-4655D01*
G03X15997268Y-12920454I-47293J-5522D01*
G03X15913537Y-12895259I-47300J-5462D01*
G03X15952668Y-12973454I36431J-30657D01*
G03X16002675Y-13015529I47300J5462D01*
G03X16097582Y-13009854I47293J5522D01*
G01X15912395Y-12450007D02*
G03X16007623Y-12450007I47614J0D01*
G03X15912395Y-12450007I-47614J0D01*
G01X15942395Y-12620007D02*
G03X16037623Y-12620007I47614J0D01*
G03X15942395Y-12620007I-47614J0D01*
G01X16285092Y-12627816D02*
G03X16220009Y-12623033I-35084J-32191D01*
G03X16157583Y-12625140I-30000J-36974D01*
G03X16150958Y-12687249I32426J-34867D01*
G03X16100009Y-12693032I-20949J-42758D01*
G03X16022395Y-12730007I-30000J-36974D01*
G03X16100009Y-12766981I47614J0D01*
G03X16151228Y-12772631I30000J36974D01*
G03X16232739Y-12766013I38781J27625D01*
G03X16262225Y-12764399I12270J46006D01*
G03X16348138Y-12755503I40891J24393D01*
G03X16285900Y-12695614I-45022J15496D01*
G03X16284271Y-12693070I-40891J-24393D01*
G03X16285092Y-12627816I-34262J33063D01*
G01X16282395Y-12130006D02*
G03X16377623Y-12130006I47614J0D01*
G03X16282395Y-12130006I-47614J0D01*
G01X16489967Y-12372590D02*
G03X16515795Y-12284976I0J47614D01*
G03X16489967Y-12197362I-25828J40000D01*
G03X16464139Y-12284976I0J-47614D01*
G03X16489967Y-12372590I25828J-40000D01*
G01X16535009Y-11662620D02*
G03X16571983Y-11585006I0J47614D01*
G03X16535009Y-11507392I-36974J30000D01*
G03X16498035Y-11585006I0J-47614D01*
G03X16535009Y-11662620I36974J-30000D01*
G01X16720009Y-12043032D02*
G03X16642395Y-12080007I-30000J-36974D01*
G03X16720009Y-12116981I47614J0D01*
G03X16797623Y-12080007I30000J36974D01*
G03X16720009Y-12043032I-47614J0D01*
G01X16243615Y-12977388D02*
G03X16268988Y-12973849I6353J47188D01*
G03X16252581Y-13005352I30979J-36158D01*
G03X16243615Y-12977388I-47614J153D01*
G01X16872606Y-11223922D02*
G03X16871988Y-11217450I-47597J-1284D01*
G03X16908359Y-11204944I4022J47444D01*
G03X16923622Y-11169640I-32350J34937D01*
G03X16937131Y-11175846I26387J39634D01*
G03X16978630Y-11242573I43589J-19160D01*
G01X17008320Y-11272263D01*
G03X16994184Y-11347165I20978J-42744D01*
G01X16994184Y-11886852D01*
G03X16965638Y-11872726I-34174J-33154D01*
G03X16934573Y-11879756I-5628J-47280D01*
G01X16934573Y-11397348D01*
G03X16987273Y-11350006I5086J47342D01*
G03X16934573Y-11302664I-47614J0D01*
G01X16934573Y-11300206D01*
G03X16924450Y-11275765I-34564J0D01*
G01X16872606Y-11223922D01*
G01X16984727Y-11024724D02*
G03X16981744Y-11023861I-14718J-45282D01*
G03X16982409Y-11019006I-46778J8883D01*
G03X16982572Y-11014110I-47443J4029D01*
G03X16984727Y-11024724I47437J4104D01*
G01X17768612Y-12977388D02*
G03X17793985Y-12973849I6353J47188D01*
G03X17777578Y-13005352I30979J-36158D01*
G03X17775305Y-12990661I-47614J153D01*
G03X17768612Y-12977388I-45340J-14538D01*
G01X19368609Y-12977388D02*
G03X19393982Y-12973849I6353J47188D01*
G03X19377575Y-13005352I30979J-36158D01*
G03X19368609Y-12977388I-47614J153D01*
G04 Copper End*

G04 Pad Start*
G54D11*
G01X14894970Y-12734975D03*
G01X14894970Y-13314973D03*
G54D12*
G01X14945570Y-12592475D03*
G54D13*
G01X14527571Y-12592475D03*
G54D12*
G01X14945570Y-13457473D03*
G54D13*
G01X14527571Y-13457473D03*
G54D14*
G01X20069960Y-12844974D03*
G01X20069960Y-11254977D03*
G01X20619909Y-12844974D03*
G01X20619909Y-11254977D03*
G54D15*
G01X17267965Y-12861199D03*
G54D17*
G01X17267965Y-13397198D03*
G54D15*
G01X18131964Y-12861199D03*
G54D17*
G01X18131964Y-13397198D03*
G54D15*
G01X18867962Y-12861199D03*
G54D17*
G01X18867962Y-13397198D03*
G54D15*
G01X19731961Y-12861199D03*
G54D17*
G01X19731961Y-13397198D03*
G54D15*
G01X15742969Y-12861199D03*
G54D17*
G01X15742969Y-13397198D03*
G54D15*
G01X16606967Y-12861199D03*
G54D17*
G01X16606967Y-13397198D03*
G54D18*
G01X14985970Y-10742979D03*
G54D19*
G01X14449971Y-10742979D03*
G54D18*
G01X14985970Y-11606977D03*
G54D19*
G01X14449971Y-11606977D03*
G04 Pad End*

G04 Via Start*
G54D20*
G01X15949968Y-12925916D03*
G01X15999968Y-12967992D03*
G01X16250009Y-12660007D03*
G01X16190009Y-12660007D03*
G01X16400009Y-12927932D03*
G01X16350009Y-12970007D03*
G01X16069968Y-12875200D03*
G01X16129968Y-12875200D03*
G01X16214968Y-12880200D03*
G01X16144968Y-13005199D03*
G01X16204968Y-13005199D03*
G01X16249968Y-12930199D03*
G01X16049968Y-13010007D03*
G01X16070009Y-12730007D03*
G01X16130009Y-12730007D03*
G01X16299967Y-13010007D03*
G01X16179968Y-12364976D03*
G01X16059968Y-12434975D03*
G01X16134639Y-12434975D03*
G01X16296581Y-12434975D03*
G01X16221910Y-12434975D03*
G01X16139968Y-12294975D03*
G01X16261639Y-12294975D03*
G01X16569967Y-12244976D03*
G01X16569967Y-12324976D03*
G01X16569967Y-12404975D03*
G01X16569967Y-12484975D03*
G01X16330009Y-12130006D03*
G01X15990009Y-12620007D03*
G01X15960009Y-12450007D03*
G01X16190009Y-12745007D03*
G01X16245009Y-12720007D03*
G01X16303116Y-12740007D03*
G01X17474965Y-12925916D03*
G01X17524965Y-12967992D03*
G01X17574965Y-13010007D03*
G01X17594965Y-12875200D03*
G01X17595006Y-12730007D03*
G01X17654965Y-12875200D03*
G01X17655006Y-12730007D03*
G01X17669965Y-13005199D03*
G01X17715006Y-12660007D03*
G01X17729965Y-13005199D03*
G01X17739965Y-12880200D03*
G01X17774964Y-12930199D03*
G01X17775006Y-12660007D03*
G01X17824964Y-13010007D03*
G01X17875006Y-12970007D03*
G01X17925006Y-12927932D03*
G01X17704965Y-12364976D03*
G01X17584965Y-12434975D03*
G01X17659635Y-12434975D03*
G01X17821578Y-12434975D03*
G01X17746907Y-12434975D03*
G01X17664965Y-12294975D03*
G01X17786636Y-12294975D03*
G01X18094964Y-12244976D03*
G01X18094964Y-12324976D03*
G01X18094964Y-12404975D03*
G01X18094964Y-12484975D03*
G01X17515006Y-12620007D03*
G01X17485006Y-12450007D03*
G01X17715006Y-12745007D03*
G01X17828113Y-12740007D03*
G01X17770006Y-12720007D03*
G01X19074962Y-12925916D03*
G01X19124962Y-12967992D03*
G01X19174962Y-13010007D03*
G01X19194962Y-12875200D03*
G01X19195003Y-12730007D03*
G01X19254961Y-12875200D03*
G01X19255002Y-12730007D03*
G01X19269961Y-13005199D03*
G01X19315003Y-12660007D03*
G01X19329961Y-13005199D03*
G01X19339961Y-12880200D03*
G01X19374961Y-12930199D03*
G01X19375002Y-12660007D03*
G01X19424961Y-13010007D03*
G01X19475002Y-12970007D03*
G01X19525002Y-12927932D03*
G01X19304961Y-12364976D03*
G01X19184962Y-12434975D03*
G01X19259632Y-12434975D03*
G01X19421575Y-12434975D03*
G01X19346904Y-12434975D03*
G01X19264961Y-12294975D03*
G01X19386633Y-12294975D03*
G01X19694961Y-12244976D03*
G01X19694961Y-12324976D03*
G01X19694961Y-12404975D03*
G01X19694961Y-12484975D03*
G01X19115002Y-12620007D03*
G01X19085002Y-12450007D03*
G01X19315003Y-12745007D03*
G01X19428110Y-12740007D03*
G01X19370002Y-12720007D03*
G01X19455002Y-12130006D03*
G01X17855006Y-12130006D03*
G01X14921253Y-10949978D03*
G01X14879178Y-10999978D03*
G01X14837162Y-11049978D03*
G01X14841970Y-11144978D03*
G01X14841970Y-11204978D03*
G01X14916970Y-11249977D03*
G01X14837162Y-11299977D03*
G01X14877162Y-11350019D03*
G01X14919238Y-11400019D03*
G01X14971970Y-11069978D03*
G01X15227163Y-10990019D03*
G01X15117163Y-11070019D03*
G01X14971970Y-11129978D03*
G01X15117163Y-11130019D03*
G01X15102163Y-11190019D03*
G01X15187162Y-11190019D03*
G01X14966970Y-11214978D03*
G01X15127163Y-11245019D03*
G01X15187162Y-11250019D03*
G01X15107163Y-11303126D03*
G01X15397163Y-10960019D03*
G01X15412194Y-11059978D03*
G01X15412194Y-11134649D03*
G01X15412194Y-11221920D03*
G01X15412194Y-11296591D03*
G01X15362194Y-11569977D03*
G01X15500008Y-11570006D03*
G01X18233248Y-11383267D03*
G01X18403247Y-11213268D03*
G01X18548247Y-11068268D03*
G01X18701678Y-11128268D03*
G01X18841678Y-11273268D03*
G01X18811678Y-11571698D03*
G01X18348248Y-11541699D03*
G01X18646678Y-11736698D03*
G01X18603247Y-11791698D03*
G01X18176679Y-11326699D03*
G01X18346679Y-11156699D03*
G01X18491679Y-11011700D03*
G01X18758247Y-11071699D03*
G01X18898246Y-11216699D03*
G01X18868246Y-11628267D03*
G01X18546679Y-11848266D03*
G01X18703247Y-11793266D03*
G01X18291679Y-11598267D03*
G01X18300010Y-12310007D03*
G01X18240010Y-12310007D03*
G01X19959960Y-12493475D03*
G01X19959960Y-12563475D03*
G01X19345011Y-11860006D03*
G01X19345011Y-11800006D03*
G01X19454961Y-11524977D03*
G01X19454961Y-11584977D03*
G01X19959960Y-11979976D03*
G01X19959960Y-12119976D03*
G01X16750009Y-12080007D03*
G01X16690009Y-12080007D03*
G01X18840010Y-10770006D03*
G01X18900010Y-10770006D03*
G01X18980010Y-10770006D03*
G01X19040010Y-10770006D03*
G01X17645010Y-11480007D03*
G01X17645010Y-11540006D03*
G01X16535009Y-11555006D03*
G01X16535009Y-11615006D03*
G01X19214750Y-10896204D03*
G01X19264961Y-10944978D03*
G01X19190010Y-10800006D03*
G01X19143294Y-10846722D03*
G01X19250011Y-10820006D03*
G01X19300010Y-10870006D03*
G01X19350011Y-10920006D03*
G01X19400010Y-10970006D03*
G01X19400010Y-11030006D03*
G01X19235963Y-11072980D03*
G01X19084723Y-11024984D03*
G01X15482194Y-11179978D03*
G01X15552194Y-11139978D03*
G01X15552194Y-11261649D03*
G01X15070008Y-13200007D03*
G01X14970008Y-13050007D03*
G01X14970008Y-13150007D03*
G01X15070008Y-13100007D03*
G01X15070008Y-13000007D03*
G01X14970008Y-12950007D03*
G01X15070008Y-12900007D03*
G01X14970008Y-12850007D03*
G01X15389969Y-13370723D03*
G01X15339969Y-13330723D03*
G01X15289969Y-13370723D03*
G01X15239970Y-13330723D03*
G01X16876010Y-11170006D03*
G01X16825010Y-11225206D03*
G01X14384971Y-11857226D03*
G01X14654971Y-12042726D03*
G01X15010008Y-11710006D03*
G01X15073667Y-11710006D03*
G01X15073667Y-11773665D03*
G01X15010008Y-11773665D03*
G01X14871800Y-11780964D03*
G01X14808141Y-11780964D03*
G01X14871800Y-11844623D03*
G01X14808141Y-11844623D03*
G01X14871800Y-11908282D03*
G01X14808141Y-11908282D03*
G01X14935459Y-11908282D03*
G01X14999118Y-11908282D03*
G01X15062777Y-11908282D03*
G01X15073629Y-12066317D03*
G01X15073629Y-12129976D03*
G01X14798178Y-12150006D03*
G01X14798178Y-12070007D03*
G01X14861837Y-12070007D03*
G01X14861837Y-12150007D03*
G01X15047326Y-12298177D03*
G01X14983667Y-12298177D03*
G01X14920008Y-12298177D03*
G01X14856349Y-12298177D03*
G01X14792690Y-12298177D03*
G01X14983667Y-12361836D03*
G01X14983667Y-12489154D03*
G01X14920008Y-12489154D03*
G01X15047326Y-12361836D03*
G01X14788178Y-12500007D03*
G01X14851837Y-12500007D03*
G01X14851837Y-12436348D03*
G01X14788178Y-12436348D03*
G01X15060846Y-12438146D03*
G01X15060846Y-12501805D03*
G01X14544971Y-11857226D03*
G01X14604971Y-11857226D03*
G01X14544971Y-11797226D03*
G01X14604971Y-11797226D03*
G01X14667071Y-11735006D03*
G01X14604971Y-12080007D03*
G01X14434971Y-11805006D03*
G01X14334971Y-11805006D03*
G01X14384971Y-12049976D03*
G01X14484971Y-12042726D03*
G01X14484971Y-12109976D03*
G01X14417721Y-12109976D03*
G01X15060008Y-13350007D03*
G01X14980757Y-13350007D03*
G01X14980344Y-12704975D03*
G01X15059595Y-12704975D03*
G01X15396110Y-13210007D03*
G01X15452901Y-11782879D03*
G01X15452901Y-11720609D03*
G01X15452901Y-11845429D03*
G01X15512901Y-11815429D03*
G01X15512901Y-11752879D03*
G01X15392901Y-11814154D03*
G01X15392901Y-11751604D03*
G01X15595077Y-11747528D03*
G01X15657347Y-11747528D03*
G01X15719897Y-11747528D03*
G01X15595077Y-11897528D03*
G01X15657347Y-11897528D03*
G01X15719897Y-11897528D03*
G01X15590252Y-12290007D03*
G01X15560014Y-12149986D03*
G01X15260311Y-11730972D03*
G01X15320201Y-11730538D03*
G01X15565402Y-12397970D03*
G01X15565402Y-12460240D03*
G01X15565402Y-12522790D03*
G01X15645299Y-12632189D03*
G01X15726888Y-12631321D03*
G01X15314969Y-12697225D03*
G01X15382487Y-12057528D03*
G01X15527487Y-12072528D03*
G01X15276438Y-12058785D03*
G01X15276438Y-12125420D03*
G01X15276438Y-12192055D03*
G01X15449988Y-12278344D03*
G01X15449988Y-12344979D03*
G01X15449988Y-12211709D03*
G01X15449988Y-12145075D03*
G01X15359988Y-12345027D03*
G01X15293353Y-12345027D03*
G01X16885721Y-10820006D03*
G01X16929298Y-10946008D03*
G01X16980721Y-10826006D03*
G01X17029298Y-10946008D03*
G01X17080720Y-10826006D03*
G01X17129297Y-10946008D03*
G01X17175720Y-10820006D03*
G01X17274010Y-10970718D03*
G01X17220009Y-10890006D03*
G01X17154008Y-11169295D03*
G01X17280010Y-11215718D03*
G01X17214009Y-11070007D03*
G01X17129297Y-11315007D03*
G01X17235010Y-11261718D03*
G01X17080720Y-11195005D03*
G01X17029298Y-11315007D03*
G01X16980721Y-11195005D03*
G01X16939659Y-11350006D03*
G01X16950009Y-11130006D03*
G01X16786008Y-11019295D03*
G01X16934966Y-11014978D03*
G01X17390009Y-11068579D03*
G01X16730009Y-10850006D03*
G01X16725009Y-11010006D03*
G01X21159958Y-12814974D03*
G01X21089958Y-12884974D03*
G01X21159958Y-12954974D03*
G01X21029958Y-12815007D03*
G01X18439963Y-11064978D03*
G01X16820009Y-10770006D03*
G01X15264969Y-12920007D03*
G01X18230010Y-11285006D03*
G01X17580010Y-10830006D03*
G01X18279981Y-11249977D03*
G01X17844964Y-11329977D03*
G01X18332473Y-10852469D03*
G01X19614961Y-12244976D03*
G01X16489967Y-12244976D03*
G01X16489967Y-12324976D03*
G01X18014964Y-12244976D03*
G01X19165010Y-11175006D03*
G01X17180009Y-11400006D03*
G01X18070010Y-12170007D03*
G01X18014964Y-12324976D03*
G01X18689963Y-12983587D03*
G01X17310009Y-11280006D03*
G01X16970009Y-11070006D03*
G01X16780009Y-11080006D03*
G01X17089966Y-12979974D03*
G01X16960009Y-11920006D03*
G01X16720009Y-11129978D03*
G01X16670009Y-10680006D03*
G01X19615011Y-12325007D03*
G01X15610008Y-12890007D03*
G01X18639963Y-13439973D03*
G01X18709963Y-13439973D03*
G01X18709963Y-13509973D03*
G01X18639963Y-13509973D03*
G01X17039966Y-13439973D03*
G01X17109966Y-13439973D03*
G01X17109966Y-13509973D03*
G01X17039966Y-13509973D03*
G01X15514969Y-13439973D03*
G01X15584969Y-13439973D03*
G01X15584969Y-13509973D03*
G01X15514969Y-13509973D03*
G01X14344971Y-12379975D03*
G01X14414971Y-12449975D03*
G01X14344971Y-12449975D03*
G01X18894962Y-12239976D03*
G01X18954962Y-12239976D03*
G01X15460008Y-12725007D03*
G01X15405009Y-12767226D03*
G01X15335842Y-12793000D03*
G01X15250099Y-12792650D03*
G01X18634963Y-13219974D03*
G01X18634963Y-13294973D03*
G01X17033264Y-13219974D03*
G01X17033264Y-13294973D03*
G01X15513267Y-13219974D03*
G01X15513267Y-13294973D03*
G01X18745010Y-10720006D03*
G01X18805010Y-10720006D03*
G01X18330931Y-10770393D03*
G01X18375931Y-10730393D03*
G01X17991132Y-10955953D03*
G01X17951132Y-10910953D03*
G01X19313246Y-11233268D03*
G01X17030009Y-11010006D03*
G01X16750009Y-10770006D03*
G01X15220008Y-10740006D03*
G01X19920011Y-12320007D03*
G01X20000011Y-12380007D03*
G01X19917213Y-12380007D03*
G01X20000011Y-12320007D03*
G01X19690011Y-12105006D03*
G01X15293912Y-12424826D03*
G01X15407134Y-12431486D03*
G01X15414132Y-12500751D03*
G01X15352193Y-12497422D03*
G01X15288584Y-12498088D03*
G01X15314969Y-12872724D03*
G01X17090009Y-11070006D03*
G01X17409965Y-10839978D03*
G01X17851680Y-11256699D03*
G01X17894964Y-11384977D03*
G01X18226682Y-10896697D03*
G01X18295010Y-11190006D03*
G01X19353246Y-11286699D03*
G01X18778294Y-12088291D03*
G01X19720011Y-11280006D03*
G01X15930009Y-11070006D03*
G01X15695363Y-10804978D03*
G01X19757507Y-11826953D03*
G01X19025226Y-12383823D03*
G01X18530290Y-13048495D03*
G01X17374015Y-12375162D03*
G01X15514969Y-13024974D03*
G01X15560009Y-12617361D03*
G01X15279969Y-12609975D03*
G01X15233212Y-12659975D03*
G01X15720008Y-12260007D03*
G01X15720008Y-12430007D03*
G01X15720008Y-12506470D03*
G01X15862039Y-12384975D03*
G01X16890009Y-13050007D03*
G01X15510008Y-10800006D03*
G01X14370008Y-10860006D03*
G01X14370008Y-10938364D03*
G01X14370008Y-11016721D03*
G01X14370008Y-11095079D03*
G01X14370008Y-11173437D03*
G01X14370008Y-11251795D03*
G01X14370008Y-11330152D03*
G01X14370008Y-11408510D03*
G01X14370008Y-11486868D03*
G01X14443823Y-11488409D03*
G01X14443823Y-11410051D03*
G01X14443823Y-11331693D03*
G01X14443823Y-11174978D03*
G01X14443823Y-11096620D03*
G01X14443823Y-11018262D03*
G01X14443823Y-10939904D03*
G01X14443823Y-10861547D03*
G01X14443823Y-11253335D03*
G01X14520248Y-11488409D03*
G01X14520248Y-11410051D03*
G01X14520248Y-11331693D03*
G01X14520248Y-11174978D03*
G01X14520248Y-11096620D03*
G01X14520248Y-11018262D03*
G01X14520248Y-10939904D03*
G01X14520248Y-10861547D03*
G01X14520248Y-11253335D03*
G01X16488399Y-13485864D03*
G01X16410041Y-13485864D03*
G01X16331683Y-13485864D03*
G01X16174968Y-13485864D03*
G01X16096610Y-13485864D03*
G01X16018252Y-13485864D03*
G01X15939894Y-13485864D03*
G01X15861537Y-13485864D03*
G01X16253325Y-13485864D03*
G01X16488399Y-13409439D03*
G01X16410041Y-13409439D03*
G01X16331683Y-13409439D03*
G01X16174968Y-13409439D03*
G01X16096610Y-13409439D03*
G01X16018252Y-13409439D03*
G01X15939894Y-13409439D03*
G01X15861537Y-13409439D03*
G01X16253325Y-13409439D03*
G01X16488399Y-13336011D03*
G01X16410041Y-13336011D03*
G01X16331683Y-13336011D03*
G01X16174968Y-13336011D03*
G01X16096610Y-13336011D03*
G01X16018252Y-13336011D03*
G01X15939894Y-13336011D03*
G01X15861537Y-13336011D03*
G01X16253325Y-13336011D03*
G01X18013396Y-13483241D03*
G01X17935038Y-13483241D03*
G01X17856680Y-13483241D03*
G01X17699965Y-13483241D03*
G01X17621607Y-13483241D03*
G01X17543249Y-13483241D03*
G01X17464891Y-13483241D03*
G01X17386534Y-13483241D03*
G01X17778322Y-13483241D03*
G01X18013396Y-13399323D03*
G01X17935038Y-13399323D03*
G01X17856680Y-13399323D03*
G01X17699965Y-13399323D03*
G01X17621607Y-13399323D03*
G01X17543249Y-13399323D03*
G01X17464891Y-13399323D03*
G01X17386534Y-13399323D03*
G01X17778322Y-13399323D03*
G01X18013396Y-13318403D03*
G01X17935038Y-13318403D03*
G01X17856680Y-13318403D03*
G01X17699965Y-13318403D03*
G01X17621607Y-13318403D03*
G01X17543249Y-13318403D03*
G01X17464891Y-13318403D03*
G01X17386534Y-13318403D03*
G01X17778322Y-13318403D03*
G01X19613392Y-13474749D03*
G01X19535035Y-13474749D03*
G01X19456677Y-13474749D03*
G01X19299961Y-13474749D03*
G01X19221604Y-13474749D03*
G01X19143246Y-13474749D03*
G01X19064888Y-13474749D03*
G01X18986530Y-13474749D03*
G01X19378319Y-13474749D03*
G01X19613392Y-13399823D03*
G01X19535035Y-13399823D03*
G01X19456677Y-13399823D03*
G01X19299961Y-13399823D03*
G01X19221604Y-13399823D03*
G01X19143246Y-13399823D03*
G01X19064888Y-13399823D03*
G01X18986530Y-13399823D03*
G01X19378319Y-13399823D03*
G01X19613392Y-13324896D03*
G01X19535035Y-13324896D03*
G01X19456677Y-13324896D03*
G01X19299961Y-13324896D03*
G01X19221604Y-13324896D03*
G01X19143246Y-13324896D03*
G01X19064888Y-13324896D03*
G01X18986530Y-13324896D03*
G01X19378319Y-13324896D03*
G01X16480009Y-11645006D03*
G01X16479079Y-11529006D03*
G01X16780009Y-12025006D03*
G01X16780009Y-12135007D03*
G01X16660009Y-12135007D03*
G01X16660009Y-12025006D03*
G01X18330010Y-12365007D03*
G01X18330010Y-12255006D03*
G01X18210010Y-12365007D03*
G01X18210010Y-12255006D03*
G01X18864962Y-12294976D03*
G01X19400011Y-11770006D03*
G01X19290011Y-11770006D03*
G01X19290011Y-11890006D03*
G01X19400011Y-11890006D03*
G01X19510011Y-11555006D03*
G01X19399961Y-11609977D03*
G01X19964960Y-12634975D03*
G01X19960011Y-11470006D03*
G01X19959960Y-11665683D03*
G01X17700010Y-11450006D03*
G01X18015010Y-10895006D03*
G01X18050010Y-10970006D03*
G01X18440010Y-10740006D03*
G01X18870010Y-10715006D03*
G01X19010010Y-10715006D03*
G01X18940010Y-10720006D03*
G01X18940010Y-10819440D03*
G01X19079843Y-10819440D03*
G01X19079843Y-10715246D03*
G01X18680680Y-10720006D03*
G01X16396489Y-13024512D03*
G01X17921486Y-13024512D03*
G01X19521483Y-13024512D03*
G01X19959960Y-11749976D03*
G01X16900009Y-13187157D03*
G01X15344969Y-12969974D03*
G01X15460008Y-12855007D03*
G01X15385009Y-12870007D03*
G01X15181971Y-13268044D03*
G01X15420008Y-13265007D03*
G01X18769962Y-12939974D03*
G01X18530010Y-13185007D03*
G01X18954867Y-12950199D03*
G01X15424615Y-12619975D03*
G01X15630013Y-12164986D03*
G01X19520010Y-11940006D03*
G01X16970009Y-11420006D03*
G01X17080009Y-10750006D03*
G04 Via End*

G04 Track Start*
G54D21*
G01X15070008Y-13200007D02*
G01X15290008Y-13200007D01*
G01X15390008Y-13300007D01*
G01X15390008Y-13370684D01*
G01X14970008Y-13150007D02*
G01X16620009Y-13150007D01*
G01X16900009Y-12870007D01*
G01X16770009Y-11200006D02*
G01X16800009Y-11170006D01*
G01X16876009Y-11170006D01*
G01X16770009Y-11240006D02*
G01X16770009Y-11200006D01*
G01X16860009Y-11330006D02*
G01X16770009Y-11240006D01*
G01X16860009Y-12850007D02*
G01X16860009Y-11330006D01*
G01X16600009Y-13110007D02*
G01X16860009Y-12850007D01*
G01X14970008Y-12850007D02*
G01X15100008Y-12850007D01*
G01X15130008Y-12880007D01*
G01X15130008Y-13080007D01*
G01X15160008Y-13110007D01*
G01X16600009Y-13110007D01*
G54D22*
G01X16980721Y-10826006D02*
G01X16906721Y-10900006D01*
G01X14720008Y-10900006D02*
G01X14650008Y-10970006D01*
G01X14650008Y-11640006D01*
G01X14580008Y-11710006D02*
G01X14480008Y-11710006D01*
G01X14434971Y-11755043D01*
G01X14434971Y-11805006D01*
G01X16906721Y-10900006D02*
G01X14720008Y-10900006D01*
G01X14650008Y-11640006D02*
G01X14580008Y-11710006D01*
G01X17024720Y-10770006D02*
G01X16820009Y-10770006D01*
G01X17080720Y-10826006D02*
G01X17024720Y-10770006D01*
G01X17274010Y-10970718D02*
G01X17274010Y-10716005D01*
G01X17330009Y-10660006D01*
G01X18140010Y-10660006D01*
G01X18332473Y-10852469D01*
G01X17214009Y-11070007D02*
G01X17388581Y-11070007D01*
G01X17390009Y-11068579D01*
G01X17029298Y-11315007D02*
G01X17029298Y-11959295D01*
G01X17200009Y-12130006D01*
G01X17855006Y-12130006D01*
G01X16980721Y-11195005D02*
G01X17080009Y-11294294D01*
G01X18014964Y-12144961D02*
G01X18014964Y-12244976D01*
G01X17080009Y-11294294D02*
G01X17080009Y-11950006D01*
G01X17210009Y-12080007D01*
G01X17950010Y-12080007D01*
G01X18014964Y-12144961D01*
G01X17180009Y-11400006D02*
G01X17180009Y-11980007D01*
G01X18070010Y-12120006D02*
G01X18070010Y-12170007D01*
G01X17180009Y-11980007D02*
G01X17230009Y-12030006D01*
G01X17980010Y-12030006D01*
G01X18070010Y-12120006D01*
G54D21*
G01X16900009Y-12870007D02*
G01X16900009Y-11300206D01*
G01X16825010Y-11225206D01*
G54D22*
G01X17310009Y-11280006D02*
G01X17340009Y-11250006D01*
G01X17340009Y-11180006D01*
G01X17280009Y-11120006D01*
G01X17020009Y-11120006D02*
G01X16970009Y-11070006D01*
G01X17280009Y-11120006D02*
G01X17020009Y-11120006D01*
G01X16960009Y-11920006D02*
G01X16960009Y-12870007D01*
G01X17069976Y-12979974D01*
G01X17089966Y-12979974D01*
G01X16786008Y-11019295D02*
G01X16829298Y-11019295D01*
G01X16870009Y-11060006D01*
G01X16870009Y-11094935D01*
G01X16834966Y-11129978D01*
G01X16720009Y-11129978D01*
G01X16725009Y-11010006D02*
G01X15900008Y-11010006D01*
G01X15870009Y-11040006D01*
G01X15870009Y-11560006D01*
G01X15230008Y-11680006D02*
G01X15190008Y-11720006D01*
G01X15190008Y-12010006D01*
G01X15133698Y-12066317D02*
G01X15073629Y-12066317D01*
G01X15870009Y-11560006D02*
G01X15750008Y-11680006D01*
G01X15230008Y-11680006D01*
G01X15190008Y-12010006D02*
G01X15133698Y-12066317D01*
G01X17580010Y-10830006D02*
G01X17984981Y-11234978D01*
G01X18264982Y-11234978D01*
G01X18279981Y-11249977D01*
G54D23*
G01X18295010Y-11190006D02*
G01X18150010Y-11045006D01*
G01X18150010Y-10973369D01*
G01X18226682Y-10896697D01*
G01X19720011Y-11280006D02*
G01X19359938Y-11280006D01*
G01X19353246Y-11286699D01*
G01X14774551Y-12449975D02*
G01X14788178Y-12436348D01*
G01X15060846Y-12501805D02*
G01X15060846Y-12438146D01*
G01X15238985Y-12260007D01*
G01X15330008Y-12260007D01*
G01X15370008Y-12220007D01*
G01X15370008Y-12140006D01*
G01X15930009Y-11780006D02*
G01X15930009Y-11070006D01*
G01X15370008Y-12140006D02*
G01X15550008Y-11960007D01*
G01X15750008Y-11960007D01*
G01X15930009Y-11780006D01*
G01X14688330Y-12449975D02*
G01X14688330Y-12988329D01*
G01X14960008Y-13260007D02*
G01X15070008Y-13260007D01*
G01X15135008Y-13325007D01*
G01X15135008Y-13445007D01*
G01X15180008Y-13490007D02*
G01X15380008Y-13490007D01*
G01X15430043Y-13439973D02*
G01X15514969Y-13439973D01*
G01X14414971Y-12449975D02*
G01X14688330Y-12449975D01*
G01X14774551Y-12449975D01*
G01X14688330Y-12988329D02*
G01X14960008Y-13260007D01*
G01X15135008Y-13445007D02*
G01X15180008Y-13490007D01*
G01X15380008Y-13490007D02*
G01X15430043Y-13439973D01*
G54D24*
G01X18530290Y-12875248D02*
G01X18530290Y-13053157D01*
G01X17453049Y-12544330D02*
G01X17374015Y-12465296D01*
G01X17374015Y-12370279D01*
G01X18532732Y-12872806D02*
G01X18204256Y-12544330D01*
G01X19018727Y-12386811D02*
G01X18532732Y-12872806D01*
G01X18204256Y-12544330D02*
G01X17453049Y-12544330D01*
G01X15233212Y-12659975D02*
G01X15279969Y-12613217D01*
G01X15279969Y-12609975D01*
G01X15560009Y-12617361D02*
G01X15720008Y-12457361D01*
G01X15720008Y-12430007D01*
G01X15720008Y-12382592D01*
G01X15722392Y-12384975D02*
G01X15862039Y-12384975D01*
G01X15720008Y-12382592D02*
G01X15722392Y-12384975D01*
G01X15279969Y-12609975D02*
G01X15331493Y-12558452D01*
G01X15501099Y-12558452D01*
G01X15560009Y-12617361D01*
G01X15560009Y-12861210D02*
G01X15560009Y-12617361D01*
G01X15514969Y-13024974D02*
G01X15514969Y-12904974D01*
G01X15551482Y-12868461D01*
G01X15556482Y-12868461D01*
G02X15560009Y-12861210I53526J-21547D01*
G04 Track End*

M02*

