G04 Layer: InnerLayer4*
G04 EasyEDA Pro v2.2.24.2, 2024-07-29 14:19:07*
G04 Gerber Generator version 0.3*
G04 Scale: 100 percent, Rotated: No, Reflected: No*
G04 Dimensions in millimeters*
G04 Leading zeros omitted, absolute positions, 3 integers and 5 decimals*
%FSLAX35Y35*%
%MOMM*%
%ADD10C,0.2032*%
%ADD11C,0.75*%
%ADD12O,2.0X1.2*%
%ADD13O,1.8X1.2*%
%ADD14O,2.49999X1.3*%
%ADD15O,1.0X2.1*%
%ADD16O,1.0X2.59999*%
%ADD17O,2.1X1.0*%
%ADD18O,2.6044X1.0*%
%ADD19O,2.59999X1.0*%
%ADD20C,0.4*%
%ADD21C,0.15*%
%ADD22C,0.139*%
%ADD23C,0.2*%
%ADD24C,0.5*%
%ADD25C,0.1389*%
G75*


G04 Copper Start*
G36*
G01X14379971Y-10635793D02*
G01X16652337Y-10635793D01*
G03X16622571Y-10684093I17672J-44213D01*
G03X16660161Y-10726590I47438J4088D01*
G01X16599386Y-10787364D01*
G01X15869968Y-10787364D01*
G03X15843371Y-10798381I0J-37614D01*
G01X15708371Y-10933381D01*
G03X15697354Y-10959978I26597J-26597D01*
G01X15697354Y-11399466D01*
G01X15634428Y-11462392D01*
G01X15283667Y-11462392D01*
G03X15257070Y-11473409I0J-37614D01*
G01X15067713Y-11662766D01*
G03X15041838Y-11674595I5954J-47240D01*
G03X14976340Y-11676338I-31830J-35412D01*
G03X14974596Y-11741836I33668J-33668D01*
G03X14976340Y-11807334I35412J-31830D01*
G03X15041838Y-11809077I33668J33668D01*
G03X15114894Y-11797486I31830J35412D01*
G01X15114894Y-11915462D01*
G01X15085463Y-11944892D01*
G01X14640008Y-11944892D01*
G03X14615178Y-11955177I0J-35114D01*
G01X14580141Y-11990214D01*
G03X14569857Y-12015044I24829J-24829D01*
G01X14569857Y-12047849D01*
G03X14583037Y-12122268I35114J-32157D01*
G03X14651478Y-12090212I21934J42261D01*
G03X14696459Y-12066090I3492J47486D01*
G03X14693766Y-12015121I-41488J23364D01*
G01X15100008Y-12015121D01*
G03X15124838Y-12004836I0J35114D01*
G01X15174838Y-11954836D01*
G03X15185122Y-11930006I-24829J24829D01*
G01X15185122Y-11714551D01*
G01X15224553Y-11675120D01*
G01X15438834Y-11675120D01*
G03X15407494Y-11706282I14066J-45489D01*
G03X15353148Y-11725398I-14593J-45323D01*
G03X15356998Y-11782879I39753J-26206D01*
G03X15353125Y-11840326I35902J-31275D01*
G03X15407414Y-11859502I39776J26171D01*
G03X15476076Y-11887023I45487J14073D01*
G03X15488803Y-11814154I-23175J41594D01*
G03X15500515Y-11782972I-35902J31275D01*
G03X15488924Y-11751744I-47614J93D01*
G03X15466967Y-11675120I-36024J31135D01*
G01X15730008Y-11675120D01*
G03X15754838Y-11664836I0J35114D01*
G01X15804838Y-11614836D01*
G03X15815123Y-11590006I-24829J24829D01*
G01X15815123Y-11004551D01*
G01X15844553Y-10975120D01*
G01X16692605Y-10975120D01*
G03X16683825Y-11033902I32404J-34886D01*
G03X16739214Y-11055452I41184J23895D01*
G03X16732567Y-11084050I40795J-24554D01*
G03X16672654Y-11125016I-12558J-45928D01*
G03X16722774Y-11177511I47355J-4962D01*
G01X15765179Y-12135106D01*
G03X15754894Y-12159936I24829J-24829D01*
G01X15754894Y-12227602D01*
G03X15672394Y-12260007I-34886J-32405D01*
G03X15754894Y-12292411I47614J0D01*
G01X15754894Y-12397602D01*
G03X15684541Y-12398240I-34886J-32405D01*
G03X15691628Y-12468238I35468J-31767D01*
G03X15684541Y-12538237I28380J-38232D01*
G03X15754894Y-12538875I35468J31767D01*
G01X15754894Y-12635462D01*
G01X15725464Y-12664893D01*
G01X15660008Y-12664893D01*
G03X15635179Y-12675177I0J-35114D01*
G01X15585179Y-12725177D01*
G03X15574894Y-12750007I24829J-24829D01*
G01X15574894Y-12857850D01*
G03X15610008Y-12937621I35114J-32157D01*
G03X15645123Y-12857850I0J47614D01*
G01X15645123Y-12764552D01*
G01X15674553Y-12735121D01*
G01X15740008Y-12735121D01*
G03X15764838Y-12724836I0J35114D01*
G01X15814838Y-12674836D01*
G03X15825123Y-12650007I-24829J24829D01*
G01X15825123Y-12422464D01*
G03X15914654Y-12384975I36917J37489D01*
G01X15914654Y-12209769D01*
G01X15961802Y-12162621D01*
G01X16168215Y-12162621D01*
G01X16337395Y-12331800D01*
G01X16337395Y-12480007D01*
G03X16352805Y-12517211I52614J0D01*
G01X16462805Y-12627211D01*
G03X16500009Y-12642621I37204J37204D01*
G01X16938216Y-12642621D01*
G01X16945602Y-12650007D01*
G01X16812805Y-12782803D01*
G03X16797395Y-12820007I37204J-37204D01*
G01X16797395Y-13010007D01*
G03X16812805Y-13047211I52614J0D01*
G01X16852805Y-13087211D01*
G03X16912395Y-13097621I37204J37204D01*
G01X16912395Y-13103154D01*
G01X15669247Y-13103154D01*
G03X15642650Y-13114171I0J-37614D01*
G01X15556594Y-13200227D01*
G03X15483802Y-13182572I-43326J-19746D01*
G03X15483927Y-13257473I29465J-37402D01*
G03X15475684Y-13324207I29340J-37500D01*
G03X15542394Y-13332639I37583J29234D01*
G01X15542394Y-13334427D01*
G01X15488372Y-13388449D01*
G03X15477641Y-13410414I26597J-26597D01*
G03X15482687Y-13474973I37328J-29559D01*
G03X15514969Y-13557587I32282J-35000D01*
G03X15547251Y-13474973I0J47614D01*
G03X15549969Y-13472255I-32282J35000D01*
G03X15627390Y-13461595I35000J32282D01*
G03X15590526Y-13392684I-42422J21622D01*
G01X15606606Y-13376604D01*
G03X15617623Y-13350007I-26597J26597D01*
G01X15617623Y-13245587D01*
G01X15684828Y-13178382D01*
G01X16912395Y-13178382D01*
G01X16912395Y-13380007D01*
G03X16923412Y-13406604I37614J0D01*
G01X16983378Y-13466570D01*
G03X17005331Y-13477300I26597J26597D01*
G03X17041620Y-13557558I34634J-32673D01*
G03X17072248Y-13474973I-1654J47585D01*
G03X17074966Y-13472255I-32282J35000D01*
G03X17157580Y-13439973I35000J32282D01*
G03X17074966Y-13407691I-47614J0D01*
G03X17019962Y-13396765I-35000J-32282D01*
G01X16987623Y-13364427D01*
G01X16987623Y-13308537D01*
G03X17060066Y-13334328I45641J13564D01*
G03X17062605Y-13257473I-26801J39355D01*
G03X17080735Y-13216275I-29340J37500D01*
G03X17056443Y-13178382I-47470J-3698D01*
G01X18325177Y-13178382D01*
G01X18592722Y-13445927D01*
G03X18607681Y-13474973I47240J5954D01*
G03X18639963Y-13557587I32282J-35000D01*
G03X18672244Y-13474973I0J47614D01*
G03X18674963Y-13472255I-32282J35000D01*
G03X18757577Y-13439973I35000J32282D01*
G03X18674963Y-13407691I-47614J0D01*
G03X18645917Y-13392733I-35000J-32282D01*
G01X18367355Y-13114171D01*
G03X18340758Y-13103154I-26597J-26597D01*
G01X16987623Y-13103154D01*
G01X16987623Y-12890587D01*
G01X17438523Y-12439687D01*
G03X17518674Y-12483675I46482J-10319D01*
G03X17474686Y-12403524I-33668J33668D01*
G01X18252658Y-11625552D01*
G03X18325347Y-11631935I39021J27285D01*
G03X18318964Y-11559246I-33668J33668D01*
G01X18480590Y-11397620D01*
G01X19242324Y-11397620D01*
G01X19242324Y-11571067D01*
G01X18772340Y-12041050D01*
G03X18744626Y-12121959I5954J-47240D01*
G03X18825535Y-12094245I33668J33668D01*
G01X19306536Y-11613244D01*
G03X19317553Y-11586647I-26597J26597D01*
G01X19317553Y-11375586D01*
G01X19359200Y-11333939D01*
G03X19400856Y-11287322I-5954J47240D01*
G03X19360433Y-11239631I-47610J622D01*
G03X19347810Y-11200520I-47187J6363D01*
G01X19347810Y-11073241D01*
G03X19337686Y-11048801I-34564J0D01*
G01X19154451Y-10865565D01*
G03X19130010Y-10855442I-24440J-24440D01*
G01X18410010Y-10855442D01*
G03X18385569Y-10865565I0J-34564D01*
G01X18371747Y-10879388D01*
G03X18355830Y-10810977I-39274J26919D01*
G03X18377939Y-10777964I-24899J40585D01*
G03X18421337Y-10744724I-2008J47572D01*
G03X18404884Y-10692593I-45406J14331D01*
G01X18706079Y-10692593D01*
G03X18712508Y-10754801I38931J-27413D01*
G03X18775010Y-10756980I32502J34795D01*
G03X18792568Y-10765966I30000J36974D01*
G03X18817726Y-10812083I47442J-4040D01*
G03X18870010Y-10806980I22285J42077D01*
G03X18940010Y-10795834I30000J36974D01*
G03X19010010Y-10806980I40000J25828D01*
G03X19087624Y-10770006I30000J36974D01*
G03X19010010Y-10733032I-47614J0D01*
G03X18940010Y-10744178I-30000J-36974D01*
G03X18870010Y-10733032I-40000J-25828D01*
G03X18852452Y-10724046I-30000J-36974D01*
G03X18843941Y-10692593I-47442J4040D01*
G01X19572939Y-10692593D01*
G01X19594896Y-10714551D01*
G01X19594896Y-12095462D01*
G01X19535181Y-12155177D01*
G03X19524896Y-12180007I24829J-24829D01*
G01X19524896Y-12270007D01*
G03X19535181Y-12294836I35114J0D01*
G01X19567442Y-12327097D01*
G03X19638723Y-12366296I47568J2091D01*
G03X19640790Y-12284975I-23712J41290D01*
G03X19656711Y-12222084I-25829J39999D01*
G03X19595125Y-12201690I-41750J-22892D01*
G01X19595125Y-12194551D01*
G01X19653778Y-12135898D01*
G03X19737036Y-12112471I36233J30892D01*
G03X19665125Y-12064413I-47025J7464D01*
G01X19665125Y-10700006D01*
G03X19654840Y-10675176I-35114J0D01*
G01X19615456Y-10635793D01*
G01X21119958Y-10635793D01*
G02X21214144Y-10729979I0J-94186D01*
G01X21214144Y-11334163D01*
G01X20094960Y-11334163D01*
G03X20059146Y-11369977I0J-35814D01*
G01X20059146Y-12730148D01*
G03X20094960Y-12765962I35814J0D01*
G01X21214144Y-12765962D01*
G01X21214144Y-13469973D01*
G02X21119958Y-13564159I-94186J0D01*
G01X14379971Y-13564159D01*
G02X14285786Y-13469973I0J94186D01*
G01X14285786Y-10729979D01*
G02X14379971Y-10635793I94186J0D01*
G37*
%LPC*%
G36*
G01X14297357Y-12449975D02*
G03X14379971Y-12482257I47614J0D01*
G03X14462585Y-12449975I35000J32282D01*
G03X14379971Y-12417693I-47614J0D01*
G03X14297357Y-12449975I-35000J-32282D01*
G37*
G36*
G01X14352042Y-11891618D02*
G03X14432355Y-11852549I32929J34391D01*
G03X14467900Y-11770615I2616J47542D01*
G03X14387587Y-11809684I-32929J-34391D01*
G03X14352042Y-11891618I-2616J-47542D01*
G37*
G36*
G01X14370121Y-12111152D02*
G03X14451346Y-12143687I47600J1176D01*
G03X14518639Y-12143644I33625J33711D01*
G03X14518682Y-12076351I-33668J33668D01*
G03X14486147Y-11995126I-33711J33625D01*
G03X14449641Y-12074646I-1176J-47600D01*
G03X14370121Y-12111152I-31920J-35330D01*
G37*
G36*
G01X14638639Y-11763558D02*
G03X14574971Y-11760252I-33668J-33668D01*
G03X14511303Y-11763558I-30000J-36974D01*
G03X14507997Y-11827226I33668J-33668D01*
G03X14511303Y-11890894I36974J-30000D01*
G03X14574971Y-11894201I33668J33668D01*
G03X14638639Y-11890894I30000J36974D01*
G03X14641945Y-11827226I-33668J33668D01*
G03X14638639Y-11763558I-36974J30000D01*
G37*
G36*
G01X14754510Y-12533675D02*
G03X14820008Y-12535418I33668J33668D01*
G03X14885506Y-12533675I31830J35412D01*
G03X14887249Y-12468177I-33668J33668D01*
G03X14885506Y-12402680I-35412J31830D01*
G03X14820008Y-12400936I-33668J-33668D01*
G03X14754510Y-12402680I-31830J-35412D01*
G03X14752767Y-12468177I33668J-33668D01*
G03X14754510Y-12533675I35412J-31830D01*
G37*
G36*
G01X14760353Y-12178926D02*
G03X14830008Y-12185418I37825J28920D01*
G03X14899662Y-12178927I31830J35411D01*
G03X14887666Y-12110007I-37825J28920D01*
G03X14899662Y-12041087I-25828J40000D01*
G03X14830008Y-12034595I-37825J-28920D01*
G03X14760353Y-12041086I-31830J-35412D01*
G03X14772350Y-12110007I37825J-28920D01*
G03X14760353Y-12178926I25828J-40000D01*
G37*
G36*
G01X14949895Y-11436450D02*
G03X14924700Y-11352719I-30657J36431D01*
G03X14884680Y-11303002I-47537J2700D01*
G03X14880812Y-11280957I-47518J3024D01*
G03X14927454Y-11296423I36158J30979D01*
G03X14962930Y-11262420I-10484J46445D01*
G03X15012401Y-11229231I4040J47442D01*
G03X14990755Y-11173730I-45431J14253D01*
G03X15014549Y-11151287I-18785J43752D01*
G01X15054566Y-11191303D01*
G03X15081157Y-11232749I47597J1284D01*
G03X15082770Y-11262235I46006J-12270D01*
G03X15091667Y-11348148I24393J-40891D01*
G03X15151555Y-11285910I15496J45022D01*
G03X15154099Y-11284281I-24393J40891D01*
G03X15219353Y-11285102I33063J34262D01*
G03X15224137Y-11220019I-32191J35084D01*
G03X15222029Y-11157593I-36974J30000D01*
G03X15159920Y-11150968I-34867J-32426D01*
G03X15154137Y-11100019I-42758J20949D01*
G03X15117163Y-11022405I-36974J30000D01*
G03X15080188Y-11100019I0J-47614D01*
G03X15073071Y-11112046I36974J-30000D01*
G01X15064572Y-11103547D01*
G01X15064572Y-10944323D01*
G01X15221292Y-10787603D01*
G03X15253676Y-10706338I-1284J47597D01*
G03X15172411Y-10738722I-33668J-33668D01*
G01X15005568Y-10905565D01*
G03X14995444Y-10930006I24440J-24440D01*
G01X14995444Y-11028553D01*
G03X14935625Y-11039218I-23474J-41425D01*
G03X14934995Y-11099978I36345J-30759D01*
G03X14924543Y-11134195I36974J-30000D01*
G03X14878850Y-11114862I-82573J-131493D01*
G03X14841817Y-11097364I-36880J-30116D01*
G03X14884699Y-11047271I-4655J47386D01*
G03X14926715Y-10997278I-5522J47293D01*
G03X14951910Y-10913547I-5462J47300D01*
G03X14873716Y-10952678I-30657J-36431D01*
G03X14831641Y-11002685I5462J-47300D01*
G03X14789633Y-11052820I5522J-47293D01*
G03X14837315Y-11097592I47529J2842D01*
G03X14798034Y-11126628I4655J-47386D01*
G03X14804996Y-11174978I43936J-18349D01*
G03X14837315Y-11252364I36974J-30000D01*
G03X14789704Y-11296130I-153J-47614D01*
G03X14829644Y-11346994I47458J-3847D01*
G03X14871700Y-11397318I47518J-3024D01*
G03X14949895Y-11436450I47537J-2700D01*
G37*
G36*
G01X14894970Y-13249859D02*
G03X14894970Y-13380087I0J-65114D01*
G03X14894970Y-13249859I0J65114D01*
G37*
G36*
G01X14894970Y-12669860D02*
G03X14894970Y-12800089I0J-65114D01*
G03X14894970Y-12669860I0J65114D01*
G37*
G36*
G01X14922394Y-13150007D02*
G03X15017622Y-13150007I47614J0D01*
G03X14922394Y-13150007I-47614J0D01*
G37*
G36*
G01X14922394Y-13050007D02*
G03X15017622Y-13050007I47614J0D01*
G03X14922394Y-13050007I-47614J0D01*
G37*
G36*
G01X14922394Y-12950007D02*
G03X15017622Y-12950007I47614J0D01*
G03X14922394Y-12950007I-47614J0D01*
G37*
G36*
G01X14922394Y-12850007D02*
G03X15017622Y-12850007I47614J0D01*
G03X14922394Y-12850007I-47614J0D01*
G37*
G36*
G01X15060846Y-12549419D02*
G03X15096258Y-12469975I0J47614D01*
G03X15060846Y-12390531I-35412J31830D01*
G03X15025435Y-12469975I0J-47614D01*
G03X15060846Y-12549419I35412J-31830D01*
G37*
G36*
G01X15022394Y-13100007D02*
G03X15117622Y-13100007I47614J0D01*
G03X15022394Y-13100007I-47614J0D01*
G37*
G36*
G01X15022394Y-13200007D02*
G03X15117622Y-13200007I47614J0D01*
G03X15022394Y-13200007I-47614J0D01*
G37*
G36*
G01X15022394Y-13000007D02*
G03X15117622Y-13000007I47614J0D01*
G03X15022394Y-13000007I-47614J0D01*
G37*
G36*
G01X15022394Y-12900007D02*
G03X15117622Y-12900007I47614J0D01*
G03X15022394Y-12900007I-47614J0D01*
G37*
G36*
G01X15073629Y-12177590D02*
G03X15109041Y-12098146I0J47614D01*
G03X15073629Y-12018703I-35412J31830D01*
G03X15038217Y-12098146I0J-47614D01*
G03X15073629Y-12177590I35412J-31830D01*
G37*
G36*
G01X15179549Y-10990019D02*
G03X15274777Y-10990019I47614J0D01*
G03X15179549Y-10990019I-47614J0D01*
G37*
G36*
G01X15200690Y-12694752D02*
G03X15280766Y-12657582I32522J34777D01*
G03X15312491Y-12575198I-796J47607D01*
G03X15232416Y-12612367I-32522J-34777D01*
G03X15200690Y-12694752I796J-47607D01*
G37*
G36*
G01X15202789Y-13300979D02*
G03X15242953Y-13378244I37180J-29744D01*
G03X15289969Y-13418337I47016J7521D01*
G03X15336986Y-13378244I0J47614D01*
G03X15342953Y-13378244I2984J47521D01*
G03X15427150Y-13400468I47016J7521D01*
G03X15386986Y-13323203I-37180J29744D01*
G03X15339969Y-13283109I-47016J-7521D01*
G03X15292953Y-13323203I0J-47614D01*
G03X15286986Y-13323203I-2984J-47521D01*
G03X15202789Y-13300979I-47016J-7521D01*
G37*
G36*
G01X15267356Y-12872453D02*
G03X15230374Y-12952722I-2387J-47554D01*
G03X15312583Y-12920278I34595J32715D01*
G03X15358532Y-12891944I2387J47554D01*
G03X15348485Y-12838904I-43563J19220D01*
G03X15380930Y-12808303I-12643J45905D01*
G03X15452382Y-12772006I24079J41077D01*
G03X15497778Y-12696014I7626J46999D01*
G03X15412635Y-12720227I-37769J-28993D01*
G03X15359921Y-12751923I-7626J-46999D01*
G03X15293055Y-12772110I-24079J-41077D01*
G03X15202485Y-12792455I-42956J-20539D01*
G03X15292886Y-12813539I47614J-194D01*
G03X15302326Y-12826819I42956J20539D01*
G03X15267356Y-12872453I12643J-45905D01*
G37*
G36*
G01X15415972Y-12311661D02*
G03X15404979Y-12329443I34016J-33317D01*
G03X15326671Y-12311011I-44992J-15584D01*
G03X15256109Y-12315362I-33317J-34016D01*
G03X15267652Y-12385108I37244J-29665D01*
G03X15261026Y-12459259I26260J-39718D01*
G03X15251549Y-12528012I27558J-38829D01*
G03X15320759Y-12533185I37035J29925D01*
G03X15381223Y-12535162I31434J35764D01*
G03X15450344Y-12531667I32909J34411D01*
G03X15442956Y-12462853I-36212J30916D01*
G03X15414043Y-12384376I-35822J31367D01*
G03X15363815Y-12451247I-6909J-47110D01*
G03X15330866Y-12454851I-11621J-46174D01*
G03X15319614Y-12384745I-36954J30025D01*
G03X15326671Y-12379042I-26260J39718D01*
G03X15404996Y-12360563I33317J34016D01*
G03X15475047Y-12385465I44992J15584D01*
G03X15484003Y-12311661I-25059J40486D01*
G03X15484003Y-12245027I-34016J33317D01*
G03X15484003Y-12178392I-34015J33317D01*
G03X15449988Y-12097460I-34016J33317D01*
G03X15415972Y-12178392I0J-47614D01*
G03X15415972Y-12245027I34016J-33317D01*
G03X15415972Y-12311661I34015J-33317D01*
G37*
G36*
G01X15334873Y-12057528D02*
G03X15430101Y-12057528I47614J0D01*
G03X15334873Y-12057528I-47614J0D01*
G37*
G36*
G01X15349549Y-10960019D02*
G03X15444777Y-10960019I47614J0D01*
G03X15349549Y-10960019I-47614J0D01*
G37*
G36*
G01X15462394Y-10800006D02*
G03X15557622Y-10800006I47614J0D01*
G03X15462394Y-10800006I-47614J0D01*
G37*
G36*
G01X15467355Y-13024974D02*
G03X15562583Y-13024974I47614J0D01*
G03X15467355Y-13024974I-47614J0D01*
G37*
G36*
G01X15529500Y-12491515D02*
G03X15557827Y-12569797I35902J-31275D01*
G03X15557297Y-12664898I2182J-47564D01*
G03X15567584Y-12570354I2711J47537D01*
G03X15601304Y-12491515I-2182J47564D01*
G03X15601426Y-12429105I-35902J31275D01*
G03X15565402Y-12350356I-36024J31135D01*
G03X15529378Y-12429105I0J-47614D01*
G03X15529500Y-12491515I36024J-31135D01*
G37*
G36*
G01X15512400Y-12149986D02*
G03X15607628Y-12149986I47614J0D01*
G03X15512400Y-12149986I-47614J0D01*
G37*
G36*
G01X15542638Y-12290007D02*
G03X15637866Y-12290007I47614J0D01*
G03X15542638Y-12290007I-47614J0D01*
G37*
G36*
G01X15626212Y-11861504D02*
G03X15547463Y-11897528I-31135J-36024D01*
G03X15626212Y-11933552I47614J0D01*
G03X15688622Y-11933431I31135J36024D01*
G03X15767511Y-11897528I31275J35902D01*
G03X15688622Y-11861626I-47614J0D01*
G03X15626212Y-11861504I-31275J-35902D01*
G37*
G36*
G01X15626212Y-11711505D02*
G03X15547463Y-11747528I-31135J-36024D01*
G03X15626212Y-11783552I47614J0D01*
G03X15688622Y-11783431I31135J36024D01*
G01X15688622Y-11783431D01*
G03X15767511Y-11747528I31275J35902D01*
G03X15688622Y-11711626I-47614J0D01*
G03X15626212Y-11711505I-31275J-35902D01*
G37*
G36*
G01X15647749Y-10804978D02*
G03X15742977Y-10804978I47614J0D01*
G03X15647749Y-10804978I-47614J0D01*
G37*
G36*
G01X15882395Y-11070006D02*
G03X15977623Y-11070006I47614J0D01*
G03X15882395Y-11070006I-47614J0D01*
G37*
G36*
G01X16097582Y-13009854D02*
G03X16126618Y-13049136I47386J4655D01*
G03X16174968Y-13042174I18349J43936D01*
G03X16223317Y-13049136I30000J36974D01*
G03X16252354Y-13009854I-18349J43936D01*
G03X16296120Y-13057465I47614J-153D01*
G03X16346984Y-13017525I3847J47458D01*
G03X16397308Y-12975469I3024J47518D01*
G03X16436440Y-12897275I2700J47537D01*
G03X16352709Y-12922470I-36431J-30657D01*
G03X16302992Y-12962489I-2700J-47537D01*
G03X16280947Y-12966357I-3024J-47518D01*
G03X16296413Y-12919715I-30979J36158D01*
G03X16262410Y-12884240I-46445J-10484D01*
G03X16229221Y-12834769I-47442J4040D01*
G03X16173720Y-12856415I-14253J-45431D01*
G03X16099968Y-12838225I-43752J-18785D01*
G03X16022354Y-12875200I-30000J-36974D01*
G03X16099968Y-12912174I47614J0D01*
G03X16134185Y-12922626I30000J36974D01*
G03X16114852Y-12968319I131493J-82573D01*
G03X16097354Y-13005352I30116J-36880D01*
G03X16047261Y-12962470I-47386J-4655D01*
G03X15997268Y-12920454I-47293J-5522D01*
G03X15913537Y-12895259I-47300J-5462D01*
G03X15952668Y-12973454I36431J-30657D01*
G03X16002675Y-13015529I47300J5462D01*
G03X16097582Y-13009854I47293J5522D01*
G37*
G36*
G01X15912395Y-12450007D02*
G03X16007623Y-12450007I47614J0D01*
G03X15912395Y-12450007I-47614J0D01*
G37*
G36*
G01X15942395Y-12620007D02*
G03X16037623Y-12620007I47614J0D01*
G03X15942395Y-12620007I-47614J0D01*
G37*
G36*
G01X16285092Y-12627816D02*
G03X16220009Y-12623033I-35084J-32191D01*
G03X16157583Y-12625140I-30000J-36974D01*
G03X16150958Y-12687249I32426J-34867D01*
G03X16100009Y-12693032I-20949J-42758D01*
G03X16022395Y-12730007I-30000J-36974D01*
G03X16100009Y-12766981I47614J0D01*
G03X16151228Y-12772631I30000J36974D01*
G03X16232739Y-12766013I38781J27625D01*
G03X16262225Y-12764399I12270J46006D01*
G03X16348138Y-12755503I40891J24393D01*
G03X16285900Y-12695614I-45022J15496D01*
G03X16284271Y-12693070I-40891J-24393D01*
G03X16285092Y-12627816I-34262J33063D01*
G37*
G36*
G01X17042352Y-12979974D02*
G03X17137580Y-12979974I47614J0D01*
G03X17042352Y-12979974I-47614J0D01*
G37*
G36*
G01X17821117Y-13057465D02*
G03X17871981Y-13017525I3847J47458D01*
G03X17922305Y-12975469I3024J47518D01*
G03X17961437Y-12897275I2700J47537D01*
G03X17877706Y-12922470I-36431J-30657D01*
G03X17827989Y-12962489I-2700J-47537D01*
G03X17805943Y-12966357I-3024J-47518D01*
G03X17787407Y-12884240I-30979J36158D01*
G03X17754217Y-12834769I-47442J4040D01*
G03X17698717Y-12856415I-14253J-45431D01*
G03X17624965Y-12838225I-43752J-18785D01*
G03X17547351Y-12875200I-30000J-36974D01*
G03X17624965Y-12912174I47614J0D01*
G03X17659182Y-12922626I30000J36974D01*
G03X17639849Y-12968319I131493J-82573D01*
G03X17622351Y-13005352I30116J-36880D01*
G03X17572258Y-12962470I-47386J-4655D01*
G03X17522265Y-12920454I-47293J-5522D01*
G03X17438534Y-12895259I-47300J-5462D01*
G03X17477665Y-12973454I36431J-30657D01*
G03X17527672Y-13015529I47300J5462D01*
G03X17577807Y-13057536I47293J5522D01*
G03X17622579Y-13009854I-2842J47529D01*
G03X17651615Y-13049136I47386J4655D01*
G03X17699965Y-13042174I18349J43936D01*
G03X17748314Y-13049136I30000J36974D01*
G03X17777351Y-13009854I-18349J43936D01*
G03X17821117Y-13057465I47614J-153D01*
G37*
G36*
G01X17467392Y-12620007D02*
G03X17562620Y-12620007I47614J0D01*
G03X17467392Y-12620007I-47614J0D01*
G37*
G36*
G01X17682580Y-12625140D02*
G03X17675955Y-12687249I32426J-34867D01*
G03X17625006Y-12693032I-20949J-42758D01*
G03X17547392Y-12730007I-30000J-36974D01*
G03X17625006Y-12766981I47614J0D01*
G03X17676225Y-12772631I30000J36974D01*
G03X17718859Y-12792465I38781J27625D01*
G03X17757736Y-12766013I-3854J47458D01*
G03X17787222Y-12764399I12270J46006D01*
G03X17873135Y-12755503I40891J24393D01*
G03X17810897Y-12695614I-45022J15496D01*
G03X17809268Y-12693070I-40891J-24393D01*
G03X17810089Y-12627816I-34262J33063D01*
G03X17745006Y-12623033I-35084J-32191D01*
G03X17682580Y-12625140I-30000J-36974D01*
G37*
G36*
G01X17807392Y-12130006D02*
G03X17902620Y-12130006I47614J0D01*
G03X17807392Y-12130006I-47614J0D01*
G37*
G36*
G01X18014964Y-12372590D02*
G03X18040792Y-12284976I0J47614D01*
G03X18050727Y-12213541I-25828J40000D01*
G03X18098190Y-12131627I19283J43535D01*
G03X18034247Y-12201441I-28180J-38380D01*
G03X17973069Y-12222351I-19283J-43535D01*
G03X17989136Y-12284976I41895J-22625D01*
G03X18014964Y-12372590I25828J-40000D01*
G37*
G36*
G01X18192396Y-12310007D02*
G03X18270010Y-12346981I47614J0D01*
G03X18347624Y-12310007I30000J36974D01*
G03X18270010Y-12273032I-47614J0D01*
G03X18192396Y-12310007I-30000J-36974D01*
G37*
G36*
G01X18482676Y-13048495D02*
G03X18577904Y-13048495I47614J0D01*
G03X18482676Y-13048495I-47614J0D01*
G37*
G36*
G01X18499065Y-11848266D02*
G03X18594293Y-11848266I47614J0D01*
G03X18499065Y-11848266I-47614J0D01*
G37*
G36*
G01X18634963Y-13342587D02*
G03X18664303Y-13257473I0J47614D01*
G03X18634963Y-13172359I-29340J37500D01*
G03X18605622Y-13257473I0J-47614D01*
G03X18634963Y-13342587I29340J-37500D01*
G37*
G36*
G01X18642349Y-12983587D02*
G03X18737577Y-12983587I47614J0D01*
G03X18642349Y-12983587I-47614J0D01*
G37*
G36*
G01X18655633Y-11793266D02*
G03X18750861Y-11793266I47614J0D01*
G03X18655633Y-11793266I-47614J0D01*
G37*
G36*
G01X18820632Y-11628267D02*
G03X18915861Y-11628267I47614J0D01*
G03X18820632Y-11628267I-47614J0D01*
G37*
G36*
G01X18847348Y-12239976D02*
G03X18924962Y-12276950I47614J0D01*
G03X19002576Y-12239976I30000J36974D01*
G03X18924962Y-12203001I-47614J0D01*
G03X18847348Y-12239976I-30000J-36974D01*
G37*
G36*
G01X19042725Y-12428105D02*
G03X19116917Y-12485342I42278J-21902D01*
G03X19067503Y-12405725I-31915J35335D01*
G03X18993311Y-12348488I-42278J21902D01*
G03X19042725Y-12428105I31915J-35335D01*
G37*
G36*
G01X19427986Y-12962489D02*
G03X19405940Y-12966357I-3024J-47518D01*
G03X19421407Y-12919715I-30979J36158D01*
G03X19387404Y-12884240I-46445J-10484D01*
G03X19354214Y-12834769I-47442J4040D01*
G03X19298713Y-12856415I-14253J-45431D01*
G03X19224962Y-12838225I-43752J-18785D01*
G03X19147348Y-12875200I-30000J-36974D01*
G03X19224962Y-12912174I47614J0D01*
G03X19259179Y-12922626I30000J36974D01*
G03X19239846Y-12968319I131493J-82573D01*
G03X19222348Y-13005352I30116J-36880D01*
G03X19172255Y-12962470I-47386J-4655D01*
G03X19122262Y-12920454I-47293J-5522D01*
G03X19038531Y-12895259I-47300J-5462D01*
G03X19077662Y-12973454I36431J-30657D01*
G03X19127669Y-13015529I47300J5462D01*
G01X19127669Y-13015529D01*
G03X19177803Y-13057536I47293J5522D01*
G03X19222575Y-13009854I-2842J47529D01*
G03X19251612Y-13049136I47386J4655D01*
G03X19299961Y-13042174I18349J43936D01*
G03X19348311Y-13049136I30000J36974D01*
G03X19377347Y-13009854I-18349J43936D01*
G03X19421114Y-13057465I47614J-153D01*
G03X19471978Y-13017525I3847J47458D01*
G03X19522302Y-12975469I3024J47518D01*
G03X19561434Y-12897275I2700J47537D01*
G03X19477703Y-12922470I-36431J-30657D01*
G03X19427986Y-12962489I-2700J-47537D01*
G37*
G36*
G01X19067388Y-12620007D02*
G03X19162616Y-12620007I47614J0D01*
G03X19067388Y-12620007I-47614J0D01*
G37*
G36*
G01X19410086Y-12627816D02*
G03X19345002Y-12623033I-35084J-32191D01*
G03X19282577Y-12625140I-30000J-36974D01*
G03X19275952Y-12687249I32426J-34867D01*
G03X19225002Y-12693032I-20949J-42758D01*
G03X19147388Y-12730007I-30000J-36974D01*
G03X19225002Y-12766981I47614J0D01*
G03X19276221Y-12772631I30000J36974D01*
G03X19357732Y-12766013I38781J27625D01*
G03X19387219Y-12764399I12270J46006D01*
G03X19473132Y-12755503I40891J24393D01*
G03X19410894Y-12695614I-45022J15496D01*
G03X19409265Y-12693070I-40891J-24393D01*
G03X19410086Y-12627816I-34262J33063D01*
G37*
G36*
G01X19345011Y-11907620D02*
G03X19381985Y-11830006I0J47614D01*
G03X19345011Y-11752392I-36974J30000D01*
G03X19308036Y-11830006I0J-47614D01*
G03X19345011Y-11907620I36974J-30000D01*
G37*
G36*
G01X19454961Y-11632591D02*
G03X19491935Y-11554977I0J47614D01*
G03X19454961Y-11477363I-36974J30000D01*
G03X19417987Y-11554977I0J-47614D01*
G03X19454961Y-11632591I36974J-30000D01*
G37*
G36*
G01X19407388Y-12130006D02*
G03X19502617Y-12130006I47614J0D01*
G03X19407388Y-12130006I-47614J0D01*
G37*
G36*
G01X19832397Y-12880007D02*
G03X19843414Y-12906604I37614J0D01*
G01X19953414Y-13016604D01*
G03X19980011Y-13027621I26597J26597D01*
G01X20854958Y-13027621D01*
G03X20881555Y-13016604I0J37614D01*
G01X21035912Y-12862247D01*
G03X21050873Y-12857781I-5954J47240D01*
G03X21120953Y-12921118I39085J-27193D01*
G03X21069043Y-12842200I-30995J36144D01*
G03X21047025Y-12770557I-39085J27193D01*
G03X20982717Y-12809053I-17068J-44450D01*
G01X20839377Y-12952393D01*
G01X19995591Y-12952393D01*
G01X19907625Y-12864427D01*
G01X19907625Y-12426645D01*
G03X19958612Y-12403527I9588J46639D01*
G03X20026862Y-12419327I41399J23521D01*
G03X20036985Y-12350007I-26852J39320D01*
G03X20027966Y-12281463I-36974J30000D01*
G03X19960011Y-12294178I-27955J-38544D01*
G03X19907625Y-12274032I-40000J-25828D01*
G01X19907625Y-11430006D01*
G03X19896608Y-11403409I-37614J0D01*
G01X19767251Y-11274052D01*
G03X19686342Y-11246338I-47240J-5954D01*
G03X19714057Y-11327246I33668J-33668D01*
G01X19832397Y-11445586D01*
G01X19832397Y-12880007D01*
G37*
G36*
G01X19709893Y-11826953D02*
G03X19805121Y-11826953I47614J0D01*
G03X19709893Y-11826953I-47614J0D01*
G37*
G36*
G01X19959960Y-12611089D02*
G03X19992242Y-12528475I0J47614D01*
G03X19959960Y-12445861I-32282J35000D01*
G03X19927678Y-12528475I0J-47614D01*
G03X19959960Y-12611089I32282J-35000D01*
G37*
G36*
G01X19912346Y-11979976D02*
G03X20007574Y-11979976I47614J0D01*
G03X19912346Y-11979976I-47614J0D01*
G37*
G36*
G01X19912346Y-12119976D02*
G03X20007574Y-12119976I47614J0D01*
G03X19912346Y-12119976I-47614J0D01*
G37*
G36*
G01X21112344Y-12814974D02*
G03X21207572Y-12814974I47614J0D01*
G03X21112344Y-12814974I-47614J0D01*
G37*
%LPD*%
G36*
G01X14869782Y-11243625D02*
G03X14873320Y-11268998I47188J-6353D01*
G03X14841817Y-11252591I-36158J-30979D01*
G03X14869782Y-11243625I153J47614D01*
G37*
G36*
G01X15744894Y-11575462D02*
G01X15715464Y-11604892D01*
G01X15231976Y-11604892D01*
G01X15299247Y-11537620D01*
G01X15650008Y-11537620D01*
G03X15676606Y-11526603I0J37614D01*
G01X15744894Y-11458315D01*
G01X15744894Y-11575462D01*
G37*
G36*
G01X15885549Y-10862592D02*
G01X16614967Y-10862592D01*
G03X16641564Y-10851576I0J37614D01*
G01X16705701Y-10787439D01*
G03X16741247Y-10816807I44308J17433D01*
G03X16785009Y-10802287I8763J46801D01*
G03X16838502Y-10813882I35000J32282D01*
G03X16840493Y-10834892I47219J-6124D01*
G01X16810009Y-10834892D01*
G03X16785180Y-10845176I0J-35114D01*
G01X16725464Y-10904892D01*
G01X15843249Y-10904892D01*
G01X15885549Y-10862592D01*
G37*
G36*
G01X16777496Y-11222106D02*
G03X16827353Y-11272763I47513J-3100D01*
G03X16871988Y-11217450I-2343J47556D01*
G03X16908359Y-11204944I4022J47444D01*
G03X16923622Y-11169640I-32350J34937D01*
G03X16937131Y-11175846I26387J39634D01*
G03X16955172Y-11235184I43589J-19160D01*
G01X16914830Y-11275527D01*
G03X16904545Y-11300356I24829J-24829D01*
G01X16904545Y-11317849D01*
G03X16939659Y-11397620I35114J-32157D01*
G03X16974773Y-11317849I0J47614D01*
G01X16974773Y-11314901D01*
G01X16982299Y-11307375D01*
G03X16998949Y-11351696I46998J-7633D01*
G03X17045606Y-11359741I30349J36689D01*
G01X17045606Y-11464750D01*
G01X16525180Y-11985177D01*
G03X16514895Y-12010006I24829J-24829D01*
G01X16514895Y-12095462D01*
G01X16415179Y-12195177D01*
G03X16404895Y-12220007I24829J-24829D01*
G01X16404895Y-12250485D01*
G01X16331989Y-12177579D01*
G03X16363677Y-12096338I-1980J47573D01*
G03X16282436Y-12128026I-33668J-33668D01*
G01X16227213Y-12072803D01*
G03X16190009Y-12057392I-37204J-37204D01*
G01X15942211Y-12057392D01*
G01X16777496Y-11222106D01*
G37*
%LPC*%
G36*
G01X16535009Y-11662620D02*
G03X16571983Y-11585006I0J47614D01*
G03X16535009Y-11507392I-36974J30000D01*
G03X16498035Y-11585006I0J-47614D01*
G03X16535009Y-11662620I36974J-30000D01*
G37*
%LPD*%
G36*
G01X16243615Y-12977388D02*
G03X16268988Y-12973849I6353J47188D01*
G03X16252581Y-13005352I30979J-36158D01*
G03X16243615Y-12977388I-47614J153D01*
G37*
G36*
G01X16625123Y-12144934D02*
G01X16625123Y-12044551D01*
G01X17154127Y-11515547D01*
G03X17164412Y-11490718I-24829J24829D01*
G01X17164412Y-11444993D01*
G03X17227623Y-11400006I15598J44987D01*
G03X17164412Y-11355019I-47614J0D01*
G01X17164412Y-11347165D01*
G03X17169690Y-11289796I-35114J32157D01*
G03X17115834Y-11269336I-40392J-25211D01*
G01X17115834Y-11227163D01*
G03X17126485Y-11208148I-35114J32157D01*
G03X17181997Y-11207814I27523J38853D01*
G03X17199463Y-11155120I-27989J38519D01*
G01X17904309Y-11155120D01*
G03X17891776Y-11163409I14064J-34886D01*
G01X17845726Y-11209459D01*
G03X17806586Y-11241412I5954J-47240D01*
G03X17818226Y-11290580I45093J-15287D01*
G03X17799910Y-11345380I26739J-39397D01*
G03X17847941Y-11377498I45054J15403D01*
G03X17906797Y-11431098I47023J-7479D01*
G03X17932578Y-11355783I-11833J46120D01*
G01X17932578Y-11299983D01*
G03X17921561Y-11273386I-37614J0D01*
G01X17904874Y-11256699D01*
G01X17933953Y-11227620D01*
G01X18237943Y-11227620D01*
G03X18234015Y-11237561I42039J-22357D01*
G03X18182719Y-11279469I-4005J-47445D01*
G03X18139168Y-11356025I-6039J-47230D01*
G03X18223971Y-11332236I37511J29326D01*
G03X18275976Y-11297423I6039J47230D01*
G03X18322738Y-11270929I4005J47445D01*
G01X18411816Y-11360006D01*
G01X17420776Y-12351045D01*
G03X17374015Y-12322548I-46761J-24117D01*
G01X17294853Y-12322548D01*
G03X17257650Y-12337959I0J-52614D01*
G01X17020009Y-12575599D01*
G01X16997213Y-12552803D01*
G03X16960009Y-12537393I-37204J-37204D01*
G01X16521802Y-12537393D01*
G01X16442623Y-12458213D01*
G01X16442623Y-12330039D01*
G03X16514935Y-12365518I47344J5064D01*
G03X16515795Y-12284976I-24968J40542D01*
G03X16537535Y-12247066I-25828J40000D01*
G01X16613690Y-12170912D01*
G03X16625123Y-12144934I-23681J25927D01*
G37*
%LPC*%
G36*
G01X16720009Y-12043032D02*
G03X16642395Y-12080007I-30000J-36974D01*
G03X16720009Y-12116981I47614J0D01*
G03X16797623Y-12080007I30000J36974D01*
G03X16720009Y-12043032I-47614J0D01*
G37*
G36*
G01X16912395Y-11920006D02*
G03X17007623Y-11920006I47614J0D01*
G03X16912395Y-11920006I-47614J0D01*
G37*
G36*
G01X17265905Y-11297947D02*
G03X17345201Y-11312079I44105J17941D01*
G03X17323793Y-11234431I-35192J32073D01*
G03X17290315Y-11169232I-43783J18713D01*
G03X17232421Y-11214174I-10306J-46485D01*
G03X17190797Y-11279389I2589J-47544D01*
G03X17265905Y-11297947I44213J17672D01*
G37*
G36*
G01X17645010Y-11587620D02*
G03X17681985Y-11510006I0J47614D01*
G03X17645010Y-11432392I-36974J30000D01*
G03X17608036Y-11510006I0J-47614D01*
G03X17645010Y-11587620I36974J-30000D01*
G37*
%LPD*%
G36*
G01X16854913Y-10737620D02*
G01X17254412Y-10737620D01*
G01X17362725Y-10845932D01*
G03X17369733Y-10865443I47240J5954D01*
G01X17270009Y-10865442D01*
G03X17261430Y-10866523I0J-34564D01*
G03X17217714Y-10842447I-41421J-23482D01*
G03X17186491Y-10773626I-41994J22441D01*
G03X17128134Y-10821645I-10770J-46380D01*
G03X17033201Y-10829007I-47414J-4361D01*
G03X17128306Y-10824367I47519J3001D01*
G03X17178015Y-10867565I47414J4361D01*
G03X17173652Y-10900872I41994J-22441D01*
G03X17192363Y-10928771I46358J10867D01*
G01X17176879Y-10944255D01*
G03X17112898Y-10901307I-47582J-1753D01*
G03X17091871Y-10975442I16399J-44701D01*
G01X17066724Y-10975442D01*
G03X17031388Y-10898440I-37427J29434D01*
G01X17001698Y-10868750D01*
G03X17007729Y-10786793I-20978J42744D01*
G03X16933307Y-10821645I-27008J-39213D01*
G03X16912730Y-10780794I-47586J1639D01*
G03X16867228Y-10776130I-27009J-39212D01*
G03X16854913Y-10737620I-47219J6124D01*
G37*
G36*
G01X16933943Y-10834892D02*
G01X16930948Y-10834892D01*
G03X16933135Y-10824367I-45227J14886D01*
G03X16933943Y-10834892I47586J-1639D01*
G37*
G36*
G01X17230002Y-10988895D02*
G03X17301941Y-11009279I44008J18176D01*
G03X17305000Y-10934570I-27931J38561D01*
G01X17355692Y-10934570D01*
G01X17506014Y-11084892D01*
G01X17135237Y-11084892D01*
G03X17130260Y-11044570I-45227J14886D01*
G01X17160009Y-11044570D01*
G03X17184450Y-11034446I0J34564D01*
G01X17230002Y-10988895D01*
G37*
G36*
G01X18346978Y-10692593D02*
G03X18328923Y-10722821I28953J-37800D01*
G03X18284629Y-10759294I2008J-47572D01*
G03X18307574Y-10811884I46302J-11099D01*
G03X18292530Y-10878386I24899J-40585D01*
G03X18359392Y-10891743I39942J25917D01*
G01X18215693Y-11035442D01*
G01X17554326Y-11035442D01*
G01X17406339Y-10887454D01*
G03X17457338Y-10844770I3627J47476D01*
G03X17415919Y-10792738I-47372J4792D01*
G01X17315774Y-10692593D01*
G01X18346978Y-10692593D01*
G37*
%LPC*%
G36*
G01X17532395Y-10830006D02*
G03X17627624Y-10830006I47614J0D01*
G03X17532395Y-10830006I-47614J0D01*
G37*
G36*
G01X17998704Y-10908944D02*
G03X17919499Y-10875366I-47572J-2008D01*
G03X17943560Y-10957961I31633J-35587D01*
G03X18022765Y-10991540I47572J2008D01*
G03X17998704Y-10908944I-31633J35587D01*
G37*
G36*
G01X18179068Y-10896697D02*
G03X18274296Y-10896697I47614J0D01*
G03X18179068Y-10896697I-47614J0D01*
G37*
%LPD*%
G36*
G01X17793985Y-12973849D02*
G03X17777578Y-13005352I30979J-36158D01*
G03X17768612Y-12977388I-47614J153D01*
G03X17793985Y-12973849I6353J47188D01*
G37*
G36*
G01X18360471Y-11202272D02*
G03X18380391Y-11123075I-13791J45573D01*
G03X18301142Y-11142789I-33712J-33624D01*
G03X18265816Y-11152392I-6133J-47218D01*
G01X18263580Y-11152392D01*
G03X18274839Y-11144835I-13570J32386D01*
G01X18454555Y-10965120D01*
G01X18481807Y-10965120D01*
G03X18444428Y-11017574I9871J-46580D01*
G03X18406800Y-11099143I-4465J-47404D01*
G03X18487213Y-11059104I33163J34166D01*
G03X18538748Y-11018880I4465J47404D01*
G03X18501550Y-10965120I-47070J7180D01*
G01X18905466Y-10965120D01*
G01X19117442Y-11177097D01*
G03X19198679Y-11208674I47568J2091D01*
G03X19167101Y-11127438I-33668J33668D01*
G01X18964233Y-10924570D01*
G01X19115693Y-10924570D01*
G01X19278682Y-11087558D01*
G01X19278682Y-11200520D01*
G03X19306059Y-11280336I34564J-32748D01*
G01X19306005Y-11280745D01*
G01X19264358Y-11322392D01*
G01X18480590Y-11322392D01*
G01X18360471Y-11202272D01*
G37*
%LPC*%
G36*
G01X18710633Y-11071699D02*
G03X18805861Y-11071699I47614J0D01*
G03X18710633Y-11071699I-47614J0D01*
G37*
G36*
G01X18850632Y-11216699D02*
G03X18945861Y-11216699I47614J0D01*
G03X18850632Y-11216699I-47614J0D01*
G37*
%LPD*%
G36*
G01X19377575Y-13005352D02*
G03X19368609Y-12977388I-47614J153D01*
G03X19393982Y-12973849I6353J47188D01*
G03X19377575Y-13005352I30979J-36158D01*
G37*
G54D10*
G01X14379971Y-10635793D02*
G01X16652337Y-10635793D01*
G03X16622571Y-10684093I17672J-44213D01*
G03X16660161Y-10726590I47438J4088D01*
G01X16599386Y-10787364D01*
G01X15869968Y-10787364D01*
G03X15843371Y-10798381I0J-37614D01*
G01X15708371Y-10933381D01*
G03X15697354Y-10959978I26597J-26597D01*
G01X15697354Y-11399466D01*
G01X15634428Y-11462392D01*
G01X15283667Y-11462392D01*
G03X15257070Y-11473409I0J-37614D01*
G01X15067713Y-11662766D01*
G03X15041838Y-11674595I5954J-47240D01*
G03X14976340Y-11676338I-31830J-35412D01*
G03X14974596Y-11741836I33668J-33668D01*
G03X14976340Y-11807334I35412J-31830D01*
G03X15041838Y-11809077I33668J33668D01*
G03X15114894Y-11797486I31830J35412D01*
G01X15114894Y-11915462D01*
G01X15085463Y-11944892D01*
G01X14640008Y-11944892D01*
G03X14615178Y-11955177I0J-35114D01*
G01X14580141Y-11990214D01*
G03X14569857Y-12015044I24829J-24829D01*
G01X14569857Y-12047849D01*
G03X14583037Y-12122268I35114J-32157D01*
G03X14651478Y-12090212I21934J42261D01*
G03X14696459Y-12066090I3492J47486D01*
G03X14693766Y-12015121I-41488J23364D01*
G01X15100008Y-12015121D01*
G03X15124838Y-12004836I0J35114D01*
G01X15174838Y-11954836D01*
G03X15185122Y-11930006I-24829J24829D01*
G01X15185122Y-11714551D01*
G01X15224553Y-11675120D01*
G01X15438834Y-11675120D01*
G03X15407494Y-11706282I14066J-45489D01*
G03X15353148Y-11725398I-14593J-45323D01*
G03X15356998Y-11782879I39753J-26206D01*
G03X15353125Y-11840326I35902J-31275D01*
G03X15407414Y-11859502I39776J26171D01*
G03X15476076Y-11887023I45487J14073D01*
G03X15488803Y-11814154I-23175J41594D01*
G03X15500515Y-11782972I-35902J31275D01*
G03X15488924Y-11751744I-47614J93D01*
G03X15466967Y-11675120I-36024J31135D01*
G01X15730008Y-11675120D01*
G03X15754838Y-11664836I0J35114D01*
G01X15804838Y-11614836D01*
G03X15815123Y-11590006I-24829J24829D01*
G01X15815123Y-11004551D01*
G01X15844553Y-10975120D01*
G01X16692605Y-10975120D01*
G03X16683825Y-11033902I32404J-34886D01*
G03X16739214Y-11055452I41184J23895D01*
G03X16732567Y-11084050I40795J-24554D01*
G03X16672654Y-11125016I-12558J-45928D01*
G03X16722774Y-11177511I47355J-4962D01*
G01X15765179Y-12135106D01*
G03X15754894Y-12159936I24829J-24829D01*
G01X15754894Y-12227602D01*
G03X15672394Y-12260007I-34886J-32405D01*
G03X15754894Y-12292411I47614J0D01*
G01X15754894Y-12397602D01*
G03X15684541Y-12398240I-34886J-32405D01*
G03X15691628Y-12468238I35468J-31767D01*
G03X15684541Y-12538237I28380J-38232D01*
G03X15754894Y-12538875I35468J31767D01*
G01X15754894Y-12635462D01*
G01X15725464Y-12664893D01*
G01X15660008Y-12664893D01*
G03X15635179Y-12675177I0J-35114D01*
G01X15585179Y-12725177D01*
G03X15574894Y-12750007I24829J-24829D01*
G01X15574894Y-12857850D01*
G03X15610008Y-12937621I35114J-32157D01*
G03X15645123Y-12857850I0J47614D01*
G01X15645123Y-12764552D01*
G01X15674553Y-12735121D01*
G01X15740008Y-12735121D01*
G03X15764838Y-12724836I0J35114D01*
G01X15814838Y-12674836D01*
G03X15825123Y-12650007I-24829J24829D01*
G01X15825123Y-12422464D01*
G03X15914654Y-12384975I36917J37489D01*
G01X15914654Y-12209769D01*
G01X15961802Y-12162621D01*
G01X16168215Y-12162621D01*
G01X16337395Y-12331800D01*
G01X16337395Y-12480007D01*
G03X16352805Y-12517211I52614J0D01*
G01X16462805Y-12627211D01*
G03X16500009Y-12642621I37204J37204D01*
G01X16938216Y-12642621D01*
G01X16945602Y-12650007D01*
G01X16812805Y-12782803D01*
G03X16797395Y-12820007I37204J-37204D01*
G01X16797395Y-13010007D01*
G03X16812805Y-13047211I52614J0D01*
G01X16852805Y-13087211D01*
G03X16912395Y-13097621I37204J37204D01*
G01X16912395Y-13103154D01*
G01X15669247Y-13103154D01*
G03X15642650Y-13114171I0J-37614D01*
G01X15556594Y-13200227D01*
G03X15483802Y-13182572I-43326J-19746D01*
G03X15483927Y-13257473I29465J-37402D01*
G03X15475684Y-13324207I29340J-37500D01*
G03X15542394Y-13332639I37583J29234D01*
G01X15542394Y-13334427D01*
G01X15488372Y-13388449D01*
G03X15477641Y-13410414I26597J-26597D01*
G03X15482687Y-13474973I37328J-29559D01*
G03X15514969Y-13557587I32282J-35000D01*
G03X15547251Y-13474973I0J47614D01*
G03X15549969Y-13472255I-32282J35000D01*
G03X15627390Y-13461595I35000J32282D01*
G03X15590526Y-13392684I-42422J21622D01*
G01X15606606Y-13376604D01*
G03X15617623Y-13350007I-26597J26597D01*
G01X15617623Y-13245587D01*
G01X15684828Y-13178382D01*
G01X16912395Y-13178382D01*
G01X16912395Y-13380007D01*
G03X16923412Y-13406604I37614J0D01*
G01X16983378Y-13466570D01*
G03X17005331Y-13477300I26597J26597D01*
G03X17041620Y-13557558I34634J-32673D01*
G03X17072248Y-13474973I-1654J47585D01*
G03X17074966Y-13472255I-32282J35000D01*
G03X17157580Y-13439973I35000J32282D01*
G03X17074966Y-13407691I-47614J0D01*
G03X17019962Y-13396765I-35000J-32282D01*
G01X16987623Y-13364427D01*
G01X16987623Y-13308537D01*
G03X17060066Y-13334328I45641J13564D01*
G03X17062605Y-13257473I-26801J39355D01*
G03X17080735Y-13216275I-29340J37500D01*
G03X17056443Y-13178382I-47470J-3698D01*
G01X18325177Y-13178382D01*
G01X18592722Y-13445927D01*
G03X18607681Y-13474973I47240J5954D01*
G03X18639963Y-13557587I32282J-35000D01*
G03X18672244Y-13474973I0J47614D01*
G03X18674963Y-13472255I-32282J35000D01*
G03X18757577Y-13439973I35000J32282D01*
G03X18674963Y-13407691I-47614J0D01*
G03X18645917Y-13392733I-35000J-32282D01*
G01X18367355Y-13114171D01*
G03X18340758Y-13103154I-26597J-26597D01*
G01X16987623Y-13103154D01*
G01X16987623Y-12890587D01*
G01X17438523Y-12439687D01*
G03X17518674Y-12483675I46482J-10319D01*
G03X17474686Y-12403524I-33668J33668D01*
G01X18252658Y-11625552D01*
G03X18325347Y-11631935I39021J27285D01*
G03X18318964Y-11559246I-33668J33668D01*
G01X18480590Y-11397620D01*
G01X19242324Y-11397620D01*
G01X19242324Y-11571067D01*
G01X18772340Y-12041050D01*
G03X18744626Y-12121959I5954J-47240D01*
G03X18825535Y-12094245I33668J33668D01*
G01X19306536Y-11613244D01*
G03X19317553Y-11586647I-26597J26597D01*
G01X19317553Y-11375586D01*
G01X19359200Y-11333939D01*
G03X19400856Y-11287322I-5954J47240D01*
G03X19360433Y-11239631I-47610J622D01*
G03X19347810Y-11200520I-47187J6363D01*
G01X19347810Y-11073241D01*
G03X19337686Y-11048801I-34564J0D01*
G01X19154451Y-10865565D01*
G03X19130010Y-10855442I-24440J-24440D01*
G01X18410010Y-10855442D01*
G03X18385569Y-10865565I0J-34564D01*
G01X18371747Y-10879388D01*
G03X18355830Y-10810977I-39274J26919D01*
G03X18377939Y-10777964I-24899J40585D01*
G03X18421337Y-10744724I-2008J47572D01*
G03X18404884Y-10692593I-45406J14331D01*
G01X18706079Y-10692593D01*
G03X18712508Y-10754801I38931J-27413D01*
G03X18775010Y-10756980I32502J34795D01*
G03X18792568Y-10765966I30000J36974D01*
G03X18817726Y-10812083I47442J-4040D01*
G03X18870010Y-10806980I22285J42077D01*
G03X18940010Y-10795834I30000J36974D01*
G03X19010010Y-10806980I40000J25828D01*
G03X19087624Y-10770006I30000J36974D01*
G03X19010010Y-10733032I-47614J0D01*
G03X18940010Y-10744178I-30000J-36974D01*
G03X18870010Y-10733032I-40000J-25828D01*
G03X18852452Y-10724046I-30000J-36974D01*
G03X18843941Y-10692593I-47442J4040D01*
G01X19572939Y-10692593D01*
G01X19594896Y-10714551D01*
G01X19594896Y-12095462D01*
G01X19535181Y-12155177D01*
G03X19524896Y-12180007I24829J-24829D01*
G01X19524896Y-12270007D01*
G03X19535181Y-12294836I35114J0D01*
G01X19567442Y-12327097D01*
G03X19638723Y-12366296I47568J2091D01*
G03X19640790Y-12284975I-23712J41290D01*
G03X19656711Y-12222084I-25829J39999D01*
G03X19595125Y-12201690I-41750J-22892D01*
G01X19595125Y-12194551D01*
G01X19653778Y-12135898D01*
G03X19737036Y-12112471I36233J30892D01*
G03X19665125Y-12064413I-47025J7464D01*
G01X19665125Y-10700006D01*
G03X19654840Y-10675176I-35114J0D01*
G01X19615456Y-10635793D01*
G01X21119958Y-10635793D01*
G02X21214144Y-10729979I0J-94186D01*
G01X21214144Y-11334163D01*
G01X20094960Y-11334163D01*
G03X20059146Y-11369977I0J-35814D01*
G01X20059146Y-12730148D01*
G03X20094960Y-12765962I35814J0D01*
G01X21214144Y-12765962D01*
G01X21214144Y-13469973D01*
G02X21119958Y-13564159I-94186J0D01*
G01X14379971Y-13564159D01*
G02X14285786Y-13469973I0J94186D01*
G01X14285786Y-10729979D01*
G02X14379971Y-10635793I94186J0D01*
G01X14297357Y-12449975D02*
G03X14379971Y-12482257I47614J0D01*
G03X14462585Y-12449975I35000J32282D01*
G03X14379971Y-12417693I-47614J0D01*
G03X14297357Y-12449975I-35000J-32282D01*
G01X14352042Y-11891618D02*
G03X14432355Y-11852549I32929J34391D01*
G03X14467900Y-11770615I2616J47542D01*
G03X14387587Y-11809684I-32929J-34391D01*
G03X14352042Y-11891618I-2616J-47542D01*
G01X14370121Y-12111152D02*
G03X14451346Y-12143687I47600J1176D01*
G03X14518639Y-12143644I33625J33711D01*
G03X14518682Y-12076351I-33668J33668D01*
G03X14486147Y-11995126I-33711J33625D01*
G03X14449641Y-12074646I-1176J-47600D01*
G03X14370121Y-12111152I-31920J-35330D01*
G01X14638639Y-11763558D02*
G03X14574971Y-11760252I-33668J-33668D01*
G03X14511303Y-11763558I-30000J-36974D01*
G03X14507997Y-11827226I33668J-33668D01*
G03X14511303Y-11890894I36974J-30000D01*
G03X14574971Y-11894201I33668J33668D01*
G03X14638639Y-11890894I30000J36974D01*
G03X14641945Y-11827226I-33668J33668D01*
G03X14638639Y-11763558I-36974J30000D01*
G01X14754510Y-12533675D02*
G03X14820008Y-12535418I33668J33668D01*
G03X14885506Y-12533675I31830J35412D01*
G03X14887249Y-12468177I-33668J33668D01*
G03X14885506Y-12402680I-35412J31830D01*
G03X14820008Y-12400936I-33668J-33668D01*
G03X14754510Y-12402680I-31830J-35412D01*
G03X14752767Y-12468177I33668J-33668D01*
G03X14754510Y-12533675I35412J-31830D01*
G01X14760353Y-12178926D02*
G03X14830008Y-12185418I37825J28920D01*
G03X14899662Y-12178927I31830J35411D01*
G03X14887666Y-12110007I-37825J28920D01*
G03X14899662Y-12041087I-25828J40000D01*
G03X14830008Y-12034595I-37825J-28920D01*
G03X14760353Y-12041086I-31830J-35412D01*
G03X14772350Y-12110007I37825J-28920D01*
G03X14760353Y-12178926I25828J-40000D01*
G01X14949895Y-11436450D02*
G03X14924700Y-11352719I-30657J36431D01*
G03X14884680Y-11303002I-47537J2700D01*
G03X14880812Y-11280957I-47518J3024D01*
G03X14927454Y-11296423I36158J30979D01*
G03X14962930Y-11262420I-10484J46445D01*
G03X15012401Y-11229231I4040J47442D01*
G03X14990755Y-11173730I-45431J14253D01*
G03X15014549Y-11151287I-18785J43752D01*
G01X15054566Y-11191303D01*
G03X15081157Y-11232749I47597J1284D01*
G03X15082770Y-11262235I46006J-12270D01*
G03X15091667Y-11348148I24393J-40891D01*
G03X15151555Y-11285910I15496J45022D01*
G03X15154099Y-11284281I-24393J40891D01*
G03X15219353Y-11285102I33063J34262D01*
G03X15224137Y-11220019I-32191J35084D01*
G03X15222029Y-11157593I-36974J30000D01*
G03X15159920Y-11150968I-34867J-32426D01*
G03X15154137Y-11100019I-42758J20949D01*
G03X15117163Y-11022405I-36974J30000D01*
G03X15080188Y-11100019I0J-47614D01*
G03X15073071Y-11112046I36974J-30000D01*
G01X15064572Y-11103547D01*
G01X15064572Y-10944323D01*
G01X15221292Y-10787603D01*
G03X15253676Y-10706338I-1284J47597D01*
G03X15172411Y-10738722I-33668J-33668D01*
G01X15005568Y-10905565D01*
G03X14995444Y-10930006I24440J-24440D01*
G01X14995444Y-11028553D01*
G03X14935625Y-11039218I-23474J-41425D01*
G03X14934995Y-11099978I36345J-30759D01*
G03X14924543Y-11134195I36974J-30000D01*
G03X14878850Y-11114862I-82573J-131493D01*
G03X14841817Y-11097364I-36880J-30116D01*
G03X14884699Y-11047271I-4655J47386D01*
G03X14926715Y-10997278I-5522J47293D01*
G03X14951910Y-10913547I-5462J47300D01*
G03X14873716Y-10952678I-30657J-36431D01*
G03X14831641Y-11002685I5462J-47300D01*
G03X14789633Y-11052820I5522J-47293D01*
G03X14837315Y-11097592I47529J2842D01*
G03X14798034Y-11126628I4655J-47386D01*
G03X14804996Y-11174978I43936J-18349D01*
G03X14837315Y-11252364I36974J-30000D01*
G03X14789704Y-11296130I-153J-47614D01*
G03X14829644Y-11346994I47458J-3847D01*
G03X14871700Y-11397318I47518J-3024D01*
G03X14949895Y-11436450I47537J-2700D01*
G01X14894970Y-13249859D02*
G03X14894970Y-13380087I0J-65114D01*
G03X14894970Y-13249859I0J65114D01*
G01X14894970Y-12669860D02*
G03X14894970Y-12800089I0J-65114D01*
G03X14894970Y-12669860I0J65114D01*
G01X14922394Y-13150007D02*
G03X15017622Y-13150007I47614J0D01*
G03X14922394Y-13150007I-47614J0D01*
G01X14922394Y-13050007D02*
G03X15017622Y-13050007I47614J0D01*
G03X14922394Y-13050007I-47614J0D01*
G01X14922394Y-12950007D02*
G03X15017622Y-12950007I47614J0D01*
G03X14922394Y-12950007I-47614J0D01*
G01X14922394Y-12850007D02*
G03X15017622Y-12850007I47614J0D01*
G03X14922394Y-12850007I-47614J0D01*
G01X15060846Y-12549419D02*
G03X15096258Y-12469975I0J47614D01*
G03X15060846Y-12390531I-35412J31830D01*
G03X15025435Y-12469975I0J-47614D01*
G03X15060846Y-12549419I35412J-31830D01*
G01X15022394Y-13100007D02*
G03X15117622Y-13100007I47614J0D01*
G03X15022394Y-13100007I-47614J0D01*
G01X15022394Y-13200007D02*
G03X15117622Y-13200007I47614J0D01*
G03X15022394Y-13200007I-47614J0D01*
G01X15022394Y-13000007D02*
G03X15117622Y-13000007I47614J0D01*
G03X15022394Y-13000007I-47614J0D01*
G01X15022394Y-12900007D02*
G03X15117622Y-12900007I47614J0D01*
G03X15022394Y-12900007I-47614J0D01*
G01X15073629Y-12177590D02*
G03X15109041Y-12098146I0J47614D01*
G03X15073629Y-12018703I-35412J31830D01*
G03X15038217Y-12098146I0J-47614D01*
G03X15073629Y-12177590I35412J-31830D01*
G01X15179549Y-10990019D02*
G03X15274777Y-10990019I47614J0D01*
G03X15179549Y-10990019I-47614J0D01*
G01X15200690Y-12694752D02*
G03X15280766Y-12657582I32522J34777D01*
G03X15312491Y-12575198I-796J47607D01*
G03X15232416Y-12612367I-32522J-34777D01*
G03X15200690Y-12694752I796J-47607D01*
G01X15202789Y-13300979D02*
G03X15242953Y-13378244I37180J-29744D01*
G03X15289969Y-13418337I47016J7521D01*
G03X15336986Y-13378244I0J47614D01*
G03X15342953Y-13378244I2984J47521D01*
G03X15427150Y-13400468I47016J7521D01*
G03X15386986Y-13323203I-37180J29744D01*
G03X15339969Y-13283109I-47016J-7521D01*
G03X15292953Y-13323203I0J-47614D01*
G03X15286986Y-13323203I-2984J-47521D01*
G03X15202789Y-13300979I-47016J-7521D01*
G01X15267356Y-12872453D02*
G03X15230374Y-12952722I-2387J-47554D01*
G03X15312583Y-12920278I34595J32715D01*
G03X15358532Y-12891944I2387J47554D01*
G03X15348485Y-12838904I-43563J19220D01*
G03X15380930Y-12808303I-12643J45905D01*
G03X15452382Y-12772006I24079J41077D01*
G03X15497778Y-12696014I7626J46999D01*
G03X15412635Y-12720227I-37769J-28993D01*
G03X15359921Y-12751923I-7626J-46999D01*
G03X15293055Y-12772110I-24079J-41077D01*
G03X15202485Y-12792455I-42956J-20539D01*
G03X15292886Y-12813539I47614J-194D01*
G03X15302326Y-12826819I42956J20539D01*
G03X15267356Y-12872453I12643J-45905D01*
G01X15415972Y-12311661D02*
G03X15404979Y-12329443I34016J-33317D01*
G03X15326671Y-12311011I-44992J-15584D01*
G03X15256109Y-12315362I-33317J-34016D01*
G03X15267652Y-12385108I37244J-29665D01*
G03X15261026Y-12459259I26260J-39718D01*
G03X15251549Y-12528012I27558J-38829D01*
G03X15320759Y-12533185I37035J29925D01*
G03X15381223Y-12535162I31434J35764D01*
G03X15450344Y-12531667I32909J34411D01*
G03X15442956Y-12462853I-36212J30916D01*
G03X15414043Y-12384376I-35822J31367D01*
G03X15363815Y-12451247I-6909J-47110D01*
G03X15330866Y-12454851I-11621J-46174D01*
G03X15319614Y-12384745I-36954J30025D01*
G03X15326671Y-12379042I-26260J39718D01*
G03X15404996Y-12360563I33317J34016D01*
G03X15475047Y-12385465I44992J15584D01*
G03X15484003Y-12311661I-25059J40486D01*
G03X15484003Y-12245027I-34016J33317D01*
G03X15484003Y-12178392I-34015J33317D01*
G03X15449988Y-12097460I-34016J33317D01*
G03X15415972Y-12178392I0J-47614D01*
G03X15415972Y-12245027I34016J-33317D01*
G03X15415972Y-12311661I34015J-33317D01*
G01X15334873Y-12057528D02*
G03X15430101Y-12057528I47614J0D01*
G03X15334873Y-12057528I-47614J0D01*
G01X15349549Y-10960019D02*
G03X15444777Y-10960019I47614J0D01*
G03X15349549Y-10960019I-47614J0D01*
G01X15462394Y-10800006D02*
G03X15557622Y-10800006I47614J0D01*
G03X15462394Y-10800006I-47614J0D01*
G01X15467355Y-13024974D02*
G03X15562583Y-13024974I47614J0D01*
G03X15467355Y-13024974I-47614J0D01*
G01X15529500Y-12491515D02*
G03X15557827Y-12569797I35902J-31275D01*
G03X15557297Y-12664898I2182J-47564D01*
G03X15567584Y-12570354I2711J47537D01*
G03X15601304Y-12491515I-2182J47564D01*
G03X15601426Y-12429105I-35902J31275D01*
G03X15565402Y-12350356I-36024J31135D01*
G03X15529378Y-12429105I0J-47614D01*
G03X15529500Y-12491515I36024J-31135D01*
G01X15512400Y-12149986D02*
G03X15607628Y-12149986I47614J0D01*
G03X15512400Y-12149986I-47614J0D01*
G01X15542638Y-12290007D02*
G03X15637866Y-12290007I47614J0D01*
G03X15542638Y-12290007I-47614J0D01*
G01X15626212Y-11861504D02*
G03X15547463Y-11897528I-31135J-36024D01*
G03X15626212Y-11933552I47614J0D01*
G03X15688622Y-11933431I31135J36024D01*
G03X15767511Y-11897528I31275J35902D01*
G03X15688622Y-11861626I-47614J0D01*
G03X15626212Y-11861504I-31275J-35902D01*
G01X15626212Y-11711505D02*
G03X15547463Y-11747528I-31135J-36024D01*
G03X15626212Y-11783552I47614J0D01*
G03X15688622Y-11783431I31135J36024D01*
G01X15688622Y-11783431D01*
G03X15767511Y-11747528I31275J35902D01*
G03X15688622Y-11711626I-47614J0D01*
G03X15626212Y-11711505I-31275J-35902D01*
G01X15647749Y-10804978D02*
G03X15742977Y-10804978I47614J0D01*
G03X15647749Y-10804978I-47614J0D01*
G01X15882395Y-11070006D02*
G03X15977623Y-11070006I47614J0D01*
G03X15882395Y-11070006I-47614J0D01*
G01X16097582Y-13009854D02*
G03X16126618Y-13049136I47386J4655D01*
G03X16174968Y-13042174I18349J43936D01*
G03X16223317Y-13049136I30000J36974D01*
G03X16252354Y-13009854I-18349J43936D01*
G03X16296120Y-13057465I47614J-153D01*
G03X16346984Y-13017525I3847J47458D01*
G03X16397308Y-12975469I3024J47518D01*
G03X16436440Y-12897275I2700J47537D01*
G03X16352709Y-12922470I-36431J-30657D01*
G03X16302992Y-12962489I-2700J-47537D01*
G03X16280947Y-12966357I-3024J-47518D01*
G03X16296413Y-12919715I-30979J36158D01*
G03X16262410Y-12884240I-46445J-10484D01*
G03X16229221Y-12834769I-47442J4040D01*
G03X16173720Y-12856415I-14253J-45431D01*
G03X16099968Y-12838225I-43752J-18785D01*
G03X16022354Y-12875200I-30000J-36974D01*
G03X16099968Y-12912174I47614J0D01*
G03X16134185Y-12922626I30000J36974D01*
G03X16114852Y-12968319I131493J-82573D01*
G03X16097354Y-13005352I30116J-36880D01*
G03X16047261Y-12962470I-47386J-4655D01*
G03X15997268Y-12920454I-47293J-5522D01*
G03X15913537Y-12895259I-47300J-5462D01*
G03X15952668Y-12973454I36431J-30657D01*
G03X16002675Y-13015529I47300J5462D01*
G03X16097582Y-13009854I47293J5522D01*
G01X15912395Y-12450007D02*
G03X16007623Y-12450007I47614J0D01*
G03X15912395Y-12450007I-47614J0D01*
G01X15942395Y-12620007D02*
G03X16037623Y-12620007I47614J0D01*
G03X15942395Y-12620007I-47614J0D01*
G01X16285092Y-12627816D02*
G03X16220009Y-12623033I-35084J-32191D01*
G03X16157583Y-12625140I-30000J-36974D01*
G03X16150958Y-12687249I32426J-34867D01*
G03X16100009Y-12693032I-20949J-42758D01*
G03X16022395Y-12730007I-30000J-36974D01*
G03X16100009Y-12766981I47614J0D01*
G03X16151228Y-12772631I30000J36974D01*
G03X16232739Y-12766013I38781J27625D01*
G03X16262225Y-12764399I12270J46006D01*
G03X16348138Y-12755503I40891J24393D01*
G03X16285900Y-12695614I-45022J15496D01*
G03X16284271Y-12693070I-40891J-24393D01*
G03X16285092Y-12627816I-34262J33063D01*
G01X17042352Y-12979974D02*
G03X17137580Y-12979974I47614J0D01*
G03X17042352Y-12979974I-47614J0D01*
G01X17821117Y-13057465D02*
G03X17871981Y-13017525I3847J47458D01*
G03X17922305Y-12975469I3024J47518D01*
G03X17961437Y-12897275I2700J47537D01*
G03X17877706Y-12922470I-36431J-30657D01*
G03X17827989Y-12962489I-2700J-47537D01*
G03X17805943Y-12966357I-3024J-47518D01*
G03X17787407Y-12884240I-30979J36158D01*
G03X17754217Y-12834769I-47442J4040D01*
G03X17698717Y-12856415I-14253J-45431D01*
G03X17624965Y-12838225I-43752J-18785D01*
G03X17547351Y-12875200I-30000J-36974D01*
G03X17624965Y-12912174I47614J0D01*
G03X17659182Y-12922626I30000J36974D01*
G03X17639849Y-12968319I131493J-82573D01*
G03X17622351Y-13005352I30116J-36880D01*
G03X17572258Y-12962470I-47386J-4655D01*
G03X17522265Y-12920454I-47293J-5522D01*
G03X17438534Y-12895259I-47300J-5462D01*
G03X17477665Y-12973454I36431J-30657D01*
G03X17527672Y-13015529I47300J5462D01*
G03X17577807Y-13057536I47293J5522D01*
G03X17622579Y-13009854I-2842J47529D01*
G03X17651615Y-13049136I47386J4655D01*
G03X17699965Y-13042174I18349J43936D01*
G03X17748314Y-13049136I30000J36974D01*
G03X17777351Y-13009854I-18349J43936D01*
G03X17821117Y-13057465I47614J-153D01*
G01X17467392Y-12620007D02*
G03X17562620Y-12620007I47614J0D01*
G03X17467392Y-12620007I-47614J0D01*
G01X17682580Y-12625140D02*
G03X17675955Y-12687249I32426J-34867D01*
G03X17625006Y-12693032I-20949J-42758D01*
G03X17547392Y-12730007I-30000J-36974D01*
G03X17625006Y-12766981I47614J0D01*
G03X17676225Y-12772631I30000J36974D01*
G03X17718859Y-12792465I38781J27625D01*
G03X17757736Y-12766013I-3854J47458D01*
G03X17787222Y-12764399I12270J46006D01*
G03X17873135Y-12755503I40891J24393D01*
G03X17810897Y-12695614I-45022J15496D01*
G03X17809268Y-12693070I-40891J-24393D01*
G03X17810089Y-12627816I-34262J33063D01*
G03X17745006Y-12623033I-35084J-32191D01*
G03X17682580Y-12625140I-30000J-36974D01*
G01X17807392Y-12130006D02*
G03X17902620Y-12130006I47614J0D01*
G03X17807392Y-12130006I-47614J0D01*
G01X18014964Y-12372590D02*
G03X18040792Y-12284976I0J47614D01*
G03X18050727Y-12213541I-25828J40000D01*
G03X18098190Y-12131627I19283J43535D01*
G03X18034247Y-12201441I-28180J-38380D01*
G03X17973069Y-12222351I-19283J-43535D01*
G03X17989136Y-12284976I41895J-22625D01*
G03X18014964Y-12372590I25828J-40000D01*
G01X18192396Y-12310007D02*
G03X18270010Y-12346981I47614J0D01*
G03X18347624Y-12310007I30000J36974D01*
G03X18270010Y-12273032I-47614J0D01*
G03X18192396Y-12310007I-30000J-36974D01*
G01X18482676Y-13048495D02*
G03X18577904Y-13048495I47614J0D01*
G03X18482676Y-13048495I-47614J0D01*
G01X18499065Y-11848266D02*
G03X18594293Y-11848266I47614J0D01*
G03X18499065Y-11848266I-47614J0D01*
G01X18634963Y-13342587D02*
G03X18664303Y-13257473I0J47614D01*
G03X18634963Y-13172359I-29340J37500D01*
G03X18605622Y-13257473I0J-47614D01*
G03X18634963Y-13342587I29340J-37500D01*
G01X18642349Y-12983587D02*
G03X18737577Y-12983587I47614J0D01*
G03X18642349Y-12983587I-47614J0D01*
G01X18655633Y-11793266D02*
G03X18750861Y-11793266I47614J0D01*
G03X18655633Y-11793266I-47614J0D01*
G01X18820632Y-11628267D02*
G03X18915861Y-11628267I47614J0D01*
G03X18820632Y-11628267I-47614J0D01*
G01X18847348Y-12239976D02*
G03X18924962Y-12276950I47614J0D01*
G03X19002576Y-12239976I30000J36974D01*
G03X18924962Y-12203001I-47614J0D01*
G03X18847348Y-12239976I-30000J-36974D01*
G01X19042725Y-12428105D02*
G03X19116917Y-12485342I42278J-21902D01*
G03X19067503Y-12405725I-31915J35335D01*
G03X18993311Y-12348488I-42278J21902D01*
G03X19042725Y-12428105I31915J-35335D01*
G01X19427986Y-12962489D02*
G03X19405940Y-12966357I-3024J-47518D01*
G03X19421407Y-12919715I-30979J36158D01*
G03X19387404Y-12884240I-46445J-10484D01*
G03X19354214Y-12834769I-47442J4040D01*
G03X19298713Y-12856415I-14253J-45431D01*
G03X19224962Y-12838225I-43752J-18785D01*
G03X19147348Y-12875200I-30000J-36974D01*
G03X19224962Y-12912174I47614J0D01*
G03X19259179Y-12922626I30000J36974D01*
G03X19239846Y-12968319I131493J-82573D01*
G03X19222348Y-13005352I30116J-36880D01*
G03X19172255Y-12962470I-47386J-4655D01*
G03X19122262Y-12920454I-47293J-5522D01*
G03X19038531Y-12895259I-47300J-5462D01*
G03X19077662Y-12973454I36431J-30657D01*
G03X19127669Y-13015529I47300J5462D01*
G01X19127669Y-13015529D01*
G03X19177803Y-13057536I47293J5522D01*
G03X19222575Y-13009854I-2842J47529D01*
G03X19251612Y-13049136I47386J4655D01*
G03X19299961Y-13042174I18349J43936D01*
G03X19348311Y-13049136I30000J36974D01*
G03X19377347Y-13009854I-18349J43936D01*
G03X19421114Y-13057465I47614J-153D01*
G03X19471978Y-13017525I3847J47458D01*
G03X19522302Y-12975469I3024J47518D01*
G03X19561434Y-12897275I2700J47537D01*
G03X19477703Y-12922470I-36431J-30657D01*
G03X19427986Y-12962489I-2700J-47537D01*
G01X19067388Y-12620007D02*
G03X19162616Y-12620007I47614J0D01*
G03X19067388Y-12620007I-47614J0D01*
G01X19410086Y-12627816D02*
G03X19345002Y-12623033I-35084J-32191D01*
G03X19282577Y-12625140I-30000J-36974D01*
G03X19275952Y-12687249I32426J-34867D01*
G03X19225002Y-12693032I-20949J-42758D01*
G03X19147388Y-12730007I-30000J-36974D01*
G03X19225002Y-12766981I47614J0D01*
G03X19276221Y-12772631I30000J36974D01*
G03X19357732Y-12766013I38781J27625D01*
G03X19387219Y-12764399I12270J46006D01*
G03X19473132Y-12755503I40891J24393D01*
G03X19410894Y-12695614I-45022J15496D01*
G03X19409265Y-12693070I-40891J-24393D01*
G03X19410086Y-12627816I-34262J33063D01*
G01X19345011Y-11907620D02*
G03X19381985Y-11830006I0J47614D01*
G03X19345011Y-11752392I-36974J30000D01*
G03X19308036Y-11830006I0J-47614D01*
G03X19345011Y-11907620I36974J-30000D01*
G01X19454961Y-11632591D02*
G03X19491935Y-11554977I0J47614D01*
G03X19454961Y-11477363I-36974J30000D01*
G03X19417987Y-11554977I0J-47614D01*
G03X19454961Y-11632591I36974J-30000D01*
G01X19407388Y-12130006D02*
G03X19502617Y-12130006I47614J0D01*
G03X19407388Y-12130006I-47614J0D01*
G01X19832397Y-12880007D02*
G03X19843414Y-12906604I37614J0D01*
G01X19953414Y-13016604D01*
G03X19980011Y-13027621I26597J26597D01*
G01X20854958Y-13027621D01*
G03X20881555Y-13016604I0J37614D01*
G01X21035912Y-12862247D01*
G03X21050873Y-12857781I-5954J47240D01*
G03X21120953Y-12921118I39085J-27193D01*
G03X21069043Y-12842200I-30995J36144D01*
G03X21047025Y-12770557I-39085J27193D01*
G03X20982717Y-12809053I-17068J-44450D01*
G01X20839377Y-12952393D01*
G01X19995591Y-12952393D01*
G01X19907625Y-12864427D01*
G01X19907625Y-12426645D01*
G03X19958612Y-12403527I9588J46639D01*
G03X20026862Y-12419327I41399J23521D01*
G03X20036985Y-12350007I-26852J39320D01*
G03X20027966Y-12281463I-36974J30000D01*
G03X19960011Y-12294178I-27955J-38544D01*
G03X19907625Y-12274032I-40000J-25828D01*
G01X19907625Y-11430006D01*
G03X19896608Y-11403409I-37614J0D01*
G01X19767251Y-11274052D01*
G03X19686342Y-11246338I-47240J-5954D01*
G03X19714057Y-11327246I33668J-33668D01*
G01X19832397Y-11445586D01*
G01X19832397Y-12880007D01*
G01X19709893Y-11826953D02*
G03X19805121Y-11826953I47614J0D01*
G03X19709893Y-11826953I-47614J0D01*
G01X19959960Y-12611089D02*
G03X19992242Y-12528475I0J47614D01*
G03X19959960Y-12445861I-32282J35000D01*
G03X19927678Y-12528475I0J-47614D01*
G03X19959960Y-12611089I32282J-35000D01*
G01X19912346Y-11979976D02*
G03X20007574Y-11979976I47614J0D01*
G03X19912346Y-11979976I-47614J0D01*
G01X19912346Y-12119976D02*
G03X20007574Y-12119976I47614J0D01*
G03X19912346Y-12119976I-47614J0D01*
G01X21112344Y-12814974D02*
G03X21207572Y-12814974I47614J0D01*
G03X21112344Y-12814974I-47614J0D01*
G01X14869782Y-11243625D02*
G03X14873320Y-11268998I47188J-6353D01*
G03X14841817Y-11252591I-36158J-30979D01*
G03X14869782Y-11243625I153J47614D01*
G01X15744894Y-11575462D02*
G01X15715464Y-11604892D01*
G01X15231976Y-11604892D01*
G01X15299247Y-11537620D01*
G01X15650008Y-11537620D01*
G03X15676606Y-11526603I0J37614D01*
G01X15744894Y-11458315D01*
G01X15744894Y-11575462D01*
G01X15885549Y-10862592D02*
G01X16614967Y-10862592D01*
G03X16641564Y-10851576I0J37614D01*
G01X16705701Y-10787439D01*
G03X16741247Y-10816807I44308J17433D01*
G03X16785009Y-10802287I8763J46801D01*
G03X16838502Y-10813882I35000J32282D01*
G03X16840493Y-10834892I47219J-6124D01*
G01X16810009Y-10834892D01*
G03X16785180Y-10845176I0J-35114D01*
G01X16725464Y-10904892D01*
G01X15843249Y-10904892D01*
G01X15885549Y-10862592D01*
G01X16777496Y-11222106D02*
G03X16827353Y-11272763I47513J-3100D01*
G03X16871988Y-11217450I-2343J47556D01*
G03X16908359Y-11204944I4022J47444D01*
G03X16923622Y-11169640I-32350J34937D01*
G03X16937131Y-11175846I26387J39634D01*
G03X16955172Y-11235184I43589J-19160D01*
G01X16914830Y-11275527D01*
G03X16904545Y-11300356I24829J-24829D01*
G01X16904545Y-11317849D01*
G03X16939659Y-11397620I35114J-32157D01*
G03X16974773Y-11317849I0J47614D01*
G01X16974773Y-11314901D01*
G01X16982299Y-11307375D01*
G03X16998949Y-11351696I46998J-7633D01*
G03X17045606Y-11359741I30349J36689D01*
G01X17045606Y-11464750D01*
G01X16525180Y-11985177D01*
G03X16514895Y-12010006I24829J-24829D01*
G01X16514895Y-12095462D01*
G01X16415179Y-12195177D01*
G03X16404895Y-12220007I24829J-24829D01*
G01X16404895Y-12250485D01*
G01X16331989Y-12177579D01*
G03X16363677Y-12096338I-1980J47573D01*
G03X16282436Y-12128026I-33668J-33668D01*
G01X16227213Y-12072803D01*
G03X16190009Y-12057392I-37204J-37204D01*
G01X15942211Y-12057392D01*
G01X16777496Y-11222106D01*
G01X16535009Y-11662620D02*
G03X16571983Y-11585006I0J47614D01*
G03X16535009Y-11507392I-36974J30000D01*
G03X16498035Y-11585006I0J-47614D01*
G03X16535009Y-11662620I36974J-30000D01*
G01X16243615Y-12977388D02*
G03X16268988Y-12973849I6353J47188D01*
G03X16252581Y-13005352I30979J-36158D01*
G03X16243615Y-12977388I-47614J153D01*
G01X16625123Y-12144934D02*
G01X16625123Y-12044551D01*
G01X17154127Y-11515547D01*
G03X17164412Y-11490718I-24829J24829D01*
G01X17164412Y-11444993D01*
G03X17227623Y-11400006I15598J44987D01*
G03X17164412Y-11355019I-47614J0D01*
G01X17164412Y-11347165D01*
G03X17169690Y-11289796I-35114J32157D01*
G03X17115834Y-11269336I-40392J-25211D01*
G01X17115834Y-11227163D01*
G03X17126485Y-11208148I-35114J32157D01*
G03X17181997Y-11207814I27523J38853D01*
G03X17199463Y-11155120I-27989J38519D01*
G01X17904309Y-11155120D01*
G03X17891776Y-11163409I14064J-34886D01*
G01X17845726Y-11209459D01*
G03X17806586Y-11241412I5954J-47240D01*
G03X17818226Y-11290580I45093J-15287D01*
G03X17799910Y-11345380I26739J-39397D01*
G03X17847941Y-11377498I45054J15403D01*
G03X17906797Y-11431098I47023J-7479D01*
G03X17932578Y-11355783I-11833J46120D01*
G01X17932578Y-11299983D01*
G03X17921561Y-11273386I-37614J0D01*
G01X17904874Y-11256699D01*
G01X17933953Y-11227620D01*
G01X18237943Y-11227620D01*
G03X18234015Y-11237561I42039J-22357D01*
G03X18182719Y-11279469I-4005J-47445D01*
G03X18139168Y-11356025I-6039J-47230D01*
G03X18223971Y-11332236I37511J29326D01*
G03X18275976Y-11297423I6039J47230D01*
G03X18322738Y-11270929I4005J47445D01*
G01X18411816Y-11360006D01*
G01X17420776Y-12351045D01*
G03X17374015Y-12322548I-46761J-24117D01*
G01X17294853Y-12322548D01*
G03X17257650Y-12337959I0J-52614D01*
G01X17020009Y-12575599D01*
G01X16997213Y-12552803D01*
G03X16960009Y-12537393I-37204J-37204D01*
G01X16521802Y-12537393D01*
G01X16442623Y-12458213D01*
G01X16442623Y-12330039D01*
G03X16514935Y-12365518I47344J5064D01*
G03X16515795Y-12284976I-24968J40542D01*
G03X16537535Y-12247066I-25828J40000D01*
G01X16613690Y-12170912D01*
G03X16625123Y-12144934I-23681J25927D01*
G01X16720009Y-12043032D02*
G03X16642395Y-12080007I-30000J-36974D01*
G03X16720009Y-12116981I47614J0D01*
G03X16797623Y-12080007I30000J36974D01*
G03X16720009Y-12043032I-47614J0D01*
G01X16912395Y-11920006D02*
G03X17007623Y-11920006I47614J0D01*
G03X16912395Y-11920006I-47614J0D01*
G01X17265905Y-11297947D02*
G03X17345201Y-11312079I44105J17941D01*
G03X17323793Y-11234431I-35192J32073D01*
G03X17290315Y-11169232I-43783J18713D01*
G03X17232421Y-11214174I-10306J-46485D01*
G03X17190797Y-11279389I2589J-47544D01*
G03X17265905Y-11297947I44213J17672D01*
G01X17645010Y-11587620D02*
G03X17681985Y-11510006I0J47614D01*
G03X17645010Y-11432392I-36974J30000D01*
G03X17608036Y-11510006I0J-47614D01*
G03X17645010Y-11587620I36974J-30000D01*
G01X16854913Y-10737620D02*
G01X17254412Y-10737620D01*
G01X17362725Y-10845932D01*
G03X17369733Y-10865443I47240J5954D01*
G01X17270009Y-10865442D01*
G03X17261430Y-10866523I0J-34564D01*
G03X17217714Y-10842447I-41421J-23482D01*
G03X17186491Y-10773626I-41994J22441D01*
G03X17128134Y-10821645I-10770J-46380D01*
G03X17033201Y-10829007I-47414J-4361D01*
G03X17128306Y-10824367I47519J3001D01*
G03X17178015Y-10867565I47414J4361D01*
G03X17173652Y-10900872I41994J-22441D01*
G03X17192363Y-10928771I46358J10867D01*
G01X17176879Y-10944255D01*
G03X17112898Y-10901307I-47582J-1753D01*
G03X17091871Y-10975442I16399J-44701D01*
G01X17066724Y-10975442D01*
G03X17031388Y-10898440I-37427J29434D01*
G01X17001698Y-10868750D01*
G03X17007729Y-10786793I-20978J42744D01*
G03X16933307Y-10821645I-27008J-39213D01*
G03X16912730Y-10780794I-47586J1639D01*
G03X16867228Y-10776130I-27009J-39212D01*
G03X16854913Y-10737620I-47219J6124D01*
G01X16933943Y-10834892D02*
G01X16930948Y-10834892D01*
G03X16933135Y-10824367I-45227J14886D01*
G03X16933943Y-10834892I47586J-1639D01*
G01X17230002Y-10988895D02*
G03X17301941Y-11009279I44008J18176D01*
G03X17305000Y-10934570I-27931J38561D01*
G01X17355692Y-10934570D01*
G01X17506014Y-11084892D01*
G01X17135237Y-11084892D01*
G03X17130260Y-11044570I-45227J14886D01*
G01X17160009Y-11044570D01*
G03X17184450Y-11034446I0J34564D01*
G01X17230002Y-10988895D01*
G01X18346978Y-10692593D02*
G03X18328923Y-10722821I28953J-37800D01*
G03X18284629Y-10759294I2008J-47572D01*
G03X18307574Y-10811884I46302J-11099D01*
G03X18292530Y-10878386I24899J-40585D01*
G03X18359392Y-10891743I39942J25917D01*
G01X18215693Y-11035442D01*
G01X17554326Y-11035442D01*
G01X17406339Y-10887454D01*
G03X17457338Y-10844770I3627J47476D01*
G03X17415919Y-10792738I-47372J4792D01*
G01X17315774Y-10692593D01*
G01X18346978Y-10692593D01*
G01X17532395Y-10830006D02*
G03X17627624Y-10830006I47614J0D01*
G03X17532395Y-10830006I-47614J0D01*
G01X17998704Y-10908944D02*
G03X17919499Y-10875366I-47572J-2008D01*
G03X17943560Y-10957961I31633J-35587D01*
G03X18022765Y-10991540I47572J2008D01*
G03X17998704Y-10908944I-31633J35587D01*
G01X18179068Y-10896697D02*
G03X18274296Y-10896697I47614J0D01*
G03X18179068Y-10896697I-47614J0D01*
G01X17793985Y-12973849D02*
G03X17777578Y-13005352I30979J-36158D01*
G03X17768612Y-12977388I-47614J153D01*
G03X17793985Y-12973849I6353J47188D01*
G01X18360471Y-11202272D02*
G03X18380391Y-11123075I-13791J45573D01*
G03X18301142Y-11142789I-33712J-33624D01*
G03X18265816Y-11152392I-6133J-47218D01*
G01X18263580Y-11152392D01*
G03X18274839Y-11144835I-13570J32386D01*
G01X18454555Y-10965120D01*
G01X18481807Y-10965120D01*
G03X18444428Y-11017574I9871J-46580D01*
G03X18406800Y-11099143I-4465J-47404D01*
G03X18487213Y-11059104I33163J34166D01*
G03X18538748Y-11018880I4465J47404D01*
G03X18501550Y-10965120I-47070J7180D01*
G01X18905466Y-10965120D01*
G01X19117442Y-11177097D01*
G03X19198679Y-11208674I47568J2091D01*
G03X19167101Y-11127438I-33668J33668D01*
G01X18964233Y-10924570D01*
G01X19115693Y-10924570D01*
G01X19278682Y-11087558D01*
G01X19278682Y-11200520D01*
G03X19306059Y-11280336I34564J-32748D01*
G01X19306005Y-11280745D01*
G01X19264358Y-11322392D01*
G01X18480590Y-11322392D01*
G01X18360471Y-11202272D01*
G01X18710633Y-11071699D02*
G03X18805861Y-11071699I47614J0D01*
G03X18710633Y-11071699I-47614J0D01*
G01X18850632Y-11216699D02*
G03X18945861Y-11216699I47614J0D01*
G03X18850632Y-11216699I-47614J0D01*
G01X19377575Y-13005352D02*
G03X19368609Y-12977388I-47614J153D01*
G03X19393982Y-12973849I6353J47188D01*
G03X19377575Y-13005352I30979J-36158D01*
G04 Copper End*

G04 Pad Start*
G54D11*
G01X14894970Y-12734975D03*
G01X14894970Y-13314973D03*
G54D12*
G01X14945570Y-12592475D03*
G54D13*
G01X14527571Y-12592475D03*
G54D12*
G01X14945570Y-13457473D03*
G54D13*
G01X14527571Y-13457473D03*
G54D14*
G01X20069960Y-12844974D03*
G01X20069960Y-11254977D03*
G01X20619909Y-12844974D03*
G01X20619909Y-11254977D03*
G54D15*
G01X17267965Y-12861199D03*
G54D16*
G01X17267965Y-13397198D03*
G54D15*
G01X18131964Y-12861199D03*
G54D16*
G01X18131964Y-13397198D03*
G54D15*
G01X18867962Y-12861199D03*
G54D16*
G01X18867962Y-13397198D03*
G54D15*
G01X19731961Y-12861199D03*
G54D16*
G01X19731961Y-13397198D03*
G54D15*
G01X15742969Y-12861199D03*
G54D16*
G01X15742969Y-13397198D03*
G54D15*
G01X16606967Y-12861199D03*
G54D16*
G01X16606967Y-13397198D03*
G54D17*
G01X14985970Y-10742979D03*
G54D19*
G01X14449971Y-10742979D03*
G54D17*
G01X14985970Y-11606977D03*
G54D19*
G01X14449971Y-11606977D03*
G04 Pad End*

G04 Via Start*
G54D20*
G01X15949968Y-12925916D03*
G01X15999968Y-12967992D03*
G01X16250009Y-12660007D03*
G01X16190009Y-12660007D03*
G01X16400009Y-12927932D03*
G01X16350009Y-12970007D03*
G01X16069968Y-12875200D03*
G01X16129968Y-12875200D03*
G01X16214968Y-12880200D03*
G01X16144968Y-13005199D03*
G01X16204968Y-13005199D03*
G01X16249968Y-12930199D03*
G01X16049968Y-13010007D03*
G01X16070009Y-12730007D03*
G01X16130009Y-12730007D03*
G01X16299967Y-13010007D03*
G01X16179968Y-12364976D03*
G01X16059968Y-12434975D03*
G01X16134639Y-12434975D03*
G01X16296581Y-12434975D03*
G01X16221910Y-12434975D03*
G01X16139968Y-12294975D03*
G01X16261639Y-12294975D03*
G01X16569967Y-12244976D03*
G01X16569967Y-12324976D03*
G01X16569967Y-12404975D03*
G01X16569967Y-12484975D03*
G01X16330009Y-12130006D03*
G01X15990009Y-12620007D03*
G01X15960009Y-12450007D03*
G01X16190009Y-12745007D03*
G01X16245009Y-12720007D03*
G01X16303116Y-12740007D03*
G01X17474965Y-12925916D03*
G01X17524965Y-12967992D03*
G01X17574965Y-13010007D03*
G01X17594965Y-12875200D03*
G01X17595006Y-12730007D03*
G01X17654965Y-12875200D03*
G01X17655006Y-12730007D03*
G01X17669965Y-13005199D03*
G01X17715006Y-12660007D03*
G01X17729965Y-13005199D03*
G01X17739965Y-12880200D03*
G01X17774964Y-12930199D03*
G01X17775006Y-12660007D03*
G01X17824964Y-13010007D03*
G01X17875006Y-12970007D03*
G01X17925006Y-12927932D03*
G01X17704965Y-12364976D03*
G01X17584965Y-12434975D03*
G01X17659635Y-12434975D03*
G01X17821578Y-12434975D03*
G01X17746907Y-12434975D03*
G01X17664965Y-12294975D03*
G01X17786636Y-12294975D03*
G01X18094964Y-12244976D03*
G01X18094964Y-12324976D03*
G01X18094964Y-12404975D03*
G01X18094964Y-12484975D03*
G01X17515006Y-12620007D03*
G01X17485006Y-12450007D03*
G01X17715006Y-12745007D03*
G01X17828113Y-12740007D03*
G01X17770006Y-12720007D03*
G01X19074962Y-12925916D03*
G01X19124962Y-12967992D03*
G01X19174962Y-13010007D03*
G01X19194962Y-12875200D03*
G01X19195003Y-12730007D03*
G01X19254961Y-12875200D03*
G01X19255002Y-12730007D03*
G01X19269961Y-13005199D03*
G01X19315003Y-12660007D03*
G01X19329961Y-13005199D03*
G01X19339961Y-12880200D03*
G01X19374961Y-12930199D03*
G01X19375002Y-12660007D03*
G01X19424961Y-13010007D03*
G01X19475002Y-12970007D03*
G01X19525002Y-12927932D03*
G01X19304961Y-12364976D03*
G01X19184962Y-12434975D03*
G01X19259632Y-12434975D03*
G01X19421575Y-12434975D03*
G01X19346904Y-12434975D03*
G01X19264961Y-12294975D03*
G01X19386633Y-12294975D03*
G01X19694961Y-12244976D03*
G01X19694961Y-12324976D03*
G01X19694961Y-12404975D03*
G01X19694961Y-12484975D03*
G01X19115002Y-12620007D03*
G01X19085002Y-12450007D03*
G01X19315003Y-12745007D03*
G01X19428110Y-12740007D03*
G01X19370002Y-12720007D03*
G01X19455002Y-12130006D03*
G01X17855006Y-12130006D03*
G01X14921253Y-10949978D03*
G01X14879178Y-10999978D03*
G01X14837162Y-11049978D03*
G01X14841970Y-11144978D03*
G01X14841970Y-11204978D03*
G01X14916970Y-11249977D03*
G01X14837162Y-11299977D03*
G01X14877162Y-11350019D03*
G01X14919238Y-11400019D03*
G01X14971970Y-11069978D03*
G01X15227163Y-10990019D03*
G01X15117163Y-11070019D03*
G01X14971970Y-11129978D03*
G01X15117163Y-11130019D03*
G01X15102163Y-11190019D03*
G01X15187162Y-11190019D03*
G01X14966970Y-11214978D03*
G01X15127163Y-11245019D03*
G01X15187162Y-11250019D03*
G01X15107163Y-11303126D03*
G01X15397163Y-10960019D03*
G01X15412194Y-11059978D03*
G01X15412194Y-11134649D03*
G01X15412194Y-11221920D03*
G01X15412194Y-11296591D03*
G01X15362194Y-11569977D03*
G01X15500008Y-11570006D03*
G01X18233248Y-11383267D03*
G01X18403247Y-11213268D03*
G01X18548247Y-11068268D03*
G01X18701678Y-11128268D03*
G01X18841678Y-11273268D03*
G01X18811678Y-11571698D03*
G01X18348248Y-11541699D03*
G01X18646678Y-11736698D03*
G01X18603247Y-11791698D03*
G01X18176679Y-11326699D03*
G01X18346679Y-11156699D03*
G01X18491679Y-11011700D03*
G01X18758247Y-11071699D03*
G01X18898246Y-11216699D03*
G01X18868246Y-11628267D03*
G01X18546679Y-11848266D03*
G01X18703247Y-11793266D03*
G01X18291679Y-11598267D03*
G01X18300010Y-12310007D03*
G01X18240010Y-12310007D03*
G01X19959960Y-12493475D03*
G01X19959960Y-12563475D03*
G01X19345011Y-11860006D03*
G01X19345011Y-11800006D03*
G01X19454961Y-11524977D03*
G01X19454961Y-11584977D03*
G01X19959960Y-11979976D03*
G01X19959960Y-12119976D03*
G01X16750009Y-12080007D03*
G01X16690009Y-12080007D03*
G01X18840010Y-10770006D03*
G01X18900010Y-10770006D03*
G01X18980010Y-10770006D03*
G01X19040010Y-10770006D03*
G01X17645010Y-11480007D03*
G01X17645010Y-11540006D03*
G01X16535009Y-11555006D03*
G01X16535009Y-11615006D03*
G01X19214750Y-10896204D03*
G01X19264961Y-10944978D03*
G01X19190010Y-10800006D03*
G01X19143294Y-10846722D03*
G01X19250011Y-10820006D03*
G01X19300010Y-10870006D03*
G01X19350011Y-10920006D03*
G01X19400010Y-10970006D03*
G01X19400010Y-11030006D03*
G01X19235963Y-11072980D03*
G01X19084723Y-11024984D03*
G01X15482194Y-11179978D03*
G01X15552194Y-11139978D03*
G01X15552194Y-11261649D03*
G01X15070008Y-13200007D03*
G01X14970008Y-13050007D03*
G01X14970008Y-13150007D03*
G01X15070008Y-13100007D03*
G01X15070008Y-13000007D03*
G01X14970008Y-12950007D03*
G01X15070008Y-12900007D03*
G01X14970008Y-12850007D03*
G01X15389969Y-13370723D03*
G01X15339969Y-13330723D03*
G01X15289969Y-13370723D03*
G01X15239970Y-13330723D03*
G01X16876010Y-11170006D03*
G01X16825010Y-11225206D03*
G01X14384971Y-11857226D03*
G01X14654971Y-12042726D03*
G01X15010008Y-11710006D03*
G01X15073667Y-11710006D03*
G01X15073667Y-11773665D03*
G01X15010008Y-11773665D03*
G01X14871800Y-11780964D03*
G01X14808141Y-11780964D03*
G01X14871800Y-11844623D03*
G01X14808141Y-11844623D03*
G01X14871800Y-11908282D03*
G01X14808141Y-11908282D03*
G01X14935459Y-11908282D03*
G01X14999118Y-11908282D03*
G01X15062777Y-11908282D03*
G01X15073629Y-12066317D03*
G01X15073629Y-12129976D03*
G01X14798178Y-12150006D03*
G01X14798178Y-12070007D03*
G01X14861837Y-12070007D03*
G01X14861837Y-12150007D03*
G01X15047326Y-12298177D03*
G01X14983667Y-12298177D03*
G01X14920008Y-12298177D03*
G01X14856349Y-12298177D03*
G01X14792690Y-12298177D03*
G01X14983667Y-12361836D03*
G01X14983667Y-12489154D03*
G01X14920008Y-12489154D03*
G01X15047326Y-12361836D03*
G01X14788178Y-12500007D03*
G01X14851837Y-12500007D03*
G01X14851837Y-12436348D03*
G01X14788178Y-12436348D03*
G01X15060846Y-12438146D03*
G01X15060846Y-12501805D03*
G01X14544971Y-11857226D03*
G01X14604971Y-11857226D03*
G01X14544971Y-11797226D03*
G01X14604971Y-11797226D03*
G01X14667071Y-11735006D03*
G01X14604971Y-12080007D03*
G01X14434971Y-11805006D03*
G01X14334971Y-11805006D03*
G01X14384971Y-12049976D03*
G01X14484971Y-12042726D03*
G01X14484971Y-12109976D03*
G01X14417721Y-12109976D03*
G01X15060008Y-13350007D03*
G01X14980757Y-13350007D03*
G01X14980344Y-12704975D03*
G01X15059595Y-12704975D03*
G01X15396110Y-13210007D03*
G01X15452901Y-11782879D03*
G01X15452901Y-11720609D03*
G01X15452901Y-11845429D03*
G01X15512901Y-11815429D03*
G01X15512901Y-11752879D03*
G01X15392901Y-11814154D03*
G01X15392901Y-11751604D03*
G01X15595077Y-11747528D03*
G01X15657347Y-11747528D03*
G01X15719897Y-11747528D03*
G01X15595077Y-11897528D03*
G01X15657347Y-11897528D03*
G01X15719897Y-11897528D03*
G01X15590252Y-12290007D03*
G01X15560014Y-12149986D03*
G01X15260311Y-11730972D03*
G01X15320201Y-11730538D03*
G01X15565402Y-12397970D03*
G01X15565402Y-12460240D03*
G01X15565402Y-12522790D03*
G01X15645299Y-12632189D03*
G01X15726888Y-12631321D03*
G01X15314969Y-12697225D03*
G01X15382487Y-12057528D03*
G01X15527487Y-12072528D03*
G01X15276438Y-12058785D03*
G01X15276438Y-12125420D03*
G01X15276438Y-12192055D03*
G01X15449988Y-12278344D03*
G01X15449988Y-12344979D03*
G01X15449988Y-12211709D03*
G01X15449988Y-12145075D03*
G01X15359988Y-12345027D03*
G01X15293353Y-12345027D03*
G01X16885721Y-10820006D03*
G01X16929298Y-10946008D03*
G01X16980721Y-10826006D03*
G01X17029298Y-10946008D03*
G01X17080720Y-10826006D03*
G01X17129297Y-10946008D03*
G01X17175720Y-10820006D03*
G01X17274010Y-10970718D03*
G01X17220009Y-10890006D03*
G01X17154008Y-11169295D03*
G01X17280010Y-11215718D03*
G01X17214009Y-11070007D03*
G01X17129297Y-11315007D03*
G01X17235010Y-11261718D03*
G01X17080720Y-11195005D03*
G01X17029298Y-11315007D03*
G01X16980721Y-11195005D03*
G01X16939659Y-11350006D03*
G01X16950009Y-11130006D03*
G01X16786008Y-11019295D03*
G01X16934966Y-11014978D03*
G01X17390009Y-11068579D03*
G01X16730009Y-10850006D03*
G01X16725009Y-11010006D03*
G01X21159958Y-12814974D03*
G01X21089958Y-12884974D03*
G01X21159958Y-12954974D03*
G01X21029958Y-12815007D03*
G01X18439963Y-11064978D03*
G01X16820009Y-10770006D03*
G01X15264969Y-12920007D03*
G01X18230010Y-11285006D03*
G01X17580010Y-10830006D03*
G01X18279981Y-11249977D03*
G01X17844964Y-11329977D03*
G01X18332473Y-10852469D03*
G01X19614961Y-12244976D03*
G01X16489967Y-12244976D03*
G01X16489967Y-12324976D03*
G01X18014964Y-12244976D03*
G01X19165010Y-11175006D03*
G01X17180009Y-11400006D03*
G01X18070010Y-12170007D03*
G01X18014964Y-12324976D03*
G01X18689963Y-12983587D03*
G01X17310009Y-11280006D03*
G01X16970009Y-11070006D03*
G01X16780009Y-11080006D03*
G01X17089966Y-12979974D03*
G01X16960009Y-11920006D03*
G01X16720009Y-11129978D03*
G01X16670009Y-10680006D03*
G01X19615011Y-12325007D03*
G01X15610008Y-12890007D03*
G01X18639963Y-13439973D03*
G01X18709963Y-13439973D03*
G01X18709963Y-13509973D03*
G01X18639963Y-13509973D03*
G01X17039966Y-13439973D03*
G01X17109966Y-13439973D03*
G01X17109966Y-13509973D03*
G01X17039966Y-13509973D03*
G01X15514969Y-13439973D03*
G01X15584969Y-13439973D03*
G01X15584969Y-13509973D03*
G01X15514969Y-13509973D03*
G01X14344971Y-12379975D03*
G01X14414971Y-12449975D03*
G01X14344971Y-12449975D03*
G01X18894962Y-12239976D03*
G01X18954962Y-12239976D03*
G01X15460008Y-12725007D03*
G01X15405009Y-12767226D03*
G01X15335842Y-12793000D03*
G01X15250099Y-12792650D03*
G01X18634963Y-13219974D03*
G01X18634963Y-13294973D03*
G01X17033264Y-13219974D03*
G01X17033264Y-13294973D03*
G01X15513267Y-13219974D03*
G01X15513267Y-13294973D03*
G01X18745010Y-10720006D03*
G01X18805010Y-10720006D03*
G01X18330931Y-10770393D03*
G01X18375931Y-10730393D03*
G01X17991132Y-10955953D03*
G01X17951132Y-10910953D03*
G01X19313246Y-11233268D03*
G01X17030009Y-11010006D03*
G01X16750009Y-10770006D03*
G01X15220008Y-10740006D03*
G01X19920011Y-12320007D03*
G01X20000011Y-12380007D03*
G01X19917213Y-12380007D03*
G01X20000011Y-12320007D03*
G01X19690011Y-12105006D03*
G01X15293912Y-12424826D03*
G01X15407134Y-12431486D03*
G01X15414132Y-12500751D03*
G01X15352193Y-12497422D03*
G01X15288584Y-12498088D03*
G01X15314969Y-12872724D03*
G01X17090009Y-11070006D03*
G01X17409965Y-10839978D03*
G01X17851680Y-11256699D03*
G01X17894964Y-11384977D03*
G01X18226682Y-10896697D03*
G01X18295010Y-11190006D03*
G01X19353246Y-11286699D03*
G01X18778294Y-12088291D03*
G01X19720011Y-11280006D03*
G01X15930009Y-11070006D03*
G01X15695363Y-10804978D03*
G01X19757507Y-11826953D03*
G01X19025226Y-12383823D03*
G01X18530290Y-13048495D03*
G01X17374015Y-12375162D03*
G01X15514969Y-13024974D03*
G01X15560009Y-12617361D03*
G01X15279969Y-12609975D03*
G01X15233212Y-12659975D03*
G01X15720008Y-12260007D03*
G01X15720008Y-12430007D03*
G01X15720008Y-12506470D03*
G01X15862039Y-12384975D03*
G01X16890009Y-13050007D03*
G01X15510008Y-10800006D03*
G01X14370008Y-10860006D03*
G01X14370008Y-10938364D03*
G01X14370008Y-11016721D03*
G01X14370008Y-11095079D03*
G01X14370008Y-11173437D03*
G01X14370008Y-11251795D03*
G01X14370008Y-11330152D03*
G01X14370008Y-11408510D03*
G01X14370008Y-11486868D03*
G01X14443823Y-11488409D03*
G01X14443823Y-11410051D03*
G01X14443823Y-11331693D03*
G01X14443823Y-11174978D03*
G01X14443823Y-11096620D03*
G01X14443823Y-11018262D03*
G01X14443823Y-10939904D03*
G01X14443823Y-10861547D03*
G01X14443823Y-11253335D03*
G01X14520248Y-11488409D03*
G01X14520248Y-11410051D03*
G01X14520248Y-11331693D03*
G01X14520248Y-11174978D03*
G01X14520248Y-11096620D03*
G01X14520248Y-11018262D03*
G01X14520248Y-10939904D03*
G01X14520248Y-10861547D03*
G01X14520248Y-11253335D03*
G01X16488399Y-13485864D03*
G01X16410041Y-13485864D03*
G01X16331683Y-13485864D03*
G01X16174968Y-13485864D03*
G01X16096610Y-13485864D03*
G01X16018252Y-13485864D03*
G01X15939894Y-13485864D03*
G01X15861537Y-13485864D03*
G01X16253325Y-13485864D03*
G01X16488399Y-13409439D03*
G01X16410041Y-13409439D03*
G01X16331683Y-13409439D03*
G01X16174968Y-13409439D03*
G01X16096610Y-13409439D03*
G01X16018252Y-13409439D03*
G01X15939894Y-13409439D03*
G01X15861537Y-13409439D03*
G01X16253325Y-13409439D03*
G01X16488399Y-13336011D03*
G01X16410041Y-13336011D03*
G01X16331683Y-13336011D03*
G01X16174968Y-13336011D03*
G01X16096610Y-13336011D03*
G01X16018252Y-13336011D03*
G01X15939894Y-13336011D03*
G01X15861537Y-13336011D03*
G01X16253325Y-13336011D03*
G01X18013396Y-13483241D03*
G01X17935038Y-13483241D03*
G01X17856680Y-13483241D03*
G01X17699965Y-13483241D03*
G01X17621607Y-13483241D03*
G01X17543249Y-13483241D03*
G01X17464891Y-13483241D03*
G01X17386534Y-13483241D03*
G01X17778322Y-13483241D03*
G01X18013396Y-13399323D03*
G01X17935038Y-13399323D03*
G01X17856680Y-13399323D03*
G01X17699965Y-13399323D03*
G01X17621607Y-13399323D03*
G01X17543249Y-13399323D03*
G01X17464891Y-13399323D03*
G01X17386534Y-13399323D03*
G01X17778322Y-13399323D03*
G01X18013396Y-13318403D03*
G01X17935038Y-13318403D03*
G01X17856680Y-13318403D03*
G01X17699965Y-13318403D03*
G01X17621607Y-13318403D03*
G01X17543249Y-13318403D03*
G01X17464891Y-13318403D03*
G01X17386534Y-13318403D03*
G01X17778322Y-13318403D03*
G01X19613392Y-13474749D03*
G01X19535035Y-13474749D03*
G01X19456677Y-13474749D03*
G01X19299961Y-13474749D03*
G01X19221604Y-13474749D03*
G01X19143246Y-13474749D03*
G01X19064888Y-13474749D03*
G01X18986530Y-13474749D03*
G01X19378319Y-13474749D03*
G01X19613392Y-13399823D03*
G01X19535035Y-13399823D03*
G01X19456677Y-13399823D03*
G01X19299961Y-13399823D03*
G01X19221604Y-13399823D03*
G01X19143246Y-13399823D03*
G01X19064888Y-13399823D03*
G01X18986530Y-13399823D03*
G01X19378319Y-13399823D03*
G01X19613392Y-13324896D03*
G01X19535035Y-13324896D03*
G01X19456677Y-13324896D03*
G01X19299961Y-13324896D03*
G01X19221604Y-13324896D03*
G01X19143246Y-13324896D03*
G01X19064888Y-13324896D03*
G01X18986530Y-13324896D03*
G01X19378319Y-13324896D03*
G01X16480009Y-11645006D03*
G01X16479079Y-11529006D03*
G01X16780009Y-12025006D03*
G01X16780009Y-12135007D03*
G01X16660009Y-12135007D03*
G01X16660009Y-12025006D03*
G01X18330010Y-12365007D03*
G01X18330010Y-12255006D03*
G01X18210010Y-12365007D03*
G01X18210010Y-12255006D03*
G01X18864962Y-12294976D03*
G01X19400011Y-11770006D03*
G01X19290011Y-11770006D03*
G01X19290011Y-11890006D03*
G01X19400011Y-11890006D03*
G01X19510011Y-11555006D03*
G01X19399961Y-11609977D03*
G01X19964960Y-12634975D03*
G01X19960011Y-11470006D03*
G01X19959960Y-11665683D03*
G01X17700010Y-11450006D03*
G01X18015010Y-10895006D03*
G01X18050010Y-10970006D03*
G01X18440010Y-10740006D03*
G01X18870010Y-10715006D03*
G01X19010010Y-10715006D03*
G01X18940010Y-10720006D03*
G01X18940010Y-10819440D03*
G01X19079843Y-10819440D03*
G01X19079843Y-10715246D03*
G01X18680680Y-10720006D03*
G01X16396489Y-13024512D03*
G01X17921486Y-13024512D03*
G01X19521483Y-13024512D03*
G01X19959960Y-11749976D03*
G01X16900009Y-13187157D03*
G01X15344969Y-12969974D03*
G01X15460008Y-12855007D03*
G01X15385009Y-12870007D03*
G01X15181971Y-13268044D03*
G01X15420008Y-13265007D03*
G01X18769962Y-12939974D03*
G01X18530010Y-13185007D03*
G01X18954867Y-12950199D03*
G01X15424615Y-12619975D03*
G01X15630013Y-12164986D03*
G01X19520010Y-11940006D03*
G01X16970009Y-11420006D03*
G01X17080009Y-10750006D03*
G04 Via End*

G04 Track Start*
G54D21*
G01X17029298Y-10946008D02*
G01X16953296Y-10870006D01*
G01X16810009Y-10870006D01*
G01X16740009Y-10940006D01*
G01X15830008Y-10940006D02*
G01X15780009Y-10990006D01*
G01X15780009Y-11590006D01*
G01X15730008Y-11640006D01*
G01X15210008Y-11640006D01*
G01X15150008Y-11700006D01*
G01X15150008Y-11930006D01*
G01X15100008Y-11980007D01*
G01X14640008Y-11980007D01*
G01X14604971Y-12015044D02*
G01X14604971Y-12080007D01*
G01X16740009Y-10940006D02*
G01X15830008Y-10940006D01*
G01X14640008Y-11980007D02*
G01X14604971Y-12015044D01*
G01X17129297Y-11490718D02*
G01X17129297Y-11315007D01*
G01X16489967Y-12244976D02*
G01X16590009Y-12144934D01*
G01X16590009Y-12030006D01*
G01X17129297Y-11490718D01*
G01X16489967Y-12324976D02*
G01X16440009Y-12275017D01*
G01X16440009Y-12220007D01*
G01X17080720Y-11479295D02*
G01X17080720Y-11195005D01*
G01X16550009Y-12010006D02*
G01X17080720Y-11479295D01*
G01X16550009Y-12110007D02*
G01X16550009Y-12010006D01*
G01X16440009Y-12220007D02*
G01X16550009Y-12110007D01*
G01X16939659Y-11350006D02*
G01X16939659Y-11300356D01*
G01X17030009Y-11150006D02*
G01X17060009Y-11120006D01*
G01X18250010Y-11120006D01*
G01X16939659Y-11300356D02*
G01X17030009Y-11210006D01*
G01X17030009Y-11150006D01*
G01X18250010Y-11120006D02*
G01X18440010Y-10930006D01*
G01X18920010Y-10930006D01*
G01X19165010Y-11175006D01*
G01X19587484Y-10657479D02*
G01X19630011Y-10700006D01*
G01X19630011Y-12110007D01*
G01X19560011Y-12180007D01*
G01X19560011Y-12270007D01*
G01X19615011Y-12325007D01*
G01X16934966Y-11014978D02*
G01X15790009Y-12159936D01*
G01X15740008Y-12700007D02*
G01X15660009Y-12700007D01*
G01X15790009Y-12650007D02*
G01X15740008Y-12700007D01*
G01X15610008Y-12750007D02*
G01X15610008Y-12890007D01*
G01X15660009Y-12700007D02*
G01X15610008Y-12750007D01*
G01X15790009Y-12159936D02*
G01X15790009Y-12650007D01*
G54D22*
G01X19313246Y-11233268D02*
G01X19313246Y-11073241D01*
G01X17540009Y-11070006D02*
G01X17370009Y-10900006D01*
G01X17270009Y-10900006D01*
G01X17160009Y-11010006D02*
G01X17030009Y-11010006D01*
G01X19313246Y-11073241D02*
G01X19130010Y-10890006D01*
G01X18410010Y-10890006D01*
G01X18230010Y-11070006D01*
G01X17540009Y-11070006D01*
G01X17270009Y-10900006D02*
G01X17160009Y-11010006D01*
G01X15220008Y-10740006D02*
G01X15030008Y-10930006D01*
G01X15030008Y-11117864D02*
G01X15102163Y-11190019D01*
G01X15030008Y-10930006D02*
G01X15030008Y-11117864D01*
G54D21*
G01X16670009Y-10680006D02*
G01X16692536Y-10657479D01*
G01X19587484Y-10657479D01*
G54D23*
G01X17409965Y-10839978D02*
G01X17269993Y-10700006D01*
G01X15734969Y-11415046D02*
G01X15650009Y-11500006D01*
G01X15283667Y-11500006D01*
G01X15073667Y-11710006D01*
G01X17269993Y-10700006D02*
G01X16739939Y-10700006D01*
G01X16614967Y-10824978D01*
G01X15869968Y-10824978D01*
G01X15734969Y-10959978D01*
G01X15734969Y-11415046D01*
G01X17851680Y-11256699D02*
G01X17894964Y-11299983D01*
G01X17894964Y-11384977D01*
G01X17851680Y-11256699D02*
G01X17918373Y-11190006D01*
G01X18295010Y-11190006D01*
G01X19279938Y-11360006D02*
G01X19353246Y-11286699D01*
G01X18295010Y-11190006D02*
G01X18465010Y-11360006D01*
G01X19279938Y-11360006D01*
G01X18778294Y-12088291D02*
G01X19279938Y-11586647D01*
G01X19279938Y-11360006D01*
G01X18465010Y-11360006D02*
G01X16950009Y-12875007D01*
G01X17009975Y-13439973D02*
G01X16950009Y-13380007D01*
G01X17039966Y-13439973D02*
G01X17009975Y-13439973D01*
G01X18340758Y-13140768D02*
G01X18639963Y-13439973D01*
G01X16950009Y-13140768D02*
G01X18340758Y-13140768D01*
G01X16950009Y-12875007D02*
G01X16950009Y-13140768D01*
G01X16950009Y-13380007D02*
G01X16950009Y-13154910D01*
G01X16935867Y-13140768D01*
G01X15580008Y-13350007D02*
G01X15514969Y-13415047D01*
G01X15514969Y-13439973D01*
G01X16935867Y-13140768D02*
G01X15669248Y-13140768D01*
G01X15580008Y-13230007D01*
G01X15580008Y-13350007D01*
G01X19980011Y-12990007D02*
G01X19870011Y-12880007D01*
G01X19870011Y-11430006D01*
G01X19720011Y-11280006D01*
G54D24*
G01X15862039Y-12384975D02*
G01X15862039Y-12187976D01*
G01X15940009Y-12110007D01*
G01X16190009Y-12110007D01*
G01X16390009Y-12310007D01*
G01X17020009Y-12650007D02*
G01X17294853Y-12375162D01*
G01X17374015Y-12375162D01*
G01X17020009Y-12650007D02*
G01X16850009Y-12820007D01*
G01X16850009Y-13010007D01*
G01X16890009Y-13050007D01*
G01X16390009Y-12310007D02*
G01X16390009Y-12480007D01*
G01X16500009Y-12590007D01*
G01X16960009Y-12590007D01*
G01X17020009Y-12650007D01*
G54D25*
G01X17739965Y-12880200D02*
G01X17705320Y-12914844D01*
G01X17705320Y-12919844D01*
G01X16214968Y-12880200D02*
G01X16180323Y-12914844D01*
G01X16180323Y-12919844D01*
G01X19339961Y-12880200D02*
G01X19305317Y-12914844D01*
G01X19305317Y-12919844D01*
G01X14966970Y-11214978D02*
G01X14932325Y-11180333D01*
G01X14927325Y-11180333D01*
G54D23*
G01X21029958Y-12815007D02*
G01X20854958Y-12990007D01*
G01X19980011Y-12990007D01*
G54D25*
G01X16180323Y-12919844D02*
G03X16144968Y-13005199I85355J-85355D01*
G01X17705320Y-12919844D02*
G03X17669965Y-13005199I85355J-85355D01*
G01X19305317Y-12919844D02*
G03X19269961Y-13005199I85355J-85355D01*
G01X14927325Y-11180333D02*
G03X14841970Y-11144978I-85355J-85355D01*
G04 Track End*

M02*

