G04 Layer: CustomLayer3*
G04 EasyEDA Pro v2.2.24.2, 2024-07-29 14:19:07*
G04 Gerber Generator version 0.3*
G04 Scale: 100 percent, Rotated: No, Reflected: No*
G04 Dimensions in millimeters*
G04 Leading zeros omitted, absolute positions, 3 integers and 5 decimals*
%FSLAX35Y35*%
%MOMM*%
%ADD10C,0.254*%
G75*


G04 PolygonModel Start*
G54D10*
G01X15050570Y-12583475D02*
G01X15054812Y-12581717D01*
G01X15056570Y-12577475D01*
G01X15054812Y-12573232D01*
G01X15050570Y-12571475D01*
G01X15046327Y-12573232D01*
G01X15044570Y-12577475D01*
G01X15046327Y-12581717D01*
G01X15050570Y-12583475D01*
G01X19920010Y-12853974D02*
G01X19915768Y-12855732D01*
G01X19914010Y-12859974D01*
G01X19915768Y-12864217D01*
G01X19920010Y-12865974D01*
G01X19924253Y-12864217D01*
G01X19926010Y-12859974D01*
G01X19924253Y-12855732D01*
G01X19920010Y-12853974D01*
G01X18599963Y-13213974D02*
G01X18595720Y-13215731D01*
G01X18593963Y-13219974D01*
G01X18595720Y-13224216D01*
G01X18599963Y-13225974D01*
G01X18604205Y-13224216D01*
G01X18605963Y-13219974D01*
G01X18604205Y-13215731D01*
G01X18599963Y-13213974D01*
G01X15960968Y-12539975D02*
G01X15959211Y-12535733D01*
G01X15954968Y-12533975D01*
G01X15950726Y-12535733D01*
G01X15948968Y-12539975D01*
G01X15950726Y-12544218D01*
G01X15954968Y-12545975D01*
G01X15959211Y-12544218D01*
G01X15960968Y-12539975D01*
G01X17257965Y-12803699D02*
G01X17256208Y-12799457D01*
G01X17251965Y-12797699D01*
G01X17247723Y-12799457D01*
G01X17245966Y-12803699D01*
G01X17247723Y-12807942D01*
G01X17251965Y-12809699D01*
G01X17256208Y-12807942D01*
G01X17257965Y-12803699D01*
G01X15146009Y-13360007D02*
G01X15144251Y-13355764D01*
G01X15140009Y-13354007D01*
G01X15135766Y-13355764D01*
G01X15134009Y-13360007D01*
G01X15135766Y-13364249D01*
G01X15140009Y-13366007D01*
G01X15144251Y-13364249D01*
G01X15146009Y-13360007D01*
G01X18857962Y-12803699D02*
G01X18856205Y-12799457D01*
G01X18851962Y-12797699D01*
G01X18847720Y-12799457D01*
G01X18845962Y-12803699D01*
G01X18847720Y-12807942D01*
G01X18851962Y-12809699D01*
G01X18856205Y-12807942D01*
G01X18857962Y-12803699D01*
G01X14993970Y-11819976D02*
G01X14995727Y-11824219D01*
G01X14999970Y-11825976D01*
G01X15004213Y-11824219D01*
G01X15005970Y-11819976D01*
G01X15004213Y-11815734D01*
G01X14999970Y-11813976D01*
G01X14995727Y-11815734D01*
G01X14993970Y-11819976D01*
G01X15732969Y-12803699D02*
G01X15731211Y-12799457D01*
G01X15726969Y-12797699D01*
G01X15722726Y-12799457D01*
G01X15720969Y-12803699D01*
G01X15722726Y-12807942D01*
G01X15726969Y-12809699D01*
G01X15731211Y-12807942D01*
G01X15732969Y-12803699D01*
G01X14535971Y-12049976D02*
G01X14534214Y-12045733D01*
G01X14529971Y-12043976D01*
G01X14525728Y-12045733D01*
G01X14523971Y-12049976D01*
G01X14525728Y-12054218D01*
G01X14529971Y-12055976D01*
G01X14534214Y-12054218D01*
G01X14535971Y-12049976D01*
G01X15043470Y-10732979D02*
G01X15047713Y-10731221D01*
G01X15049470Y-10726979D01*
G01X15047713Y-10722736D01*
G01X15043470Y-10720979D01*
G01X15039227Y-10722736D01*
G01X15037470Y-10726979D01*
G01X15039227Y-10731221D01*
G01X15043470Y-10732979D01*
G01X14503971Y-11849976D02*
G01X14505728Y-11854219D01*
G01X14509971Y-11855976D01*
G01X14514214Y-11854219D01*
G01X14515971Y-11849976D01*
G01X14514214Y-11845734D01*
G01X14509971Y-11843976D01*
G01X14505728Y-11845734D01*
G01X14503971Y-11849976D01*
G01X14885970Y-12379975D02*
G01X14884213Y-12375733D01*
G01X14879970Y-12373975D01*
G01X14875728Y-12375733D01*
G01X14873970Y-12379975D01*
G01X14875728Y-12384218D01*
G01X14879970Y-12385975D01*
G01X14884213Y-12384218D01*
G01X14885970Y-12379975D01*
G01X15479969Y-13213974D02*
G01X15475726Y-13215731D01*
G01X15473969Y-13219974D01*
G01X15475726Y-13224216D01*
G01X15479969Y-13225974D01*
G01X15484212Y-13224216D01*
G01X15485969Y-13219974D01*
G01X15484212Y-13215731D01*
G01X15479969Y-13213974D01*
G01X16999966Y-13213974D02*
G01X16995723Y-13215731D01*
G01X16993966Y-13219974D01*
G01X16995723Y-13224216D01*
G01X16999966Y-13225974D01*
G01X17004209Y-13224216D01*
G01X17005966Y-13219974D01*
G01X17004209Y-13215731D01*
G01X16999966Y-13213974D01*
G01X15195970Y-12889974D02*
G01X15194212Y-12885732D01*
G01X15189970Y-12883974D01*
G01X15185727Y-12885732D01*
G01X15183970Y-12889974D01*
G01X15185727Y-12894217D01*
G01X15189970Y-12895974D01*
G01X15194212Y-12894217D01*
G01X15195970Y-12889974D01*
G01X17485965Y-12539975D02*
G01X17484208Y-12535733D01*
G01X17479965Y-12533975D01*
G01X17475722Y-12535733D01*
G01X17473965Y-12539975D01*
G01X17475722Y-12544218D01*
G01X17479965Y-12545975D01*
G01X17484208Y-12544218D01*
G01X17485965Y-12539975D01*
G01X19085962Y-12540271D02*
G01X19084204Y-12536028D01*
G01X19079962Y-12534271D01*
G01X19075719Y-12536028D01*
G01X19073962Y-12540271D01*
G01X19075719Y-12544514D01*
G01X19079962Y-12546271D01*
G01X19084204Y-12544514D01*
G01X19085962Y-12540271D01*
G01X15307194Y-10960978D02*
G01X15311437Y-10959221D01*
G01X15313194Y-10954978D01*
G01X15311437Y-10950736D01*
G01X15307194Y-10948978D01*
G01X15302952Y-10950736D01*
G01X15301194Y-10954978D01*
G01X15302952Y-10959221D01*
G01X15307194Y-10960978D01*

M02*

