G04 EasyEDA Pro v2.2.22.1, 2024-08-16 18:46:04*
G04 Gerber Generator version 0.3*G04*
G04 #@! TF.GenerationSoftware,Altium Limited,Altium Designer,22.10.1 (41)*
G04*
G04 Layer_Color=65535*
%FSLAX25Y25*%
%MOIN*%
G70*
G04*
G04 #@! TF.SameCoordinates,35FDAC58-FA5E-4571-A4AC-5025684A0D72*
G04*
G04*
G04 #@! TF.FilePolarity,Positive*
G04*
G01*
G75*
%ADD10C,0.00787*%
%ADD11C,0.00500*%
%ADD12C,0.00600*%
D10*
X-97654Y-21850D02*
Y-19094D01*
X-99032Y-20472D02*
X-96276D01*
X-99032Y20472D02*
X-96276D01*
X-97654Y19094D02*
Y21850D01*
X-81906Y-24409D02*
X-81906Y-19488D01*
X-97654Y-24409D02*
X-81906D01*
X-97654Y24409D02*
X-81906D01*
X-81906Y19488D01*
X-97654Y17717D02*
X-93717D01*
Y15748D02*
Y17717D01*
X-95685Y15748D02*
Y17717D01*
X-97654Y15748D02*
Y17717D01*
Y12795D02*
X-93717D01*
X-97654D02*
X-96669Y11811D01*
X-93717D02*
Y13780D01*
X-97654Y-16732D02*
X-93717D01*
X-97654D02*
X-96669Y-17717D01*
X-93717D02*
Y-15748D01*
D11*
X-20058Y-26600D02*
Y26600D01*
X-130358Y-26600D02*
Y26600D01*
Y-26600D02*
X-20058D01*
X-130358Y26600D02*
X-20058D01*
D12*
X-112099Y-18078D02*
Y-19244D01*
Y-18661D01*
X-109183D01*
X-108600Y-19244D01*
Y-19827D01*
X-109183Y-20410D01*
X-112099Y-16911D02*
X-108600D01*
Y-14579D01*
X-111516Y-11080D02*
X-112099Y-11663D01*
Y-12829D01*
X-111516Y-13412D01*
X-109183D01*
X-108600Y-12829D01*
Y-11663D01*
X-109183Y-11080D01*
X-112099Y-7581D02*
Y-8747D01*
Y-8164D01*
X-109183D01*
X-108600Y-8747D01*
Y-9330D01*
X-109183Y-9913D01*
X-112099Y-6415D02*
X-108600D01*
Y-4082D01*
X-111516Y-583D02*
X-112099Y-1166D01*
Y-2333D01*
X-111516Y-2916D01*
X-109183D01*
X-108600Y-2333D01*
Y-1166D01*
X-109183Y-583D01*
X-112099Y2916D02*
Y1749D01*
Y2333D01*
X-109183D01*
X-108600Y1749D01*
Y1166D01*
X-109183Y583D01*
X-112099Y4082D02*
X-108600D01*
Y6415D01*
X-111516Y9913D02*
X-112099Y9330D01*
Y8164D01*
X-111516Y7581D01*
X-109183D01*
X-108600Y8164D01*
Y9330D01*
X-109183Y9913D01*
X-112099Y13412D02*
Y12246D01*
Y12829D01*
X-109183D01*
X-108600Y12246D01*
Y11663D01*
X-109183Y11080D01*
X-112099Y14579D02*
X-108600D01*
Y16911D01*
X-111516Y20410D02*
X-112099Y19827D01*
Y18661D01*
X-111516Y18078D01*
X-109183D01*
X-108600Y18661D01*
Y19827D01*
X-109183Y20410D01*
M02*
