G04 Layer: CustomLayer2*
G04 EasyEDA Pro v2.2.24.2, 2024-07-29 14:19:07*
G04 Gerber Generator version 0.3*
G04 Scale: 100 percent, Rotated: No, Reflected: No*
G04 Dimensions in millimeters*
G04 Leading zeros omitted, absolute positions, 3 integers and 5 decimals*
%FSLAX35Y35*%
%MOMM*%
%ADD10C,0.051*%
G75*


G04 PolygonModel Start*
G54D10*
G01X14265571Y-12577975D02*
G01X15000570Y-12577975D01*
G01X14265571Y-13471973D02*
G01X14265571Y-12577975D01*
G01X15000570Y-12577975D02*
G01X15000570Y-13471973D01*
G01X15000570Y-13471973D02*
G01X14265571Y-13471973D01*
G01X15352901Y-11725380D02*
G01X15552901Y-11725380D01*
G01X15352901Y-11925379D02*
G01X15352901Y-11725380D01*
G01X15552901Y-11725380D02*
G01X15552901Y-11925379D01*
G01X15552901Y-11925379D02*
G01X15352901Y-11925379D01*
G01X20019960Y-11394977D02*
G01X21239958Y-11394977D01*
G01X20019960Y-12704975D02*
G01X20019960Y-11394977D01*
G01X21239958Y-11394977D02*
G01X21239958Y-12704975D01*
G01X21239958Y-12704975D02*
G01X20019960Y-12704975D01*
G01X18599963Y-13019974D02*
G01X18799962Y-13019974D01*
G01X18599963Y-13219974D02*
G01X18599963Y-13019974D01*
G01X18799962Y-13019974D02*
G01X18799962Y-13219974D01*
G01X18799962Y-13219974D02*
G01X18599963Y-13219974D01*
G01X15954968Y-12189976D02*
G01X16404967Y-12189976D01*
G01X15954968Y-12539975D02*
G01X15954968Y-12189976D01*
G01X16404967Y-12189976D02*
G01X16404967Y-12539975D01*
G01X16404967Y-12539975D02*
G01X15954968Y-12539975D01*
G01X15665402Y-12517880D02*
G01X15465402Y-12517880D01*
G01X15665402Y-12317880D02*
G01X15665402Y-12517880D01*
G01X15465402Y-12517880D02*
G01X15465402Y-12317880D01*
G01X15465402Y-12317880D02*
G01X15665402Y-12317880D01*
G01X17251965Y-13591198D02*
G01X18149964Y-13591198D01*
G01X17253965Y-12812199D02*
G01X17253965Y-13589198D01*
G01X17253965Y-13589198D02*
G01X17251965Y-13591198D01*
G01X17254965Y-12811199D02*
G01X17253965Y-12812199D01*
G01X18147964Y-12811199D02*
G01X17254965Y-12811199D01*
G01X18149964Y-12813199D02*
G01X18147964Y-12811199D01*
G01X18149964Y-13591198D02*
G01X18149964Y-12813199D01*
G01X15140009Y-13060007D02*
G01X15440008Y-13060007D01*
G01X15140009Y-13360007D02*
G01X15140009Y-13060007D01*
G01X15440008Y-13060007D02*
G01X15440008Y-13360007D01*
G01X15440008Y-13360007D02*
G01X15140009Y-13360007D01*
G01X18851962Y-13591198D02*
G01X19749961Y-13591198D01*
G01X18853962Y-12812199D02*
G01X18853962Y-13589198D01*
G01X18853962Y-13589198D02*
G01X18851962Y-13591198D01*
G01X18854962Y-12811199D02*
G01X18853962Y-12812199D01*
G01X19747961Y-12811199D02*
G01X18854962Y-12811199D01*
G01X19749961Y-12813199D02*
G01X19747961Y-12811199D01*
G01X19749961Y-13591198D02*
G01X19749961Y-12813199D01*
G01X14879970Y-11819976D02*
G01X14999970Y-11819976D01*
G01X14879970Y-11979976D02*
G01X14879970Y-11819976D01*
G01X14999970Y-11819976D02*
G01X14999970Y-11979976D01*
G01X14999970Y-11979976D02*
G01X14879970Y-11979976D01*
G01X15726969Y-13591198D02*
G01X16624967Y-13591198D01*
G01X15728969Y-12812199D02*
G01X15728969Y-13589198D01*
G01X15728969Y-13589198D02*
G01X15726969Y-13591198D01*
G01X15729969Y-12811199D02*
G01X15728969Y-12812199D01*
G01X16622967Y-12811199D02*
G01X15729969Y-12811199D01*
G01X16624967Y-12813199D02*
G01X16622967Y-12811199D01*
G01X16624967Y-13591198D02*
G01X16624967Y-12813199D01*
G01X14529971Y-11849976D02*
G01X14729971Y-11849976D01*
G01X14529971Y-12049976D02*
G01X14529971Y-11849976D01*
G01X14729971Y-11849976D02*
G01X14729971Y-12049976D01*
G01X14729971Y-12049976D02*
G01X14529971Y-12049976D01*
G01X14255971Y-10726979D02*
G01X14255971Y-11624977D01*
G01X14255971Y-11624977D02*
G01X15033970Y-11624977D01*
G01X14257971Y-10728979D02*
G01X14255971Y-10726979D01*
G01X15033970Y-11624977D02*
G01X15035970Y-11622977D01*
G01X15034970Y-10728979D02*
G01X14257971Y-10728979D01*
G01X15035970Y-10729979D02*
G01X15034970Y-10728979D01*
G01X15035970Y-11622977D02*
G01X15035970Y-10729979D01*
G01X14309971Y-11849976D02*
G01X14509971Y-11849976D01*
G01X14309971Y-12049976D02*
G01X14309971Y-11849976D01*
G01X14509971Y-11849976D02*
G01X14509971Y-12049976D01*
G01X14509971Y-12049976D02*
G01X14309971Y-12049976D01*
G01X14879970Y-12219976D02*
G01X14999970Y-12219976D01*
G01X14879970Y-12379975D02*
G01X14879970Y-12219976D01*
G01X14999970Y-12219976D02*
G01X14999970Y-12379975D01*
G01X14999970Y-12379975D02*
G01X14879970Y-12379975D01*
G01X15479969Y-13019974D02*
G01X15679969Y-13019974D01*
G01X15479969Y-13219974D02*
G01X15479969Y-13019974D01*
G01X15679969Y-13019974D02*
G01X15679969Y-13219974D01*
G01X15679969Y-13219974D02*
G01X15479969Y-13219974D01*
G01X16999966Y-13019974D02*
G01X17199966Y-13019974D01*
G01X16999966Y-13219974D02*
G01X16999966Y-13019974D01*
G01X17199966Y-13019974D02*
G01X17199966Y-13219974D01*
G01X17199966Y-13219974D02*
G01X16999966Y-13219974D01*
G01X15189970Y-12689975D02*
G01X15389969Y-12689975D01*
G01X15189970Y-12889974D02*
G01X15189970Y-12689975D01*
G01X15389969Y-12689975D02*
G01X15389969Y-12889974D01*
G01X15389969Y-12889974D02*
G01X15189970Y-12889974D01*
G01X17479965Y-12189976D02*
G01X17929964Y-12189976D01*
G01X17479965Y-12539975D02*
G01X17479965Y-12189976D01*
G01X17929964Y-12189976D02*
G01X17929964Y-12539975D01*
G01X17929964Y-12539975D02*
G01X17479965Y-12539975D01*
G01X19079962Y-12190272D02*
G01X19529961Y-12190272D01*
G01X19079962Y-12540271D02*
G01X19079962Y-12190272D01*
G01X19529961Y-12190272D02*
G01X19529961Y-12540271D01*
G01X19529961Y-12540271D02*
G01X19079962Y-12540271D01*
G01X15657193Y-10954978D02*
G01X15657193Y-11404977D01*
G01X15307194Y-10954978D02*
G01X15657193Y-10954978D01*
G01X15657193Y-11404977D02*
G01X15307194Y-11404977D01*
G01X15307194Y-11404977D02*
G01X15307194Y-10954978D01*

M02*

