G04 Layer: DrillDrawingLayer*
G04 EasyEDA Pro v2.2.24.2, 2024-07-29 14:19:07*
G04 Gerber Generator version 0.3*
G04 Scale: 100 percent, Rotated: No, Reflected: No*
G04 Dimensions in millimeters*
G04 Leading zeros omitted, absolute positions, 3 integers and 5 decimals*
%FSLAX35Y35*%
%MOMM*%
%AMIconRect*4,1,4,0.2,-0.2,-0.2,-0.2,-0.2,0.2,0.2,0.2,0.2,-0.2,0*4,0,4,0.166667,-0.166667,0.166667,0.166667,-0.166667,0.166667,-0.166667,-0.166667,0.166667,-0.166667,0*%
%AMIconTriangle*4,1,3,-0.242567,0.171767,0.242567,0.171767,0,-0.2706,-0.242567,0.171767,0*4,0,3,-0.189767,0.1386,0,-0.1953,0.190167,0.1386,-0.189767,0.1386,0*%
%AMIconStar6*4,1,12,0.0862,0.1492,0.213233,0.123367,0.172367,0,0.213233,-0.1229,0.0862,-0.148733,0,-0.245767,-0.085767,-0.148733,-0.213267,-0.1229,-0.171933,0,-0.213267,0.1229,-0.085767,0.1492,0,0.245767,0.0862,0.1492,0*4,0,12,-0.000333,0.195333,-0.064333,0.122667,-0.169667,0.097667,-0.138333,-0.005333,-0.169667,-0.098,-0.064333,-0.122667,-0.000333,-0.195667,0.064333,-0.122667,0.169667,-0.098,0.138667,0.005,0.169667,0.098,0.064333,0.122333,-0.000333,0.195333,0*%
%AMIconStar4*4,1,8,-0.222667,0.222667,0,0.144667,0.222667,0.222667,0.144667,0,0.222667,-0.222667,0,-0.144667,-0.217433,-0.222667,-0.144667,0,-0.222667,0.222667,0*4,0,8,0.166667,-0.166667,0.108,0,0.166667,0.166667,0,0.108,-0.166667,0.166667,-0.108,0,-0.166667,-0.166667,0,-0.108,0.166667,-0.166667,0*%
%AMIconPlus*4,1,12,0.124,-0.2,-0.124,-0.2,-0.124,-0.124,-0.2,-0.124,-0.2,0.124,-0.124,0.124,-0.124,0.2,0.124,0.2,0.124,0.124,0.2,0.124,0.2,-0.124,0.124,-0.124,0.124,-0.2,0*4,0,12,0.090667,-0.166667,0.090667,-0.090667,0.166667,-0.090667,0.166667,0.090667,0.090667,0.090667,0.090667,0.166667,-0.090667,0.166667,-0.090667,0.090667,-0.166667,0.090667,-0.166667,-0.090667,-0.090667,-0.090667,-0.090667,-0.166667,0.090667,-0.166667,0*%
%AMIconX*4,1,16,0.2,-0.2,0.054533,-0.2,0,-0.145467,-0.054533,-0.2,-0.2,-0.2,-0.2,-0.054533,-0.145467,0,-0.2,0.054533,-0.2,0.2,-0.054533,0.2,0,0.145467,0.054533,0.2,0.2,0.2,0.2,0.054533,0.145467,0,0.2,-0.054533,0.2,-0.2,0*4,0,16,0.1668,-0.1664,0.1668,-0.068467,0.097933,0.000067,0.1668,0.068467,0.1668,0.1665,0.068467,0.1665,0,0.097933,-0.068467,0.1665,-0.1668,0.1665,-0.1668,0.068467,-0.097933,0.000067,-0.1668,-0.068467,-0.1668,-0.1664,-0.068467,-0.1664,0,-0.097933,0.068467,-0.1664,0.1668,-0.1664,0*%
%ADD10IconRect*%
%ADD11C,0.44X0.373333*%
%ADD12IconTriangle*%
%ADD13IconStar6*%
%ADD14IconStar4*%
%ADD15IconPlus*%
%ADD16IconX*%
G75*


G04 Drill Drawing Start*
G54D10*
G01X14894970Y-13314973D03*
G01X14894970Y-12734975D03*
G54D11*
G01X14527571Y-13457473D03*
G01X14527571Y-12592475D03*
G54D12*
G01X14945570Y-13457473D03*
G01X14945570Y-12592475D03*
G54D13*
G01X20069960Y-12844974D03*
G01X20069960Y-11254977D03*
G01X20619909Y-12844974D03*
G01X20619909Y-11254977D03*
G54D14*
G01X14985970Y-11606977D03*
G01X14985970Y-10742979D03*
G01X15742969Y-12861199D03*
G01X16606967Y-12861199D03*
G01X17267965Y-12861199D03*
G01X18131964Y-12861199D03*
G01X18867962Y-12861199D03*
G01X19731961Y-12861199D03*
G54D15*
G01X14449971Y-11606977D03*
G01X14449971Y-10742979D03*
G01X15742969Y-13397198D03*
G01X16606967Y-13397198D03*
G01X17267965Y-13397198D03*
G01X18131964Y-13397198D03*
G01X18867962Y-13397198D03*
G01X19731961Y-13397198D03*
G54D16*
G01X14334971Y-11805006D03*
G01X14344971Y-12449975D03*
G01X14344971Y-12379975D03*
G01X14370008Y-11486868D03*
G01X14370008Y-11408510D03*
G01X14370008Y-11330152D03*
G01X14370008Y-11251795D03*
G01X14370008Y-11173437D03*
G01X14370008Y-11095079D03*
G01X14370008Y-11016721D03*
G01X14370008Y-10938364D03*
G01X14370008Y-10860006D03*
G01X14384971Y-12049976D03*
G01X14384971Y-11857226D03*
G01X14414971Y-12449975D03*
G01X14417721Y-12109976D03*
G01X14434971Y-11805006D03*
G01X14443823Y-11488409D03*
G01X14443823Y-11410051D03*
G01X14443823Y-11331693D03*
G01X14443823Y-11253335D03*
G01X14443823Y-11174978D03*
G01X14443823Y-11096620D03*
G01X14443823Y-11018262D03*
G01X14443823Y-10939904D03*
G01X14443823Y-10861547D03*
G01X14484971Y-12109976D03*
G01X14484971Y-12042726D03*
G01X14520248Y-11488409D03*
G01X14520248Y-11410051D03*
G01X14520248Y-11331693D03*
G01X14520248Y-11253335D03*
G01X14520248Y-11174978D03*
G01X14520248Y-11096620D03*
G01X14520248Y-11018262D03*
G01X14520248Y-10939904D03*
G01X14520248Y-10861547D03*
G01X14544971Y-11857226D03*
G01X14544971Y-11797226D03*
G01X14604971Y-12080007D03*
G01X14604971Y-11857226D03*
G01X14604971Y-11797226D03*
G01X14654971Y-12042726D03*
G01X14667071Y-11735006D03*
G01X14788178Y-12500007D03*
G01X14788178Y-12436348D03*
G01X14792690Y-12298177D03*
G01X14798178Y-12150006D03*
G01X14798178Y-12070007D03*
G01X14808141Y-11908282D03*
G01X14808141Y-11844623D03*
G01X14808141Y-11780964D03*
G01X14837162Y-11299977D03*
G01X14837162Y-11049978D03*
G01X14841970Y-11204978D03*
G01X14841970Y-11144978D03*
G01X14851837Y-12500007D03*
G01X14851837Y-12436348D03*
G01X14856349Y-12298177D03*
G01X14861837Y-12150007D03*
G01X14861837Y-12070007D03*
G01X14871800Y-11908282D03*
G01X14871800Y-11844623D03*
G01X14871800Y-11780964D03*
G01X14877162Y-11350019D03*
G01X14879178Y-10999978D03*
G01X14916970Y-11249977D03*
G01X14919238Y-11400019D03*
G01X14920008Y-12489154D03*
G01X14920008Y-12298177D03*
G01X14921253Y-10949978D03*
G01X14935459Y-11908282D03*
G01X14966970Y-11214978D03*
G01X14970008Y-13150007D03*
G01X14970008Y-13050007D03*
G01X14970008Y-12950007D03*
G01X14970008Y-12850007D03*
G01X14971970Y-11129978D03*
G01X14971970Y-11069978D03*
G01X14980344Y-12704975D03*
G01X14980757Y-13350007D03*
G01X14983667Y-12489154D03*
G01X14983667Y-12361836D03*
G01X14983667Y-12298177D03*
G01X14999118Y-11908282D03*
G01X15010008Y-11773665D03*
G01X15010008Y-11710006D03*
G01X15047326Y-12361836D03*
G01X15047326Y-12298177D03*
G01X15059595Y-12704975D03*
G01X15060008Y-13350007D03*
G01X15060846Y-12501805D03*
G01X15060846Y-12438146D03*
G01X15062777Y-11908282D03*
G01X15070008Y-13200007D03*
G01X15070008Y-13100007D03*
G01X15070008Y-13000007D03*
G01X15070008Y-12900007D03*
G01X15073629Y-12129976D03*
G01X15073629Y-12066317D03*
G01X15073667Y-11773665D03*
G01X15073667Y-11710006D03*
G01X15102163Y-11190019D03*
G01X15107163Y-11303126D03*
G01X15117163Y-11130019D03*
G01X15117163Y-11070019D03*
G01X15127163Y-11245019D03*
G01X15181971Y-13268044D03*
G01X15187162Y-11250019D03*
G01X15187162Y-11190019D03*
G01X15220008Y-10740006D03*
G01X15227163Y-10990019D03*
G01X15233212Y-12659975D03*
G01X15239970Y-13330723D03*
G01X15250099Y-12792650D03*
G01X15260311Y-11730972D03*
G01X15264969Y-12920007D03*
G01X15276438Y-12192055D03*
G01X15276438Y-12125420D03*
G01X15276438Y-12058785D03*
G01X15279969Y-12609975D03*
G01X15288584Y-12498088D03*
G01X15289969Y-13370723D03*
G01X15293353Y-12345027D03*
G01X15293912Y-12424826D03*
G01X15314969Y-12872724D03*
G01X15314969Y-12697225D03*
G01X15320201Y-11730538D03*
G01X15335842Y-12793000D03*
G01X15339969Y-13330723D03*
G01X15344969Y-12969974D03*
G01X15352193Y-12497422D03*
G01X15359988Y-12345027D03*
G01X15362194Y-11569977D03*
G01X15382487Y-12057528D03*
G01X15385009Y-12870007D03*
G01X15389969Y-13370723D03*
G01X15392901Y-11814154D03*
G01X15392901Y-11751604D03*
G01X15396110Y-13210007D03*
G01X15397163Y-10960019D03*
G01X15405009Y-12767226D03*
G01X15407134Y-12431486D03*
G01X15412194Y-11296591D03*
G01X15412194Y-11221920D03*
G01X15412194Y-11134649D03*
G01X15412194Y-11059978D03*
G01X15414132Y-12500751D03*
G01X15420008Y-13265007D03*
G01X15424615Y-12619975D03*
G01X15449988Y-12344979D03*
G01X15449988Y-12278344D03*
G01X15449988Y-12211709D03*
G01X15449988Y-12145075D03*
G01X15452901Y-11845429D03*
G01X15452901Y-11782879D03*
G01X15452901Y-11720609D03*
G01X15460008Y-12855007D03*
G01X15460008Y-12725007D03*
G01X15482194Y-11179978D03*
G01X15500008Y-11570006D03*
G01X15510008Y-10800006D03*
G01X15512901Y-11815429D03*
G01X15512901Y-11752879D03*
G01X15513267Y-13294973D03*
G01X15513267Y-13219974D03*
G01X15514969Y-13509973D03*
G01X15514969Y-13439973D03*
G01X15514969Y-13024974D03*
G01X15527487Y-12072528D03*
G01X15552194Y-11261649D03*
G01X15552194Y-11139978D03*
G01X15560009Y-12617361D03*
G01X15560014Y-12149986D03*
G01X15565402Y-12522790D03*
G01X15565402Y-12460240D03*
G01X15565402Y-12397970D03*
G01X15584969Y-13509973D03*
G01X15584969Y-13439973D03*
G01X15590252Y-12290007D03*
G01X15595077Y-11897528D03*
G01X15595077Y-11747528D03*
G01X15610008Y-12890007D03*
G01X15630013Y-12164986D03*
G01X15645299Y-12632189D03*
G01X15657347Y-11897528D03*
G01X15657347Y-11747528D03*
G01X15695363Y-10804978D03*
G01X15719897Y-11897528D03*
G01X15719897Y-11747528D03*
G01X15720008Y-12506470D03*
G01X15720008Y-12430007D03*
G01X15720008Y-12260007D03*
G01X15726888Y-12631321D03*
G01X15861537Y-13485864D03*
G01X15861537Y-13409439D03*
G01X15861537Y-13336011D03*
G01X15862039Y-12384975D03*
G01X15930009Y-11070006D03*
G01X15939894Y-13485864D03*
G01X15939894Y-13409439D03*
G01X15939894Y-13336011D03*
G01X15949968Y-12925916D03*
G01X15960009Y-12450007D03*
G01X15990009Y-12620007D03*
G01X15999968Y-12967992D03*
G01X16018252Y-13485864D03*
G01X16018252Y-13409439D03*
G01X16018252Y-13336011D03*
G01X16049968Y-13010007D03*
G01X16059968Y-12434975D03*
G01X16069968Y-12875200D03*
G01X16070009Y-12730007D03*
G01X16096610Y-13485864D03*
G01X16096610Y-13409439D03*
G01X16096610Y-13336011D03*
G01X16129968Y-12875200D03*
G01X16130009Y-12730007D03*
G01X16134639Y-12434975D03*
G01X16139968Y-12294975D03*
G01X16144968Y-13005199D03*
G01X16174968Y-13485864D03*
G01X16174968Y-13409439D03*
G01X16174968Y-13336011D03*
G01X16179968Y-12364976D03*
G01X16190009Y-12745007D03*
G01X16190009Y-12660007D03*
G01X16204968Y-13005199D03*
G01X16214968Y-12880200D03*
G01X16221910Y-12434975D03*
G01X16245009Y-12720007D03*
G01X16249968Y-12930199D03*
G01X16250009Y-12660007D03*
G01X16253325Y-13485864D03*
G01X16253325Y-13409439D03*
G01X16253325Y-13336011D03*
G01X16261639Y-12294975D03*
G01X16296581Y-12434975D03*
G01X16299967Y-13010007D03*
G01X16303116Y-12740007D03*
G01X16330009Y-12130006D03*
G01X16331683Y-13485864D03*
G01X16331683Y-13409439D03*
G01X16331683Y-13336011D03*
G01X16350009Y-12970007D03*
G01X16396489Y-13024512D03*
G01X16400009Y-12927932D03*
G01X16410041Y-13485864D03*
G01X16410041Y-13409439D03*
G01X16410041Y-13336011D03*
G01X16479079Y-11529006D03*
G01X16480009Y-11645006D03*
G01X16488399Y-13485864D03*
G01X16488399Y-13409439D03*
G01X16488399Y-13336011D03*
G01X16489967Y-12324976D03*
G01X16489967Y-12244976D03*
G01X16535009Y-11615006D03*
G01X16535009Y-11555006D03*
G01X16569967Y-12484975D03*
G01X16569967Y-12404975D03*
G01X16569967Y-12324976D03*
G01X16569967Y-12244976D03*
G01X16660009Y-12135007D03*
G01X16660009Y-12025006D03*
G01X16670009Y-10680006D03*
G01X16690009Y-12080007D03*
G01X16720009Y-11129978D03*
G01X16725009Y-11010006D03*
G01X16730009Y-10850006D03*
G01X16750009Y-12080007D03*
G01X16750009Y-10770006D03*
G01X16780009Y-12135007D03*
G01X16780009Y-12025006D03*
G01X16780009Y-11080006D03*
G01X16786008Y-11019295D03*
G01X16820009Y-10770006D03*
G01X16825010Y-11225206D03*
G01X16876010Y-11170006D03*
G01X16885721Y-10820006D03*
G01X16890009Y-13050007D03*
G01X16900009Y-13187157D03*
G01X16929298Y-10946008D03*
G01X16934966Y-11014978D03*
G01X16939659Y-11350006D03*
G01X16950009Y-11130006D03*
G01X16960009Y-11920006D03*
G01X16970009Y-11420006D03*
G01X16970009Y-11070006D03*
G01X16980721Y-11195005D03*
G01X16980721Y-10826006D03*
G01X17029298Y-11315007D03*
G01X17029298Y-10946008D03*
G01X17030009Y-11010006D03*
G01X17033264Y-13294973D03*
G01X17033264Y-13219974D03*
G01X17039966Y-13509973D03*
G01X17039966Y-13439973D03*
G01X17080009Y-10750006D03*
G01X17080720Y-11195005D03*
G01X17080720Y-10826006D03*
G01X17089966Y-12979974D03*
G01X17090009Y-11070006D03*
G01X17109966Y-13509973D03*
G01X17109966Y-13439973D03*
G01X17129297Y-11315007D03*
G01X17129297Y-10946008D03*
G01X17154008Y-11169295D03*
G01X17175720Y-10820006D03*
G01X17180009Y-11400006D03*
G01X17214009Y-11070007D03*
G01X17220009Y-10890006D03*
G01X17235010Y-11261718D03*
G01X17274010Y-10970718D03*
G01X17280010Y-11215718D03*
G01X17310009Y-11280006D03*
G01X17374015Y-12375162D03*
G01X17386534Y-13483241D03*
G01X17386534Y-13399323D03*
G01X17386534Y-13318403D03*
G01X17390009Y-11068579D03*
G01X17409965Y-10839978D03*
G01X17464891Y-13483241D03*
G01X17464891Y-13399323D03*
G01X17464891Y-13318403D03*
G01X17474965Y-12925916D03*
G01X17485006Y-12450007D03*
G01X17515006Y-12620007D03*
G01X17524965Y-12967992D03*
G01X17543249Y-13483241D03*
G01X17543249Y-13399323D03*
G01X17543249Y-13318403D03*
G01X17574965Y-13010007D03*
G01X17580010Y-10830006D03*
G01X17584965Y-12434975D03*
G01X17594965Y-12875200D03*
G01X17595006Y-12730007D03*
G01X17621607Y-13483241D03*
G01X17621607Y-13399323D03*
G01X17621607Y-13318403D03*
G01X17645010Y-11540006D03*
G01X17645010Y-11480007D03*
G01X17654965Y-12875200D03*
G01X17655006Y-12730007D03*
G01X17659635Y-12434975D03*
G01X17664965Y-12294975D03*
G01X17669965Y-13005199D03*
G01X17699965Y-13483241D03*
G01X17699965Y-13399323D03*
G01X17699965Y-13318403D03*
G01X17700010Y-11450006D03*
G01X17704965Y-12364976D03*
G01X17715006Y-12745007D03*
G01X17715006Y-12660007D03*
G01X17729965Y-13005199D03*
G01X17739965Y-12880200D03*
G01X17746907Y-12434975D03*
G01X17770006Y-12720007D03*
G01X17774964Y-12930199D03*
G01X17775006Y-12660007D03*
G01X17778322Y-13483241D03*
G01X17778322Y-13399323D03*
G01X17778322Y-13318403D03*
G01X17786636Y-12294975D03*
G01X17821578Y-12434975D03*
G01X17824964Y-13010007D03*
G01X17828113Y-12740007D03*
G01X17844964Y-11329977D03*
G01X17851680Y-11256699D03*
G01X17855006Y-12130006D03*
G01X17856680Y-13483241D03*
G01X17856680Y-13399323D03*
G01X17856680Y-13318403D03*
G01X17875006Y-12970007D03*
G01X17894964Y-11384977D03*
G01X17921486Y-13024512D03*
G01X17925006Y-12927932D03*
G01X17935038Y-13483241D03*
G01X17935038Y-13399323D03*
G01X17935038Y-13318403D03*
G01X17951132Y-10910953D03*
G01X17991132Y-10955953D03*
G01X18013396Y-13483241D03*
G01X18013396Y-13399323D03*
G01X18013396Y-13318403D03*
G01X18014964Y-12324976D03*
G01X18014964Y-12244976D03*
G01X18015010Y-10895006D03*
G01X18050010Y-10970006D03*
G01X18070010Y-12170007D03*
G01X18094964Y-12484975D03*
G01X18094964Y-12404975D03*
G01X18094964Y-12324976D03*
G01X18094964Y-12244976D03*
G01X18176679Y-11326699D03*
G01X18210010Y-12365007D03*
G01X18210010Y-12255006D03*
G01X18226682Y-10896697D03*
G01X18230010Y-11285006D03*
G01X18233248Y-11383267D03*
G01X18240010Y-12310007D03*
G01X18279981Y-11249977D03*
G01X18291679Y-11598267D03*
G01X18295010Y-11190006D03*
G01X18300010Y-12310007D03*
G01X18330010Y-12365007D03*
G01X18330010Y-12255006D03*
G01X18330931Y-10770393D03*
G01X18332473Y-10852469D03*
G01X18346679Y-11156699D03*
G01X18348248Y-11541699D03*
G01X18375931Y-10730393D03*
G01X18403247Y-11213268D03*
G01X18439963Y-11064978D03*
G01X18440010Y-10740006D03*
G01X18491679Y-11011700D03*
G01X18530010Y-13185007D03*
G01X18530290Y-13048495D03*
G01X18546679Y-11848266D03*
G01X18548247Y-11068268D03*
G01X18603247Y-11791698D03*
G01X18634963Y-13294973D03*
G01X18634963Y-13219974D03*
G01X18639963Y-13509973D03*
G01X18639963Y-13439973D03*
G01X18646678Y-11736698D03*
G01X18680680Y-10720006D03*
G01X18689963Y-12983587D03*
G01X18701678Y-11128268D03*
G01X18703247Y-11793266D03*
G01X18709963Y-13509973D03*
G01X18709963Y-13439973D03*
G01X18745010Y-10720006D03*
G01X18758247Y-11071699D03*
G01X18769962Y-12939974D03*
G01X18778294Y-12088291D03*
G01X18805010Y-10720006D03*
G01X18811678Y-11571698D03*
G01X18840010Y-10770006D03*
G01X18841678Y-11273268D03*
G01X18864962Y-12294976D03*
G01X18868246Y-11628267D03*
G01X18870010Y-10715006D03*
G01X18894962Y-12239976D03*
G01X18898246Y-11216699D03*
G01X18900010Y-10770006D03*
G01X18940010Y-10819440D03*
G01X18940010Y-10720006D03*
G01X18954867Y-12950199D03*
G01X18954962Y-12239976D03*
G01X18980010Y-10770006D03*
G01X18986530Y-13474749D03*
G01X18986530Y-13399823D03*
G01X18986530Y-13324896D03*
G01X19010010Y-10715006D03*
G01X19025226Y-12383823D03*
G01X19040010Y-10770006D03*
G01X19064888Y-13474749D03*
G01X19064888Y-13399823D03*
G01X19064888Y-13324896D03*
G01X19074962Y-12925916D03*
G01X19079843Y-10819440D03*
G01X19079843Y-10715246D03*
G01X19084723Y-11024984D03*
G01X19085002Y-12450007D03*
G01X19115002Y-12620007D03*
G01X19124962Y-12967992D03*
G01X19143246Y-13474749D03*
G01X19143246Y-13399823D03*
G01X19143246Y-13324896D03*
G01X19143294Y-10846722D03*
G01X19165010Y-11175006D03*
G01X19174962Y-13010007D03*
G01X19184962Y-12434975D03*
G01X19190010Y-10800006D03*
G01X19194962Y-12875200D03*
G01X19195003Y-12730007D03*
G01X19214750Y-10896204D03*
G01X19221604Y-13474749D03*
G01X19221604Y-13399823D03*
G01X19221604Y-13324896D03*
G01X19235963Y-11072980D03*
G01X19250011Y-10820006D03*
G01X19254961Y-12875200D03*
G01X19255002Y-12730007D03*
G01X19259632Y-12434975D03*
G01X19264961Y-12294975D03*
G01X19264961Y-10944978D03*
G01X19269961Y-13005199D03*
G01X19290011Y-11890006D03*
G01X19290011Y-11770006D03*
G01X19299961Y-13474749D03*
G01X19299961Y-13399823D03*
G01X19299961Y-13324896D03*
G01X19300010Y-10870006D03*
G01X19304961Y-12364976D03*
G01X19313246Y-11233268D03*
G01X19315003Y-12745007D03*
G01X19315003Y-12660007D03*
G01X19329961Y-13005199D03*
G01X19339961Y-12880200D03*
G01X19345011Y-11860006D03*
G01X19345011Y-11800006D03*
G01X19346904Y-12434975D03*
G01X19350011Y-10920006D03*
G01X19353246Y-11286699D03*
G01X19370002Y-12720007D03*
G01X19374961Y-12930199D03*
G01X19375002Y-12660007D03*
G01X19378319Y-13474749D03*
G01X19378319Y-13399823D03*
G01X19378319Y-13324896D03*
G01X19386633Y-12294975D03*
G01X19399961Y-11609977D03*
G01X19400010Y-11030006D03*
G01X19400010Y-10970006D03*
G01X19400011Y-11890006D03*
G01X19400011Y-11770006D03*
G01X19421575Y-12434975D03*
G01X19424961Y-13010007D03*
G01X19428110Y-12740007D03*
G01X19454961Y-11584977D03*
G01X19454961Y-11524977D03*
G01X19455002Y-12130006D03*
G01X19456677Y-13474749D03*
G01X19456677Y-13399823D03*
G01X19456677Y-13324896D03*
G01X19475002Y-12970007D03*
G01X19510011Y-11555006D03*
G01X19520010Y-11940006D03*
G01X19521483Y-13024512D03*
G01X19525002Y-12927932D03*
G01X19535035Y-13474749D03*
G01X19535035Y-13399823D03*
G01X19535035Y-13324896D03*
G01X19613392Y-13474749D03*
G01X19613392Y-13399823D03*
G01X19613392Y-13324896D03*
G01X19614961Y-12244976D03*
G01X19615011Y-12325007D03*
G01X19690011Y-12105006D03*
G01X19694961Y-12484975D03*
G01X19694961Y-12404975D03*
G01X19694961Y-12324976D03*
G01X19694961Y-12244976D03*
G01X19720011Y-11280006D03*
G01X19757507Y-11826953D03*
G01X19917213Y-12380007D03*
G01X19920011Y-12320007D03*
G01X19959960Y-12563475D03*
G01X19959960Y-12493475D03*
G01X19959960Y-12119976D03*
G01X19959960Y-11979976D03*
G01X19959960Y-11749976D03*
G01X19959960Y-11665683D03*
G01X19960011Y-11470006D03*
G01X19964960Y-12634975D03*
G01X20000011Y-12380007D03*
G01X20000011Y-12320007D03*
G01X21029958Y-12815007D03*
G01X21089958Y-12884974D03*
G01X21159958Y-12954974D03*
G01X21159958Y-12814974D03*
G04 Drill Drawing End*

M02*

