G04 Layer: CustomLayer1*
G04 EasyEDA Pro v2.2.24.2, 2024-07-29 14:19:07*
G04 Gerber Generator version 0.3*
G04 Scale: 100 percent, Rotated: No, Reflected: No*
G04 Dimensions in millimeters*
G04 Leading zeros omitted, absolute positions, 3 integers and 5 decimals*
%FSLAX35Y35*%
%MOMM*%
%ADD10C,0.254*%
G75*


G04 PolygonModel Start*
G54D10*
G01X14567571Y-12577475D02*
G01X14567571Y-12607475D01*
G01X14487571Y-12607475D01*
G01X14487571Y-12577475D01*
G01X14567571Y-12577475D01*
G01X14567571Y-13442473D02*
G01X14567571Y-13472473D01*
G01X14487571Y-13472473D01*
G01X14487571Y-13442473D01*
G01X14567571Y-13442473D01*
G01X15000570Y-12577475D02*
G01X15000570Y-12607475D01*
G01X14890570Y-12607475D01*
G01X14890570Y-12577475D01*
G01X15000570Y-12577475D01*
G01X15000570Y-13442473D02*
G01X15000570Y-13472473D01*
G01X14890570Y-13472473D01*
G01X14890570Y-13442473D01*
G01X15000570Y-13442473D01*
G01X15050570Y-12683975D02*
G01X15050570Y-12703975D01*
G01X14980570Y-12703975D01*
G01X14980570Y-12683975D01*
G01X15050570Y-12683975D01*
G01X15050570Y-12703975D02*
G01X15050570Y-12723975D01*
G01X14980570Y-12723975D01*
G01X14980570Y-12703975D01*
G01X15050570Y-12703975D01*
G01X15050570Y-12763974D02*
G01X15050570Y-12783974D01*
G01X14980570Y-12783974D01*
G01X14980570Y-12763974D01*
G01X15050570Y-12763974D01*
G01X15050570Y-12783974D02*
G01X15050570Y-12803974D01*
G01X14980570Y-12803974D01*
G01X14980570Y-12783974D01*
G01X15050570Y-12783974D01*
G01X15050570Y-12839974D02*
G01X15050570Y-12859974D01*
G01X14980570Y-12859974D01*
G01X14980570Y-12839974D01*
G01X15050570Y-12839974D01*
G01X15050570Y-12889974D02*
G01X15050570Y-12909974D01*
G01X14980570Y-12909974D01*
G01X14980570Y-12889974D01*
G01X15050570Y-12889974D01*
G01X15050570Y-12939974D02*
G01X15050570Y-12959974D01*
G01X14980570Y-12959974D01*
G01X14980570Y-12939974D01*
G01X15050570Y-12939974D01*
G01X15050570Y-12989974D02*
G01X15050570Y-13009974D01*
G01X14980570Y-13009974D01*
G01X14980570Y-12989974D01*
G01X15050570Y-12989974D01*
G01X15050570Y-13039974D02*
G01X15050570Y-13059974D01*
G01X14980570Y-13059974D01*
G01X14980570Y-13039974D01*
G01X15050570Y-13039974D01*
G01X15050570Y-13089974D02*
G01X15050570Y-13109974D01*
G01X14980570Y-13109974D01*
G01X14980570Y-13089974D01*
G01X15050570Y-13089974D01*
G01X15050570Y-13139924D02*
G01X15050570Y-13159924D01*
G01X14980570Y-13159924D01*
G01X14980570Y-13139924D01*
G01X15050570Y-13139924D01*
G01X15050570Y-13189974D02*
G01X15050570Y-13209974D01*
G01X14980570Y-13209974D01*
G01X14980570Y-13189974D01*
G01X15050570Y-13189974D01*
G01X15050570Y-13245974D02*
G01X15050570Y-13265973D01*
G01X14980570Y-13265973D01*
G01X14980570Y-13245974D01*
G01X15050570Y-13245974D01*
G01X15050570Y-13265973D02*
G01X15050570Y-13285973D01*
G01X14980570Y-13285973D01*
G01X14980570Y-13265973D01*
G01X15050570Y-13265973D01*
G01X15050570Y-13325973D02*
G01X15050570Y-13345973D01*
G01X14980570Y-13345973D01*
G01X14980570Y-13325973D01*
G01X15050570Y-13325973D01*
G01X15050570Y-13345973D02*
G01X15050570Y-13365973D01*
G01X14980570Y-13365973D01*
G01X14980570Y-13345973D01*
G01X15050570Y-13345973D01*
G01X15390451Y-11885379D02*
G01X15390451Y-11926779D01*
G01X15365401Y-11926829D01*
G01X15365451Y-11885379D01*
G01X15390451Y-11885379D01*
G01X15405401Y-11722880D02*
G01X15405401Y-11855379D01*
G01X15380451Y-11855379D01*
G01X15380401Y-11722880D01*
G01X15405401Y-11722880D01*
G01X15440551Y-11885279D02*
G01X15440551Y-11926679D01*
G01X15415501Y-11926729D01*
G01X15415551Y-11885279D01*
G01X15440551Y-11885279D01*
G01X15465451Y-11722880D02*
G01X15465451Y-11855379D01*
G01X15440501Y-11855379D01*
G01X15440451Y-11722880D01*
G01X15465451Y-11722880D01*
G01X15490351Y-11885279D02*
G01X15490351Y-11926679D01*
G01X15465301Y-11926729D01*
G01X15465351Y-11885279D01*
G01X15490351Y-11885279D01*
G01X15525451Y-11722880D02*
G01X15525451Y-11855379D01*
G01X15500501Y-11855379D01*
G01X15500451Y-11722880D01*
G01X15525451Y-11722880D01*
G01X15540351Y-11885279D02*
G01X15540351Y-11926679D01*
G01X15515351Y-11926729D01*
G01X15515351Y-11885279D01*
G01X15540351Y-11885279D01*
G01X20269959Y-12049976D02*
G01X21232258Y-12692275D01*
G01X21232258Y-11407677D01*
G01X20269959Y-12049976D01*
G01X19920010Y-11552477D02*
G01X19920010Y-11520477D01*
G01X20020010Y-11520477D01*
G01X20020010Y-11552477D01*
G01X19920010Y-11552477D01*
G01X19920010Y-11622477D02*
G01X19920010Y-11590477D01*
G01X20020010Y-11590477D01*
G01X20020010Y-11622477D01*
G01X19920010Y-11622477D01*
G01X19920010Y-11787476D02*
G01X19920010Y-11712477D01*
G01X20020010Y-11712477D01*
G01X20020010Y-11787476D01*
G01X19920010Y-11787476D01*
G01X19920010Y-12017476D02*
G01X19920010Y-11942476D01*
G01X20020010Y-11942476D01*
G01X20020010Y-12017476D01*
G01X19920010Y-12017476D01*
G01X19920010Y-12157476D02*
G01X19920010Y-12082476D01*
G01X20020010Y-12082476D01*
G01X20020010Y-12157476D01*
G01X19920010Y-12157476D01*
G01X19920010Y-12387475D02*
G01X19920010Y-12312475D01*
G01X20020010Y-12312475D01*
G01X20020010Y-12387475D01*
G01X19920010Y-12387475D01*
G01X19920010Y-12509475D02*
G01X19920010Y-12477475D01*
G01X20020010Y-12477475D01*
G01X20020010Y-12509475D01*
G01X19920010Y-12509475D01*
G01X19920010Y-12579475D02*
G01X19920010Y-12547475D01*
G01X20020010Y-12547475D01*
G01X20020010Y-12579475D01*
G01X19920010Y-12579475D01*
G01X20009960Y-11269977D02*
G01X20009960Y-11239978D01*
G01X20129960Y-11239978D01*
G01X20129960Y-11269977D01*
G01X20009960Y-11269977D01*
G01X20009960Y-12835024D02*
G01X20129960Y-12835024D01*
G01X20129960Y-12699975D01*
G01X20009960Y-12699975D01*
G01X20009960Y-12835024D01*
G01X20009960Y-12859974D02*
G01X20009960Y-12829974D01*
G01X20129960Y-12829974D01*
G01X20129960Y-12859974D01*
G01X20009960Y-12859974D01*
G01X20129960Y-11264977D02*
G01X20009960Y-11264977D01*
G01X20009960Y-11399977D01*
G01X20129960Y-11399977D01*
G01X20129960Y-11264977D01*
G01X20559859Y-12834974D02*
G01X20679909Y-12834974D01*
G01X20679909Y-12699975D01*
G01X20559859Y-12699975D01*
G01X20559859Y-12834974D01*
G01X20559909Y-11269977D02*
G01X20559909Y-11239978D01*
G01X20679909Y-11239978D01*
G01X20679909Y-11269977D01*
G01X20559909Y-11269977D01*
G01X20559909Y-12859974D02*
G01X20559909Y-12829974D01*
G01X20679909Y-12829974D01*
G01X20679909Y-12859974D01*
G01X20559909Y-12859974D01*
G01X20679959Y-11264977D02*
G01X20559959Y-11264977D01*
G01X20559959Y-11399977D01*
G01X20679959Y-11399977D01*
G01X20679959Y-11264977D01*
G01X18619963Y-13019974D02*
G01X18619963Y-13044974D01*
G01X18649963Y-13044974D01*
G01X18649963Y-13019974D01*
G01X18619963Y-13019974D01*
G01X18619963Y-13219974D02*
G01X18619963Y-13194974D01*
G01X18649963Y-13194974D01*
G01X18649963Y-13219974D01*
G01X18619963Y-13219974D01*
G01X18684963Y-13019974D02*
G01X18684963Y-13044974D01*
G01X18714963Y-13044974D01*
G01X18714963Y-13019974D01*
G01X18684963Y-13019974D01*
G01X18684963Y-13219974D02*
G01X18684963Y-13194974D01*
G01X18714963Y-13194974D01*
G01X18714963Y-13219974D01*
G01X18684963Y-13219974D01*
G01X18749963Y-13019974D02*
G01X18749963Y-13044974D01*
G01X18779962Y-13044974D01*
G01X18779962Y-13019974D01*
G01X18749963Y-13019974D01*
G01X18749963Y-13219974D02*
G01X18749963Y-13194974D01*
G01X18779962Y-13194974D01*
G01X18779962Y-13219974D01*
G01X18749963Y-13219974D01*
G01X15627852Y-12357880D02*
G01X15627852Y-12316480D01*
G01X15652902Y-12316430D01*
G01X15652852Y-12357880D01*
G01X15627852Y-12357880D01*
G01X15612902Y-12520380D02*
G01X15612902Y-12387880D01*
G01X15637852Y-12387880D01*
G01X15637902Y-12520380D01*
G01X15612902Y-12520380D01*
G01X15577752Y-12357980D02*
G01X15577752Y-12316580D01*
G01X15602802Y-12316530D01*
G01X15602752Y-12357980D01*
G01X15577752Y-12357980D01*
G01X15552852Y-12520380D02*
G01X15552852Y-12387880D01*
G01X15577802Y-12387880D01*
G01X15577852Y-12520380D01*
G01X15552852Y-12520380D01*
G01X15527952Y-12357980D02*
G01X15527952Y-12316580D01*
G01X15553002Y-12316530D01*
G01X15552952Y-12357980D01*
G01X15527952Y-12357980D01*
G01X15492852Y-12520380D02*
G01X15492852Y-12387880D01*
G01X15517802Y-12387880D01*
G01X15517852Y-12520380D01*
G01X15492852Y-12520380D01*
G01X15477952Y-12357980D02*
G01X15477952Y-12316580D01*
G01X15502952Y-12316530D01*
G01X15502952Y-12357980D01*
G01X15477952Y-12357980D01*
G01X17252965Y-12811199D02*
G01X17282965Y-12811199D01*
G01X17282965Y-12911199D01*
G01X17252965Y-12911199D01*
G01X17252965Y-12811199D01*
G01X17252965Y-13322198D02*
G01X17282965Y-13322198D01*
G01X17282965Y-13472198D01*
G01X17252965Y-13472198D01*
G01X17252965Y-13322198D01*
G01X17349965Y-12922199D02*
G01X17429965Y-12922199D01*
G01X17429965Y-12978199D01*
G01X17349965Y-12978199D01*
G01X17349965Y-12922199D01*
G01X17387665Y-12803699D02*
G01X17412665Y-12803699D01*
G01X17412665Y-12853699D01*
G01X17387665Y-12853699D01*
G01X17387665Y-12803699D01*
G01X17437665Y-12803699D02*
G01X17462665Y-12803699D01*
G01X17462665Y-12853699D01*
G01X17437665Y-12853699D01*
G01X17437665Y-12803699D01*
G01X17462465Y-12925199D02*
G01X17487465Y-12925199D01*
G01X17487465Y-12975199D01*
G01X17462465Y-12975199D01*
G01X17462465Y-12925199D01*
G01X17487665Y-12803699D02*
G01X17512665Y-12803699D01*
G01X17512665Y-12853699D01*
G01X17487665Y-12853699D01*
G01X17487665Y-12803699D01*
G01X17512465Y-12925199D02*
G01X17537465Y-12925199D01*
G01X17537465Y-12975199D01*
G01X17512465Y-12975199D01*
G01X17512465Y-12925199D01*
G01X17537865Y-12803699D02*
G01X17562865Y-12803699D01*
G01X17562865Y-12853699D01*
G01X17537865Y-12853699D01*
G01X17537865Y-12803699D01*
G01X17562465Y-12925199D02*
G01X17587465Y-12925199D01*
G01X17587465Y-12975199D01*
G01X17562465Y-12975199D01*
G01X17562465Y-12925199D01*
G01X17587865Y-12803699D02*
G01X17612865Y-12803699D01*
G01X17612865Y-12853699D01*
G01X17587865Y-12853699D01*
G01X17587865Y-12803699D01*
G01X17612465Y-12925199D02*
G01X17637465Y-12925199D01*
G01X17637465Y-12975199D01*
G01X17612465Y-12975199D01*
G01X17612465Y-12925199D01*
G01X17637465Y-12803699D02*
G01X17662465Y-12803699D01*
G01X17662465Y-12853699D01*
G01X17637465Y-12853699D01*
G01X17637465Y-12803699D01*
G01X17662465Y-12925199D02*
G01X17687465Y-12925199D01*
G01X17687465Y-12975199D01*
G01X17662465Y-12975199D01*
G01X17662465Y-12925199D01*
G01X17712465Y-12925199D02*
G01X17737465Y-12925199D01*
G01X17737465Y-12975199D01*
G01X17712465Y-12975199D01*
G01X17712465Y-12925199D01*
G01X17737865Y-12803699D02*
G01X17762864Y-12803699D01*
G01X17762864Y-12853699D01*
G01X17737865Y-12853699D01*
G01X17737865Y-12803699D01*
G01X17762464Y-12925199D02*
G01X17787464Y-12925199D01*
G01X17787464Y-12975199D01*
G01X17762464Y-12975199D01*
G01X17762464Y-12925199D01*
G01X17787464Y-12803699D02*
G01X17812464Y-12803699D01*
G01X17812464Y-12853699D01*
G01X17787464Y-12853699D01*
G01X17787464Y-12803699D01*
G01X17812464Y-12925199D02*
G01X17837464Y-12925199D01*
G01X17837464Y-12975199D01*
G01X17812464Y-12975199D01*
G01X17812464Y-12925199D01*
G01X17837464Y-12803699D02*
G01X17862464Y-12803699D01*
G01X17862464Y-12853699D01*
G01X17837464Y-12853699D01*
G01X17837464Y-12803699D01*
G01X17862464Y-12925199D02*
G01X17887464Y-12925199D01*
G01X17887464Y-12975199D01*
G01X17862464Y-12975199D01*
G01X17862464Y-12925199D01*
G01X17887464Y-12803699D02*
G01X17912464Y-12803699D01*
G01X17912464Y-12853699D01*
G01X17887464Y-12853699D01*
G01X17887464Y-12803699D01*
G01X17912464Y-12925199D02*
G01X17937464Y-12925199D01*
G01X17937464Y-12975199D01*
G01X17912464Y-12975199D01*
G01X17912464Y-12925199D01*
G01X17937464Y-12803699D02*
G01X17962464Y-12803699D01*
G01X17962464Y-12853699D01*
G01X17937464Y-12853699D01*
G01X17937464Y-12803699D01*
G01X17969964Y-12922199D02*
G01X18049964Y-12922199D01*
G01X18049964Y-12978199D01*
G01X17969964Y-12978199D01*
G01X17969964Y-12922199D01*
G01X17987964Y-12803699D02*
G01X18012964Y-12803699D01*
G01X18012964Y-12853699D01*
G01X17987964Y-12853699D01*
G01X17987964Y-12803699D01*
G01X18116964Y-12811199D02*
G01X18146964Y-12811199D01*
G01X18146964Y-12911199D01*
G01X18116964Y-12911199D01*
G01X18116964Y-12811199D01*
G01X18116964Y-13322198D02*
G01X18146964Y-13322198D01*
G01X18146964Y-13472198D01*
G01X18116964Y-13472198D01*
G01X18116964Y-13322198D01*
G01X15178009Y-13060007D02*
G01X15178009Y-13100007D01*
G01X15202008Y-13100007D01*
G01X15202008Y-13060007D01*
G01X15178009Y-13060007D01*
G01X15178009Y-13360007D02*
G01X15178009Y-13320007D01*
G01X15202008Y-13320007D01*
G01X15202008Y-13360007D01*
G01X15178009Y-13360007D01*
G01X15228008Y-13060007D02*
G01X15228008Y-13100007D01*
G01X15252008Y-13100007D01*
G01X15252008Y-13060007D01*
G01X15228008Y-13060007D01*
G01X15228008Y-13360007D02*
G01X15228008Y-13320007D01*
G01X15252008Y-13320007D01*
G01X15252008Y-13360007D01*
G01X15228008Y-13360007D01*
G01X15278008Y-13060007D02*
G01X15278008Y-13100007D01*
G01X15302008Y-13100007D01*
G01X15302008Y-13060007D01*
G01X15278008Y-13060007D01*
G01X15278008Y-13360007D02*
G01X15278008Y-13320007D01*
G01X15302008Y-13320007D01*
G01X15302008Y-13360007D01*
G01X15278008Y-13360007D01*
G01X15328008Y-13060007D02*
G01X15328008Y-13100007D01*
G01X15352008Y-13100007D01*
G01X15352008Y-13060007D01*
G01X15328008Y-13060007D01*
G01X15328008Y-13360007D02*
G01X15328008Y-13320007D01*
G01X15352008Y-13320007D01*
G01X15352008Y-13360007D01*
G01X15328008Y-13360007D01*
G01X15378008Y-13060007D02*
G01X15378008Y-13100007D01*
G01X15402008Y-13100007D01*
G01X15402008Y-13060007D01*
G01X15378008Y-13060007D01*
G01X15378008Y-13360007D02*
G01X15378008Y-13320007D01*
G01X15402008Y-13320007D01*
G01X15402008Y-13360007D01*
G01X15378008Y-13360007D01*
G01X18852962Y-12811199D02*
G01X18882962Y-12811199D01*
G01X18882962Y-12911199D01*
G01X18852962Y-12911199D01*
G01X18852962Y-12811199D01*
G01X18852962Y-13322198D02*
G01X18882962Y-13322198D01*
G01X18882962Y-13472198D01*
G01X18852962Y-13472198D01*
G01X18852962Y-13322198D01*
G01X18949962Y-12922199D02*
G01X19029962Y-12922199D01*
G01X19029962Y-12978199D01*
G01X18949962Y-12978199D01*
G01X18949962Y-12922199D01*
G01X18987662Y-12803699D02*
G01X19012662Y-12803699D01*
G01X19012662Y-12853699D01*
G01X18987662Y-12853699D01*
G01X18987662Y-12803699D01*
G01X19037662Y-12803699D02*
G01X19062662Y-12803699D01*
G01X19062662Y-12853699D01*
G01X19037662Y-12853699D01*
G01X19037662Y-12803699D01*
G01X19062462Y-12925199D02*
G01X19087462Y-12925199D01*
G01X19087462Y-12975199D01*
G01X19062462Y-12975199D01*
G01X19062462Y-12925199D01*
G01X19087662Y-12803699D02*
G01X19112662Y-12803699D01*
G01X19112662Y-12853699D01*
G01X19087662Y-12853699D01*
G01X19087662Y-12803699D01*
G01X19112462Y-12925199D02*
G01X19137462Y-12925199D01*
G01X19137462Y-12975199D01*
G01X19112462Y-12975199D01*
G01X19112462Y-12925199D01*
G01X19137862Y-12803699D02*
G01X19162862Y-12803699D01*
G01X19162862Y-12853699D01*
G01X19137862Y-12853699D01*
G01X19137862Y-12803699D01*
G01X19162462Y-12925199D02*
G01X19187462Y-12925199D01*
G01X19187462Y-12975199D01*
G01X19162462Y-12975199D01*
G01X19162462Y-12925199D01*
G01X19187862Y-12803699D02*
G01X19212862Y-12803699D01*
G01X19212862Y-12853699D01*
G01X19187862Y-12853699D01*
G01X19187862Y-12803699D01*
G01X19212462Y-12925199D02*
G01X19237462Y-12925199D01*
G01X19237462Y-12975199D01*
G01X19212462Y-12975199D01*
G01X19212462Y-12925199D01*
G01X19237462Y-12803699D02*
G01X19262461Y-12803699D01*
G01X19262461Y-12853699D01*
G01X19237462Y-12853699D01*
G01X19237462Y-12803699D01*
G01X19262461Y-12925199D02*
G01X19287461Y-12925199D01*
G01X19287461Y-12975199D01*
G01X19262461Y-12975199D01*
G01X19262461Y-12925199D01*
G01X19312461Y-12925199D02*
G01X19337461Y-12925199D01*
G01X19337461Y-12975199D01*
G01X19312461Y-12975199D01*
G01X19312461Y-12925199D01*
G01X19337861Y-12803699D02*
G01X19362861Y-12803699D01*
G01X19362861Y-12853699D01*
G01X19337861Y-12853699D01*
G01X19337861Y-12803699D01*
G01X19362461Y-12925199D02*
G01X19387461Y-12925199D01*
G01X19387461Y-12975199D01*
G01X19362461Y-12975199D01*
G01X19362461Y-12925199D01*
G01X19387461Y-12803699D02*
G01X19412461Y-12803699D01*
G01X19412461Y-12853699D01*
G01X19387461Y-12853699D01*
G01X19387461Y-12803699D01*
G01X19412461Y-12925199D02*
G01X19437461Y-12925199D01*
G01X19437461Y-12975199D01*
G01X19412461Y-12975199D01*
G01X19412461Y-12925199D01*
G01X19437461Y-12803699D02*
G01X19462461Y-12803699D01*
G01X19462461Y-12853699D01*
G01X19437461Y-12853699D01*
G01X19437461Y-12803699D01*
G01X19462461Y-12925199D02*
G01X19487461Y-12925199D01*
G01X19487461Y-12975199D01*
G01X19462461Y-12975199D01*
G01X19462461Y-12925199D01*
G01X19487461Y-12803699D02*
G01X19512461Y-12803699D01*
G01X19512461Y-12853699D01*
G01X19487461Y-12853699D01*
G01X19487461Y-12803699D01*
G01X19512461Y-12925199D02*
G01X19537461Y-12925199D01*
G01X19537461Y-12975199D01*
G01X19512461Y-12975199D01*
G01X19512461Y-12925199D01*
G01X19537461Y-12803699D02*
G01X19562461Y-12803699D01*
G01X19562461Y-12853699D01*
G01X19537461Y-12853699D01*
G01X19537461Y-12803699D01*
G01X19569961Y-12922199D02*
G01X19649961Y-12922199D01*
G01X19649961Y-12978199D01*
G01X19569961Y-12978199D01*
G01X19569961Y-12922199D01*
G01X19587961Y-12803699D02*
G01X19612961Y-12803699D01*
G01X19612961Y-12853699D01*
G01X19587961Y-12853699D01*
G01X19587961Y-12803699D01*
G01X19716961Y-12811199D02*
G01X19746961Y-12811199D01*
G01X19746961Y-12911199D01*
G01X19716961Y-12911199D01*
G01X19716961Y-12811199D01*
G01X19716961Y-13322198D02*
G01X19746961Y-13322198D01*
G01X19746961Y-13472198D01*
G01X19716961Y-13472198D01*
G01X19716961Y-13322198D01*
G01X14924970Y-11819976D02*
G01X14924970Y-11839976D01*
G01X14894970Y-11839976D01*
G01X14894970Y-11819976D01*
G01X14924970Y-11819976D01*
G01X14924970Y-11959976D02*
G01X14924970Y-11979976D01*
G01X14894970Y-11979976D01*
G01X14894970Y-11959976D01*
G01X14924970Y-11959976D01*
G01X14984970Y-11819976D02*
G01X14984970Y-11839976D01*
G01X14954970Y-11839976D01*
G01X14954970Y-11819976D01*
G01X14984970Y-11819976D01*
G01X14984970Y-11959976D02*
G01X14984970Y-11979976D01*
G01X14954970Y-11979976D01*
G01X14954970Y-11959976D01*
G01X14984970Y-11959976D01*
G01X15727969Y-12811199D02*
G01X15757968Y-12811199D01*
G01X15757968Y-12911199D01*
G01X15727969Y-12911199D01*
G01X15727969Y-12811199D01*
G01X15727969Y-13322198D02*
G01X15757968Y-13322198D01*
G01X15757968Y-13472198D01*
G01X15727969Y-13472198D01*
G01X15727969Y-13322198D01*
G01X15824968Y-12922199D02*
G01X15904968Y-12922199D01*
G01X15904968Y-12978199D01*
G01X15824968Y-12978199D01*
G01X15824968Y-12922199D01*
G01X15862668Y-12803699D02*
G01X15887668Y-12803699D01*
G01X15887668Y-12853699D01*
G01X15862668Y-12853699D01*
G01X15862668Y-12803699D01*
G01X15912668Y-12803699D02*
G01X15937668Y-12803699D01*
G01X15937668Y-12853699D01*
G01X15912668Y-12853699D01*
G01X15912668Y-12803699D01*
G01X15937468Y-12925199D02*
G01X15962468Y-12925199D01*
G01X15962468Y-12975199D01*
G01X15937468Y-12975199D01*
G01X15937468Y-12925199D01*
G01X15962668Y-12803699D02*
G01X15987668Y-12803699D01*
G01X15987668Y-12853699D01*
G01X15962668Y-12853699D01*
G01X15962668Y-12803699D01*
G01X15987468Y-12925199D02*
G01X16012468Y-12925199D01*
G01X16012468Y-12975199D01*
G01X15987468Y-12975199D01*
G01X15987468Y-12925199D01*
G01X16012868Y-12803699D02*
G01X16037868Y-12803699D01*
G01X16037868Y-12853699D01*
G01X16012868Y-12853699D01*
G01X16012868Y-12803699D01*
G01X16037468Y-12925199D02*
G01X16062468Y-12925199D01*
G01X16062468Y-12975199D01*
G01X16037468Y-12975199D01*
G01X16037468Y-12925199D01*
G01X16062868Y-12803699D02*
G01X16087868Y-12803699D01*
G01X16087868Y-12853699D01*
G01X16062868Y-12853699D01*
G01X16062868Y-12803699D01*
G01X16087468Y-12925199D02*
G01X16112468Y-12925199D01*
G01X16112468Y-12975199D01*
G01X16087468Y-12975199D01*
G01X16087468Y-12925199D01*
G01X16112468Y-12803699D02*
G01X16137468Y-12803699D01*
G01X16137468Y-12853699D01*
G01X16112468Y-12853699D01*
G01X16112468Y-12803699D01*
G01X16137468Y-12925199D02*
G01X16162468Y-12925199D01*
G01X16162468Y-12975199D01*
G01X16137468Y-12975199D01*
G01X16137468Y-12925199D01*
G01X16187468Y-12925199D02*
G01X16212468Y-12925199D01*
G01X16212468Y-12975199D01*
G01X16187468Y-12975199D01*
G01X16187468Y-12925199D01*
G01X16212868Y-12803699D02*
G01X16237868Y-12803699D01*
G01X16237868Y-12853699D01*
G01X16212868Y-12853699D01*
G01X16212868Y-12803699D01*
G01X16237468Y-12925199D02*
G01X16262467Y-12925199D01*
G01X16262467Y-12975199D01*
G01X16237468Y-12975199D01*
G01X16237468Y-12925199D01*
G01X16262467Y-12803699D02*
G01X16287467Y-12803699D01*
G01X16287467Y-12853699D01*
G01X16262467Y-12853699D01*
G01X16262467Y-12803699D01*
G01X16287467Y-12925199D02*
G01X16312467Y-12925199D01*
G01X16312467Y-12975199D01*
G01X16287467Y-12975199D01*
G01X16287467Y-12925199D01*
G01X16312467Y-12803699D02*
G01X16337467Y-12803699D01*
G01X16337467Y-12853699D01*
G01X16312467Y-12853699D01*
G01X16312467Y-12803699D01*
G01X16337467Y-12925199D02*
G01X16362467Y-12925199D01*
G01X16362467Y-12975199D01*
G01X16337467Y-12975199D01*
G01X16337467Y-12925199D01*
G01X16362467Y-12803699D02*
G01X16387467Y-12803699D01*
G01X16387467Y-12853699D01*
G01X16362467Y-12853699D01*
G01X16362467Y-12803699D01*
G01X16387467Y-12925199D02*
G01X16412467Y-12925199D01*
G01X16412467Y-12975199D01*
G01X16387467Y-12975199D01*
G01X16387467Y-12925199D01*
G01X16412467Y-12803699D02*
G01X16437467Y-12803699D01*
G01X16437467Y-12853699D01*
G01X16412467Y-12853699D01*
G01X16412467Y-12803699D01*
G01X16444967Y-12922199D02*
G01X16524967Y-12922199D01*
G01X16524967Y-12978199D01*
G01X16444967Y-12978199D01*
G01X16444967Y-12922199D01*
G01X16462967Y-12803699D02*
G01X16487967Y-12803699D01*
G01X16487967Y-12853699D01*
G01X16462967Y-12853699D01*
G01X16462967Y-12803699D01*
G01X16591967Y-12811199D02*
G01X16621967Y-12811199D01*
G01X16621967Y-12911199D01*
G01X16591967Y-12911199D01*
G01X16591967Y-12811199D01*
G01X16591967Y-13322198D02*
G01X16621967Y-13322198D01*
G01X16621967Y-13472198D01*
G01X16591967Y-13472198D01*
G01X16591967Y-13322198D01*
G01X14542471Y-11849976D02*
G01X14542471Y-11879976D01*
G01X14567471Y-11879976D01*
G01X14567471Y-11849976D01*
G01X14542471Y-11849976D01*
G01X14542471Y-12049976D02*
G01X14542471Y-12019976D01*
G01X14567471Y-12019976D01*
G01X14567471Y-12049976D01*
G01X14542471Y-12049976D01*
G01X14592471Y-11849976D02*
G01X14592471Y-11879976D01*
G01X14617471Y-11879976D01*
G01X14617471Y-11849976D01*
G01X14592471Y-11849976D01*
G01X14592471Y-12049976D02*
G01X14592471Y-12019976D01*
G01X14617471Y-12019976D01*
G01X14617471Y-12049976D01*
G01X14592471Y-12049976D01*
G01X14642471Y-11849976D02*
G01X14642471Y-11879976D01*
G01X14667471Y-11879976D01*
G01X14667471Y-11849976D01*
G01X14642471Y-11849976D01*
G01X14642471Y-12049976D02*
G01X14642471Y-12019976D01*
G01X14667471Y-12019976D01*
G01X14667471Y-12049976D01*
G01X14642471Y-12049976D01*
G01X14692471Y-11849976D02*
G01X14692471Y-11879976D01*
G01X14717471Y-11879976D01*
G01X14717471Y-11849976D01*
G01X14692471Y-11849976D01*
G01X14692471Y-12049976D02*
G01X14692471Y-12019976D01*
G01X14717471Y-12019976D01*
G01X14717471Y-12049976D01*
G01X14692471Y-12049976D01*
G01X14524971Y-10727979D02*
G01X14524971Y-10757978D01*
G01X14374971Y-10757978D01*
G01X14374971Y-10727979D01*
G01X14524971Y-10727979D01*
G01X14524971Y-11591977D02*
G01X14524971Y-11621977D01*
G01X14374971Y-11621977D01*
G01X14374971Y-11591977D01*
G01X14524971Y-11591977D01*
G01X14921970Y-10937478D02*
G01X14921970Y-10962478D01*
G01X14871970Y-10962478D01*
G01X14871970Y-10937478D01*
G01X14921970Y-10937478D01*
G01X14921970Y-10987478D02*
G01X14921970Y-11012478D01*
G01X14871970Y-11012478D01*
G01X14871970Y-10987478D01*
G01X14921970Y-10987478D01*
G01X14921970Y-11037478D02*
G01X14921970Y-11062478D01*
G01X14871970Y-11062478D01*
G01X14871970Y-11037478D01*
G01X14921970Y-11037478D01*
G01X14921970Y-11087478D02*
G01X14921970Y-11112478D01*
G01X14871970Y-11112478D01*
G01X14871970Y-11087478D01*
G01X14921970Y-11087478D01*
G01X14921970Y-11137478D02*
G01X14921970Y-11162478D01*
G01X14871970Y-11162478D01*
G01X14871970Y-11137478D01*
G01X14921970Y-11137478D01*
G01X14921970Y-11187478D02*
G01X14921970Y-11212478D01*
G01X14871970Y-11212478D01*
G01X14871970Y-11187478D01*
G01X14921970Y-11187478D01*
G01X14921970Y-11237478D02*
G01X14921970Y-11262477D01*
G01X14871970Y-11262477D01*
G01X14871970Y-11237478D01*
G01X14921970Y-11237478D01*
G01X14921970Y-11287477D02*
G01X14921970Y-11312477D01*
G01X14871970Y-11312477D01*
G01X14871970Y-11287477D01*
G01X14921970Y-11287477D01*
G01X14921970Y-11337477D02*
G01X14921970Y-11362477D01*
G01X14871970Y-11362477D01*
G01X14871970Y-11337477D01*
G01X14921970Y-11337477D01*
G01X14921970Y-11387477D02*
G01X14921970Y-11412477D01*
G01X14871970Y-11412477D01*
G01X14871970Y-11387477D01*
G01X14921970Y-11387477D01*
G01X14924970Y-10824978D02*
G01X14924970Y-10904978D01*
G01X14868970Y-10904978D01*
G01X14868970Y-10824978D01*
G01X14924970Y-10824978D01*
G01X14924970Y-11444977D02*
G01X14924970Y-11524977D01*
G01X14868970Y-11524977D01*
G01X14868970Y-11444977D01*
G01X14924970Y-11444977D01*
G01X15035970Y-10727979D02*
G01X15035970Y-10757978D01*
G01X14935970Y-10757978D01*
G01X14935970Y-10727979D01*
G01X15035970Y-10727979D01*
G01X15035970Y-11591977D02*
G01X15035970Y-11621977D01*
G01X14935970Y-11621977D01*
G01X14935970Y-11591977D01*
G01X15035970Y-11591977D01*
G01X15043470Y-10862678D02*
G01X15043470Y-10887678D01*
G01X14993470Y-10887678D01*
G01X14993470Y-10862678D01*
G01X15043470Y-10862678D01*
G01X15043470Y-10912678D02*
G01X15043470Y-10937678D01*
G01X14993470Y-10937678D01*
G01X14993470Y-10912678D01*
G01X15043470Y-10912678D01*
G01X15043470Y-10962678D02*
G01X15043470Y-10987678D01*
G01X14993470Y-10987678D01*
G01X14993470Y-10962678D01*
G01X15043470Y-10962678D01*
G01X15043470Y-11012878D02*
G01X15043470Y-11037878D01*
G01X14993470Y-11037878D01*
G01X14993470Y-11012878D01*
G01X15043470Y-11012878D01*
G01X15043470Y-11062878D02*
G01X15043470Y-11087878D01*
G01X14993470Y-11087878D01*
G01X14993470Y-11062878D01*
G01X15043470Y-11062878D01*
G01X15043470Y-11112478D02*
G01X15043470Y-11137478D01*
G01X14993470Y-11137478D01*
G01X14993470Y-11112478D01*
G01X15043470Y-11112478D01*
G01X15043470Y-11212878D02*
G01X15043470Y-11237878D01*
G01X14993470Y-11237878D01*
G01X14993470Y-11212878D01*
G01X15043470Y-11212878D01*
G01X15043470Y-11262477D02*
G01X15043470Y-11287477D01*
G01X14993470Y-11287477D01*
G01X14993470Y-11262477D01*
G01X15043470Y-11262477D01*
G01X15043470Y-11312477D02*
G01X15043470Y-11337477D01*
G01X14993470Y-11337477D01*
G01X14993470Y-11312477D01*
G01X15043470Y-11312477D01*
G01X15043470Y-11362477D02*
G01X15043470Y-11387477D01*
G01X14993470Y-11387477D01*
G01X14993470Y-11362477D01*
G01X15043470Y-11362477D01*
G01X15043470Y-11412477D02*
G01X15043470Y-11437477D01*
G01X14993470Y-11437477D01*
G01X14993470Y-11412477D01*
G01X15043470Y-11412477D01*
G01X15043470Y-11462977D02*
G01X15043470Y-11487977D01*
G01X14993470Y-11487977D01*
G01X14993470Y-11462977D01*
G01X15043470Y-11462977D01*
G01X14347471Y-11849976D02*
G01X14347471Y-11879976D01*
G01X14322471Y-11879976D01*
G01X14322471Y-11849976D01*
G01X14347471Y-11849976D01*
G01X14347471Y-12049976D02*
G01X14347471Y-12019976D01*
G01X14322471Y-12019976D01*
G01X14322471Y-12049976D01*
G01X14347471Y-12049976D01*
G01X14397471Y-11849976D02*
G01X14397471Y-11879976D01*
G01X14372471Y-11879976D01*
G01X14372471Y-11849976D01*
G01X14397471Y-11849976D01*
G01X14397471Y-12049976D02*
G01X14397471Y-12019976D01*
G01X14372471Y-12019976D01*
G01X14372471Y-12049976D01*
G01X14397471Y-12049976D01*
G01X14447471Y-11849976D02*
G01X14447471Y-11879976D01*
G01X14422471Y-11879976D01*
G01X14422471Y-11849976D01*
G01X14447471Y-11849976D01*
G01X14447471Y-12049976D02*
G01X14447471Y-12019976D01*
G01X14422471Y-12019976D01*
G01X14422471Y-12049976D01*
G01X14447471Y-12049976D01*
G01X14497471Y-11849976D02*
G01X14497471Y-11879976D01*
G01X14472471Y-11879976D01*
G01X14472471Y-11849976D01*
G01X14497471Y-11849976D01*
G01X14497471Y-12049976D02*
G01X14497471Y-12019976D01*
G01X14472471Y-12019976D01*
G01X14472471Y-12049976D01*
G01X14497471Y-12049976D01*
G01X14894970Y-12239976D02*
G01X14894970Y-12219976D01*
G01X14924970Y-12219976D01*
G01X14924970Y-12239976D01*
G01X14894970Y-12239976D01*
G01X14894970Y-12379975D02*
G01X14894970Y-12359975D01*
G01X14924970Y-12359975D01*
G01X14924970Y-12379975D01*
G01X14894970Y-12379975D01*
G01X14954970Y-12239976D02*
G01X14954970Y-12219976D01*
G01X14984970Y-12219976D01*
G01X14984970Y-12239976D01*
G01X14954970Y-12239976D01*
G01X14954970Y-12379975D02*
G01X14954970Y-12359975D01*
G01X14984970Y-12359975D01*
G01X14984970Y-12379975D01*
G01X14954970Y-12379975D01*
G01X15499969Y-13019974D02*
G01X15499969Y-13044974D01*
G01X15529969Y-13044974D01*
G01X15529969Y-13019974D01*
G01X15499969Y-13019974D01*
G01X15499969Y-13219974D02*
G01X15499969Y-13194974D01*
G01X15529969Y-13194974D01*
G01X15529969Y-13219974D01*
G01X15499969Y-13219974D01*
G01X15564969Y-13019974D02*
G01X15564969Y-13044974D01*
G01X15594969Y-13044974D01*
G01X15594969Y-13019974D01*
G01X15564969Y-13019974D01*
G01X15564969Y-13219974D02*
G01X15564969Y-13194974D01*
G01X15594969Y-13194974D01*
G01X15594969Y-13219974D01*
G01X15564969Y-13219974D01*
G01X15629969Y-13019974D02*
G01X15629969Y-13044974D01*
G01X15659969Y-13044974D01*
G01X15659969Y-13019974D01*
G01X15629969Y-13019974D01*
G01X15629969Y-13219974D02*
G01X15629969Y-13194974D01*
G01X15659969Y-13194974D01*
G01X15659969Y-13219974D01*
G01X15629969Y-13219974D01*
G01X17019966Y-13019974D02*
G01X17019966Y-13044974D01*
G01X17049966Y-13044974D01*
G01X17049966Y-13019974D01*
G01X17019966Y-13019974D01*
G01X17019966Y-13219974D02*
G01X17019966Y-13194974D01*
G01X17049966Y-13194974D01*
G01X17049966Y-13219974D01*
G01X17019966Y-13219974D01*
G01X17084966Y-13019974D02*
G01X17084966Y-13044974D01*
G01X17114966Y-13044974D01*
G01X17114966Y-13019974D01*
G01X17084966Y-13019974D01*
G01X17084966Y-13219974D02*
G01X17084966Y-13194974D01*
G01X17114966Y-13194974D01*
G01X17114966Y-13219974D01*
G01X17084966Y-13219974D01*
G01X17149966Y-13019974D02*
G01X17149966Y-13044974D01*
G01X17179966Y-13044974D01*
G01X17179966Y-13019974D01*
G01X17149966Y-13019974D01*
G01X17149966Y-13219974D02*
G01X17149966Y-13194974D01*
G01X17179966Y-13194974D01*
G01X17179966Y-13219974D01*
G01X17149966Y-13219974D01*
G01X15202470Y-12689975D02*
G01X15202470Y-12719975D01*
G01X15227470Y-12719975D01*
G01X15227470Y-12689975D01*
G01X15202470Y-12689975D01*
G01X15202470Y-12889974D02*
G01X15202470Y-12859974D01*
G01X15227470Y-12859974D01*
G01X15227470Y-12889974D01*
G01X15202470Y-12889974D01*
G01X15252469Y-12689975D02*
G01X15252469Y-12719975D01*
G01X15277469Y-12719975D01*
G01X15277469Y-12689975D01*
G01X15252469Y-12689975D01*
G01X15252469Y-12889974D02*
G01X15252469Y-12859974D01*
G01X15277469Y-12859974D01*
G01X15277469Y-12889974D01*
G01X15252469Y-12889974D01*
G01X15302469Y-12689975D02*
G01X15302469Y-12719975D01*
G01X15327469Y-12719975D01*
G01X15327469Y-12689975D01*
G01X15302469Y-12689975D01*
G01X15302469Y-12889974D02*
G01X15302469Y-12859974D01*
G01X15327469Y-12859974D01*
G01X15327469Y-12889974D01*
G01X15302469Y-12889974D01*
G01X15352469Y-12689975D02*
G01X15352469Y-12719975D01*
G01X15377469Y-12719975D01*
G01X15377469Y-12689975D01*
G01X15352469Y-12689975D01*
G01X15352469Y-12889974D02*
G01X15352469Y-12859974D01*
G01X15377469Y-12859974D01*
G01X15377469Y-12889974D01*
G01X15352469Y-12889974D01*

M02*

