G04 Layer: BottomSolderMaskLayer*
G04 EasyEDA Pro v2.2.24.2, 2024-07-29 14:19:07*
G04 Gerber Generator version 0.3*
G04 Scale: 100 percent, Rotated: No, Reflected: No*
G04 Dimensions in millimeters*
G04 Leading zeros omitted, absolute positions, 3 integers and 5 decimals*
%FSLAX35Y35*%
%MOMM*%
%AMRoundRect*1,1,$1,$2,$3*1,1,$1,$4,$5*1,1,$1,0-$2,0-$3*1,1,$1,0-$4,0-$5*20,1,$1,$2,$3,$4,$5,0*20,1,$1,$4,$5,0-$2,0-$3,0*20,1,$1,0-$2,0-$3,0-$4,0-$5,0*20,1,$1,0-$4,0-$5,$2,$3,0*4,1,4,$2,$3,$4,$5,0-$2,0-$3,0-$4,0-$5,$2,$3,0*%
%ADD10C,0.75*%
%ADD11O,2.0X1.2*%
%ADD12O,1.8X1.2*%
%ADD13O,2.49999X1.3*%
%ADD14O,1.0X2.1*%
%ADD15O,1.0X2.59999*%
%ADD16O,2.1X1.0*%
%ADD17O,2.59999X1.0*%
%ADD18RoundRect,0.126X-0.07071X-0.19375X-0.19375X-0.07071*%
%ADD19RoundRect,0.126X0.07071X0.19375X0.19375X0.07071*%
%ADD20RoundRect,0.126X0.19375X-0.07071X0.07071X-0.19375*%
%ADD21RoundRect,0.126X-0.19375X0.07071X-0.07071X0.19375*%
G75*


G04 Pad Start*
G54D10*
G01X14894970Y-12734975D03*
G01X14894970Y-13314973D03*
G54D11*
G01X14945570Y-12592475D03*
G54D12*
G01X14527571Y-12592475D03*
G54D11*
G01X14945570Y-13457473D03*
G54D12*
G01X14527571Y-13457473D03*
G54D13*
G01X20069960Y-12844974D03*
G01X20069960Y-11254977D03*
G01X20619909Y-12844974D03*
G01X20619909Y-11254977D03*
G54D14*
G01X17267965Y-12861199D03*
G54D15*
G01X17267965Y-13397198D03*
G54D14*
G01X18131964Y-12861199D03*
G54D15*
G01X18131964Y-13397198D03*
G54D14*
G01X18867962Y-12861199D03*
G54D15*
G01X18867962Y-13397198D03*
G54D14*
G01X19731961Y-12861199D03*
G54D15*
G01X19731961Y-13397198D03*
G54D14*
G01X15742969Y-12861199D03*
G54D15*
G01X15742969Y-13397198D03*
G54D14*
G01X16606967Y-12861199D03*
G54D15*
G01X16606967Y-13397198D03*
G54D16*
G01X14985970Y-10742979D03*
G54D17*
G01X14449971Y-10742979D03*
G54D16*
G01X14985970Y-11606977D03*
G54D17*
G01X14449971Y-11606977D03*
G54D18*
G01X18868246Y-11628267D03*
G01X18811678Y-11571698D03*
G54D19*
G01X18176679Y-11326699D03*
G01X18233248Y-11383267D03*
G54D18*
G01X18703247Y-11793266D03*
G01X18646678Y-11736698D03*
G54D19*
G01X18491679Y-11011700D03*
G01X18548247Y-11068268D03*
G54D20*
G01X18898246Y-11216699D03*
G01X18841678Y-11273268D03*
G54D19*
G01X18346679Y-11156699D03*
G01X18403247Y-11213268D03*
G54D20*
G01X18758247Y-11071699D03*
G01X18701678Y-11128268D03*
G54D21*
G01X18546679Y-11848266D03*
G01X18603247Y-11791698D03*
G01X18291679Y-11598267D03*
G01X18348248Y-11541699D03*
G04 Pad End*

M02*

