G04*
G04 #@! TF.GenerationSoftware,Altium Limited,Altium Designer,22.10.1 (41)*
G04*
G04 Layer_Physical_Order=1*
G04 Layer_Color=6579420*
%FSLAX25Y25*%
%MOIN*%
G70*
G04*
G04 #@! TF.SameCoordinates,35FDAC58-FA5E-4571-A4AC-5025684A0D72*
G04*
G04*
G04 #@! TF.FilePolarity,Positive*
G04*
G01*
G75*
%ADD11C,0.00500*%
%ADD13R,0.05118X0.04724*%
%ADD14R,0.05512X0.05118*%
G04:AMPARAMS|DCode=15|XSize=15.75mil|YSize=137.8mil|CornerRadius=3.94mil|HoleSize=0mil|Usage=FLASHONLY|Rotation=270.000|XOffset=0mil|YOffset=0mil|HoleType=Round|Shape=RoundedRectangle|*
%AMROUNDEDRECTD15*
21,1,0.01575,0.12992,0,0,270.0*
21,1,0.00787,0.13780,0,0,270.0*
1,1,0.00787,-0.06496,-0.00394*
1,1,0.00787,-0.06496,0.00394*
1,1,0.00787,0.06496,0.00394*
1,1,0.00787,0.06496,-0.00394*
%
%ADD15ROUNDEDRECTD15*%
%ADD19C,0.06299*%
%ADD20C,0.00800*%
%ADD21C,0.01200*%
%ADD22C,0.02000*%
G36*
X-19685Y-26575D02*
X-133858D01*
Y26575D01*
X-19685D01*
Y-26575D01*
D02*
G37*
G36*
X36500Y-24000D02*
X0D01*
Y24000D01*
X36500D01*
Y-24000D01*
D02*
G37*
%LPC*%
G36*
X-77358Y18000D02*
X-92358D01*
Y14901D01*
X-93221D01*
Y14904D01*
X-93972Y14805D01*
X-94673Y14515D01*
X-95274Y14054D01*
X-95736Y13452D01*
X-96026Y12752D01*
X-96125Y12000D01*
X-96122D01*
Y10000D01*
X-96124D01*
X-96027Y9261D01*
X-95742Y8572D01*
X-95288Y7980D01*
X-94696Y7526D01*
X-94007Y7241D01*
X-93268Y7143D01*
Y7146D01*
X-92358D01*
Y-1027D01*
X-92702Y-1256D01*
X-93298D01*
X-93850Y-1484D01*
X-94272Y-1906D01*
X-94500Y-2458D01*
Y-3054D01*
X-94272Y-3606D01*
X-94070Y-3807D01*
X-93904Y-4134D01*
X-94070Y-4461D01*
X-94272Y-4662D01*
X-94500Y-5213D01*
Y-5810D01*
X-94272Y-6362D01*
X-94070Y-6563D01*
X-93904Y-6890D01*
X-94070Y-7216D01*
X-94272Y-7418D01*
X-94500Y-7969D01*
Y-8566D01*
X-94272Y-9117D01*
X-94070Y-9319D01*
X-93904Y-9646D01*
X-94070Y-9972D01*
X-94272Y-10174D01*
X-94500Y-10725D01*
Y-11322D01*
X-94272Y-11873D01*
X-93850Y-12295D01*
X-93298Y-12524D01*
X-92702D01*
X-92358Y-12753D01*
Y-18000D01*
X-77358D01*
Y-1809D01*
X-76858Y-1475D01*
X-76798Y-1500D01*
X-76202D01*
X-75650Y-1272D01*
X-75228Y-850D01*
X-75000Y-298D01*
Y298D01*
X-75228Y850D01*
X-75650Y1272D01*
X-76202Y1500D01*
X-76798D01*
X-76858Y1475D01*
X-77358Y1809D01*
Y9890D01*
X-50512D01*
X-50350Y9728D01*
X-49798Y9500D01*
X-49202D01*
X-48650Y9728D01*
X-48228Y10150D01*
X-48000Y10702D01*
Y11298D01*
X-48228Y11850D01*
X-48650Y12272D01*
X-49202Y12500D01*
X-49798D01*
X-50350Y12272D01*
X-50488Y12133D01*
X-60780D01*
X-60880Y12633D01*
X-60650Y12728D01*
X-60228Y13150D01*
X-60000Y13702D01*
Y14298D01*
X-60228Y14850D01*
X-60650Y15272D01*
X-61202Y15500D01*
X-61798D01*
X-62350Y15272D01*
X-62610Y15011D01*
X-77358D01*
Y18000D01*
D02*
G37*
G36*
X7531Y18807D02*
X1019D01*
Y12689D01*
X2239D01*
X2500Y12298D01*
Y11702D01*
X2728Y11150D01*
X3150Y10728D01*
X3702Y10500D01*
X4298D01*
X4850Y10728D01*
X5272Y11150D01*
X5500Y11702D01*
Y12298D01*
X5761Y12689D01*
X7531D01*
Y18807D01*
D02*
G37*
G36*
X15854Y15461D02*
X14893D01*
X13964Y15212D01*
X13132Y14731D01*
X12453Y14052D01*
X11972Y13220D01*
X11723Y12291D01*
Y11331D01*
X11972Y10402D01*
X12453Y9570D01*
X13132Y8891D01*
X13964Y8410D01*
X13870Y7918D01*
X7531D01*
Y8866D01*
X1019D01*
Y2748D01*
X7531D01*
Y6082D01*
X23500D01*
X23534Y6089D01*
X24818Y5920D01*
X26047Y5411D01*
X27102Y4602D01*
X27911Y3547D01*
X28420Y2318D01*
X28452Y2074D01*
X28228Y1850D01*
X28000Y1298D01*
Y702D01*
X28228Y150D01*
X28650Y-272D01*
X29202Y-500D01*
X29798D01*
X30350Y-272D01*
X30772Y150D01*
X31000Y702D01*
Y1298D01*
X30772Y1850D01*
X30350Y2272D01*
X30306Y2290D01*
X30300Y2353D01*
X29906Y3653D01*
X29265Y4852D01*
X28403Y5903D01*
X27352Y6765D01*
X26153Y7406D01*
X24853Y7800D01*
X23500Y7933D01*
Y7918D01*
X16876D01*
X16782Y8410D01*
X17614Y8891D01*
X18293Y9570D01*
X18774Y10402D01*
X19023Y11331D01*
Y12291D01*
X18774Y13220D01*
X18293Y14052D01*
X17614Y14731D01*
X16782Y15212D01*
X15854Y15461D01*
D02*
G37*
G36*
Y-8161D02*
X14893D01*
X13964Y-8410D01*
X13132Y-8891D01*
X12453Y-9570D01*
X11972Y-10402D01*
X11723Y-11331D01*
Y-12291D01*
X11972Y-13220D01*
X12453Y-14052D01*
X13132Y-14731D01*
X13964Y-15212D01*
X14893Y-15461D01*
X15854D01*
X16782Y-15212D01*
X17614Y-14731D01*
X18293Y-14052D01*
X18774Y-13220D01*
X19023Y-12291D01*
Y-11331D01*
X18774Y-10402D01*
X18293Y-9570D01*
X17614Y-8891D01*
X16782Y-8410D01*
X15854Y-8161D01*
D02*
G37*
G36*
X7531Y-12689D02*
X1019D01*
Y-18807D01*
X7531D01*
Y-17222D01*
X8031Y-17058D01*
X8065Y-17092D01*
X8616Y-17320D01*
X9213D01*
X9764Y-17092D01*
X10186Y-16670D01*
X10415Y-16118D01*
Y-15522D01*
X10186Y-14970D01*
X9764Y-14548D01*
X9213Y-14320D01*
X8616D01*
X8065Y-14548D01*
X8031Y-14582D01*
X7531Y-14418D01*
Y-12689D01*
D02*
G37*
%LPD*%
D11*
X-21500Y-500D02*
X2000D01*
D13*
X27972Y-21260D02*
D03*
Y21260D02*
D03*
D14*
X4275Y-15748D02*
D03*
Y-5807D02*
D03*
Y5807D02*
D03*
Y15748D02*
D03*
D15*
X-84858Y-16535D02*
D03*
Y-13780D02*
D03*
Y-11024D02*
D03*
Y-8268D02*
D03*
Y-5512D02*
D03*
Y-2756D02*
D03*
Y-0D02*
D03*
Y2756D02*
D03*
Y5512D02*
D03*
Y8268D02*
D03*
Y11024D02*
D03*
Y13780D02*
D03*
Y16535D02*
D03*
D19*
X15373Y11811D02*
D03*
Y-11811D02*
D03*
D20*
X29500Y1000D02*
G03*
X23500Y7000I-6000J0D01*
G01*
X5468D02*
X23500D01*
X4275Y5807D02*
X5468Y7000D01*
X-93000Y-2756D02*
X-84858D01*
X-93000Y-5512D02*
X-84858D01*
X-93000Y-11024D02*
X-84858D01*
X-93000Y-8268D02*
X-84858D01*
D21*
X-95953Y16535D02*
G03*
X-98000Y14488I0J-2047D01*
G01*
Y5000D02*
G03*
X-95756Y2756I2244J0D01*
G01*
X-93221Y13780D02*
G03*
X-95000Y12000I0J-1780D01*
G01*
Y10000D02*
G03*
X-93268Y8268I1732J0D01*
G01*
X4347Y-15820D02*
X8915D01*
X4275Y-15748D02*
X4347Y-15820D01*
X4000Y15473D02*
X4275Y15748D01*
X4000Y12000D02*
Y15473D01*
X-49512Y11012D02*
X-49500Y11000D01*
X-84858Y11024D02*
X-84847Y11012D01*
X-49512D01*
X-84858Y13780D02*
X-84748Y13890D01*
X-61610D01*
X-61500Y14000D01*
X-93221Y13780D02*
X-84858D01*
Y16535D02*
X-84841Y16518D01*
X-37518D01*
X-37500Y16500D01*
X-95953Y16535D02*
X-84858D01*
X-95756Y2756D02*
X-84858D01*
X-98000Y5000D02*
Y14488D01*
X-95000Y10000D02*
Y12000D01*
X-93268Y8268D02*
X-84858D01*
Y-0D02*
X-76500D01*
D22*
X8915Y-15820D02*
D03*
X29500Y1000D02*
D03*
X4000Y12000D02*
D03*
X-49500Y11000D02*
D03*
X-61500Y14000D02*
D03*
X-37500Y16500D02*
D03*
X-76500Y-0D02*
D03*
X-93000Y-2756D02*
D03*
Y-5512D02*
D03*
Y-11024D02*
D03*
Y-8268D02*
D03*
X34000Y21000D02*
D03*
Y18000D02*
D03*
Y15000D02*
D03*
Y12000D02*
D03*
Y9000D02*
D03*
Y6000D02*
D03*
Y3000D02*
D03*
Y0D02*
D03*
Y-3000D02*
D03*
Y-6000D02*
D03*
Y-9000D02*
D03*
Y-21000D02*
D03*
Y-18000D02*
D03*
Y-15000D02*
D03*
Y-12000D02*
D03*
X14500Y-4500D02*
D03*
Y-1500D02*
D03*
Y1500D02*
D03*
Y4500D02*
D03*
X18500Y-4500D02*
D03*
Y-1500D02*
D03*
Y1500D02*
D03*
Y4500D02*
D03*
X22500Y3500D02*
D03*
Y500D02*
D03*
M02*
