M48
;Layer_Color=9474304
;FILE_FORMAT=2:5
INCH,LZ
;TYPE=PLATED
T1F00S00C0.01200
;TYPE=NON_PLATED
T2F00S00C0.06299
%
T01
X-0093Y-0011024
Y-0008268
Y-0005512
Y-0002756
X-00765Y-0
X-00615Y0014
X-00495Y0011
X-00375Y00165
X0004Y0012
X00145Y00045
Y00015
Y-00015
Y-00045
X00185
Y-00015
Y00015
Y00045
X00225Y00035
Y00005
X00295Y0001
X0034Y0
Y0003
Y0006
Y0009
Y0012
Y0015
Y0018
Y0021
Y-0003
Y-0006
Y-0009
Y-0012
Y-0015
Y-0018
Y-0021
X0008915Y-001582
T02
X0015373Y-0011811
Y0011811
M30
