G04*
G04 #@! TF.GenerationSoftware,Altium Limited,Altium Designer,22.10.1 (41)*
G04*
G04 Layer_Color=2752767*
%FSLAX25Y25*%
%MOIN*%
G70*
G04*
G04 #@! TF.SameCoordinates,35FDAC58-FA5E-4571-A4AC-5025684A0D72*
G04*
G04*
G04 #@! TF.FilePolarity,Positive*
G04*
G01*
G75*
%ADD25C,0.00200*%
D25*
X14973Y11411D02*
Y11011D01*
X15773D01*
Y11411D01*
X16173D01*
Y12211D01*
X15773D01*
Y12611D01*
X14973D01*
Y12211D01*
X14573D01*
Y11411D01*
X14973D01*
Y-12211D02*
Y-12611D01*
X15773D01*
Y-12211D01*
X16173D01*
Y-11411D01*
X15773D01*
Y-11011D01*
X14973D01*
Y-11411D01*
X14573D01*
Y-12211D01*
X14973D01*
X8115Y-16620D02*
Y-15020D01*
X9715D01*
Y-16620D01*
X8115D01*
X28700Y200D02*
Y1800D01*
X30300D01*
Y200D01*
X28700D01*
X3200Y11200D02*
Y12800D01*
X4800D01*
Y11200D01*
X3200D01*
X-50300Y10200D02*
Y11800D01*
X-48700D01*
Y10200D01*
X-50300D01*
X-62300Y13200D02*
Y14800D01*
X-60700D01*
Y13200D01*
X-62300D01*
X-38300Y15700D02*
Y17300D01*
X-36700D01*
Y15700D01*
X-38300D01*
X-77300Y-800D02*
Y800D01*
X-75700D01*
Y-800D01*
X-77300D01*
X-93800Y-3556D02*
Y-1956D01*
X-92200D01*
Y-3556D01*
X-93800D01*
Y-6312D02*
Y-4712D01*
X-92200D01*
Y-6312D01*
X-93800D01*
Y-11824D02*
Y-10224D01*
X-92200D01*
Y-11824D01*
X-93800D01*
Y-9068D02*
Y-7468D01*
X-92200D01*
Y-9068D01*
X-93800D01*
X33200Y20200D02*
Y21800D01*
X34800D01*
Y20200D01*
X33200D01*
Y17200D02*
Y18800D01*
X34800D01*
Y17200D01*
X33200D01*
Y14200D02*
Y15800D01*
X34800D01*
Y14200D01*
X33200D01*
Y11200D02*
Y12800D01*
X34800D01*
Y11200D01*
X33200D01*
Y8200D02*
Y9800D01*
X34800D01*
Y8200D01*
X33200D01*
Y5200D02*
Y6800D01*
X34800D01*
Y5200D01*
X33200D01*
Y2200D02*
Y3800D01*
X34800D01*
Y2200D01*
X33200D01*
Y-800D02*
Y800D01*
X34800D01*
Y-800D01*
X33200D01*
Y-3800D02*
Y-2200D01*
X34800D01*
Y-3800D01*
X33200D01*
Y-6800D02*
Y-5200D01*
X34800D01*
Y-6800D01*
X33200D01*
Y-9800D02*
Y-8200D01*
X34800D01*
Y-9800D01*
X33200D01*
Y-21800D02*
Y-20200D01*
X34800D01*
Y-21800D01*
X33200D01*
Y-18800D02*
Y-17200D01*
X34800D01*
Y-18800D01*
X33200D01*
Y-15800D02*
Y-14200D01*
X34800D01*
Y-15800D01*
X33200D01*
Y-12800D02*
Y-11200D01*
X34800D01*
Y-12800D01*
X33200D01*
X13700Y-5300D02*
Y-3700D01*
X15300D01*
Y-5300D01*
X13700D01*
Y-2300D02*
Y-700D01*
X15300D01*
Y-2300D01*
X13700D01*
Y700D02*
Y2300D01*
X15300D01*
Y700D01*
X13700D01*
Y3700D02*
Y5300D01*
X15300D01*
Y3700D01*
X13700D01*
X17700Y-5300D02*
Y-3700D01*
X19300D01*
Y-5300D01*
X17700D01*
Y-2300D02*
Y-700D01*
X19300D01*
Y-2300D01*
X17700D01*
Y700D02*
Y2300D01*
X19300D01*
Y700D01*
X17700D01*
Y3700D02*
Y5300D01*
X19300D01*
Y3700D01*
X17700D01*
X21700Y2700D02*
Y4300D01*
X23300D01*
Y2700D01*
X21700D01*
Y-300D02*
Y1300D01*
X23300D01*
Y-300D01*
X21700D01*
M02*
