G04*
G04 #@! TF.GenerationSoftware,Altium Limited,Altium Designer,22.10.1 (41)*
G04*
G04 Layer_Color=16711935*
%FSLAX25Y25*%
%MOIN*%
G70*
G04*
G04 #@! TF.SameCoordinates,250C4105-873D-48B8-9BDC-DF256EB57D7A*
G04*
G04*
G04 #@! TF.FilePolarity,Positive*
G04*
G01*
G75*
%ADD12C,0.00100*%
D12*
X70130Y76823D02*
G03*
X76823Y70130I6693J0D01*
G01*
D02*
G03*
X83516Y76823I0J6693D01*
G01*
D02*
G03*
X76823Y83516I-6693J0D01*
G01*
D02*
G03*
X70130Y76823I0J-6693D01*
G01*
X-83516D02*
G03*
X-76823Y70130I6693J0D01*
G01*
Y83516D02*
G03*
X-83516Y76823I0J-6693D01*
G01*
X-70130D02*
G03*
X-76823Y83516I-6693J0D01*
G01*
Y70130D02*
G03*
X-70130Y76823I0J6693D01*
G01*
X-6693Y-76823D02*
G03*
X0Y-83516I6693J0D01*
G01*
D02*
G03*
X6693Y-76823I0J6693D01*
G01*
D02*
G03*
X0Y-70130I-6693J0D01*
G01*
D02*
G03*
X-6693Y-76823I0J-6693D01*
G01*
X-103922Y-97229D02*
G03*
X-97229Y-103922I6693J0D01*
G01*
Y-90536D02*
G03*
X-103922Y-97229I0J-6693D01*
G01*
X-90536D02*
G03*
X-97229Y-90536I-6693J0D01*
G01*
Y-103922D02*
G03*
X-90536Y-97229I0J6693D01*
G01*
X90536D02*
G03*
X97229Y-103922I6693J0D01*
G01*
Y-90536D02*
G03*
X90536Y-97229I0J-6693D01*
G01*
X103922D02*
G03*
X97229Y-90536I-6693J0D01*
G01*
Y-103922D02*
G03*
X103922Y-97229I0J6693D01*
G01*
X90536Y97229D02*
G03*
X97229Y90536I6693J0D01*
G01*
Y103922D02*
G03*
X90536Y97229I0J-6693D01*
G01*
X103922D02*
G03*
X97229Y103922I-6693J0D01*
G01*
Y90536D02*
G03*
X103922Y97229I0J6693D01*
G01*
X-103922D02*
G03*
X-97229Y90536I6693J0D01*
G01*
Y103922D02*
G03*
X-103922Y97229I0J-6693D01*
G01*
X-90536D02*
G03*
X-97229Y103922I-6693J0D01*
G01*
Y90536D02*
G03*
X-90536Y97229I0J6693D01*
G01*
X-97229Y108319D02*
G03*
X-108319Y97229I0J-11090D01*
G01*
X108319D02*
G03*
X97229Y108319I-11090J0D01*
G01*
X97229Y-108319D02*
G03*
X108319Y-97229I0J11090D01*
G01*
X-108319D02*
G03*
X-97230Y-108319I11090J0D01*
G01*
X-108319Y-97229D02*
Y-77953D01*
X-108319Y77953D01*
X-108319Y97229D02*
X-108319Y77953D01*
X-97229Y108319D02*
X-97228Y108319D01*
X97229Y108319D01*
X108319Y-77953D02*
Y97229D01*
X108319Y-97229D02*
X108319Y-77953D01*
X77953Y-108319D02*
X97229D01*
X-97229D02*
X77951Y-108319D01*
X-97230Y-108319D02*
X-97229Y-108319D01*
M02*
