G04*
G04 #@! TF.GenerationSoftware,Altium Limited,Altium Designer,22.10.1 (41)*
G04*
G04 Layer_Physical_Order=1*
G04 Layer_Color=6579420*
%FSLAX25Y25*%
%MOIN*%
G70*
G04*
G04 #@! TF.SameCoordinates,250C4105-873D-48B8-9BDC-DF256EB57D7A*
G04*
G04*
G04 #@! TF.FilePolarity,Positive*
G04*
G01*
G75*
%ADD11C,0.04331*%
G36*
X99397Y-47776D02*
X100802Y-48152D01*
X102145Y-48709D01*
X103404Y-49435D01*
X104557Y-50321D01*
X105585Y-51349D01*
X106470Y-52502D01*
X107197Y-53761D01*
X107753Y-55104D01*
X108130Y-56508D01*
X108265Y-57538D01*
Y-77953D01*
X108265Y-97229D01*
X108265Y-97229D01*
X108253D01*
X108117Y-98954D01*
X107714Y-100636D01*
X107052Y-102234D01*
X106148Y-103709D01*
X105024Y-105024D01*
X103709Y-106148D01*
X102234Y-107052D01*
X100636Y-107714D01*
X98954Y-108117D01*
X97229Y-108253D01*
Y-108265D01*
X97229Y-108265D01*
X77953D01*
X77952Y-108265D01*
X77951Y-108265D01*
X-96730Y-108265D01*
X-97230Y-108253D01*
X-97230Y-108253D01*
X-98954Y-108117D01*
X-100636Y-107714D01*
X-102234Y-107052D01*
X-103709Y-106148D01*
X-105024Y-105024D01*
X-106148Y-103709D01*
X-107052Y-102234D01*
X-107714Y-100636D01*
X-108117Y-98954D01*
X-108253Y-97229D01*
X-108265D01*
Y-77953D01*
Y-57538D01*
X-108130Y-56508D01*
X-107753Y-55104D01*
X-107197Y-53761D01*
X-106470Y-52502D01*
X-105585Y-51349D01*
X-104557Y-50321D01*
X-103404Y-49435D01*
X-102145Y-48709D01*
X-100802Y-48152D01*
X-99397Y-47776D01*
X-97956Y-47586D01*
X-97229D01*
X-97228Y-47586D01*
X97229Y-47586D01*
X97956D01*
X99397Y-47776D01*
D02*
G37*
G36*
X97229Y108253D02*
X97229Y108253D01*
X97229Y108253D01*
X98954Y108117D01*
X100636Y107714D01*
X102234Y107052D01*
X103709Y106148D01*
X105024Y105024D01*
X106148Y103709D01*
X107052Y102234D01*
X107714Y100636D01*
X108117Y98954D01*
X108253Y97229D01*
X108265D01*
X108265Y97229D01*
Y57538D01*
X108130Y56508D01*
X107753Y55104D01*
X107197Y53761D01*
X106470Y52502D01*
X105585Y51349D01*
X104557Y50321D01*
X103404Y49435D01*
X102145Y48709D01*
X100802Y48152D01*
X99397Y47776D01*
X97956Y47586D01*
X97229D01*
X-97228Y47586D01*
X-97229Y47586D01*
X-97956D01*
X-99397Y47776D01*
X-100802Y48152D01*
X-102145Y48709D01*
X-103404Y49435D01*
X-104557Y50321D01*
X-105585Y51349D01*
X-106470Y52502D01*
X-107197Y53761D01*
X-107753Y55104D01*
X-108130Y56508D01*
X-108265Y57538D01*
Y77953D01*
X-108265Y96729D01*
X-108253Y97229D01*
X-108253Y97229D01*
X-108253Y97229D01*
X-108117Y98954D01*
X-107714Y100636D01*
X-107052Y102234D01*
X-106148Y103709D01*
X-105024Y105024D01*
X-103709Y106148D01*
X-102234Y107052D01*
X-100636Y107714D01*
X-98954Y108117D01*
X-97229Y108253D01*
X-97228Y108265D01*
X96729Y108265D01*
X97229Y108253D01*
D02*
G37*
%LPC*%
G36*
X659Y-70130D02*
X-659D01*
X-1952Y-70388D01*
X-3170Y-70892D01*
X-4267Y-71624D01*
X-5199Y-72557D01*
X-5931Y-73653D01*
X-6436Y-74871D01*
X-6693Y-76164D01*
Y-77482D01*
X-6436Y-78775D01*
X-5931Y-79993D01*
X-5199Y-81090D01*
X-4267Y-82022D01*
X-3170Y-82754D01*
X-1952Y-83259D01*
X-659Y-83516D01*
X659D01*
X1952Y-83259D01*
X3170Y-82754D01*
X4267Y-82022D01*
X5199Y-81090D01*
X5931Y-79993D01*
X6436Y-78775D01*
X6693Y-77482D01*
Y-76164D01*
X6436Y-74871D01*
X5931Y-73653D01*
X5199Y-72557D01*
X4267Y-71624D01*
X3170Y-70892D01*
X1952Y-70388D01*
X659Y-70130D01*
D02*
G37*
G36*
X97888Y-90536D02*
X96570D01*
X95277Y-90794D01*
X94059Y-91298D01*
X92963Y-92031D01*
X92031Y-92963D01*
X91298Y-94059D01*
X90794Y-95277D01*
X90536Y-96570D01*
Y-97888D01*
X90794Y-99181D01*
X91298Y-100399D01*
X92031Y-101496D01*
X92963Y-102428D01*
X94059Y-103160D01*
X95277Y-103665D01*
X96570Y-103922D01*
X97888D01*
X99181Y-103665D01*
X100399Y-103160D01*
X101496Y-102428D01*
X102428Y-101496D01*
X103160Y-100399D01*
X103665Y-99181D01*
X103922Y-97888D01*
Y-96570D01*
X103665Y-95277D01*
X103160Y-94059D01*
X102428Y-92963D01*
X101496Y-92031D01*
X100399Y-91298D01*
X99181Y-90794D01*
X97888Y-90536D01*
D02*
G37*
G36*
X-96570D02*
X-97888D01*
X-99181Y-90794D01*
X-100399Y-91298D01*
X-101496Y-92031D01*
X-102428Y-92963D01*
X-103160Y-94059D01*
X-103665Y-95277D01*
X-103922Y-96570D01*
Y-97888D01*
X-103665Y-99181D01*
X-103160Y-100399D01*
X-102428Y-101496D01*
X-101496Y-102428D01*
X-100399Y-103160D01*
X-99181Y-103665D01*
X-97888Y-103922D01*
X-96570D01*
X-95277Y-103665D01*
X-94059Y-103160D01*
X-92963Y-102428D01*
X-92031Y-101496D01*
X-91298Y-100399D01*
X-90794Y-99181D01*
X-90536Y-97888D01*
Y-96570D01*
X-90794Y-95277D01*
X-91298Y-94059D01*
X-92031Y-92963D01*
X-92963Y-92031D01*
X-94059Y-91298D01*
X-95277Y-90794D01*
X-96570Y-90536D01*
D02*
G37*
G36*
X97888Y103922D02*
X96570D01*
X95277Y103665D01*
X94059Y103160D01*
X92963Y102428D01*
X92031Y101496D01*
X91298Y100399D01*
X90794Y99181D01*
X90536Y97888D01*
Y96570D01*
X90794Y95277D01*
X91298Y94059D01*
X92031Y92963D01*
X92963Y92031D01*
X94059Y91298D01*
X95277Y90794D01*
X96570Y90536D01*
X97888D01*
X99181Y90794D01*
X100399Y91298D01*
X101496Y92031D01*
X102428Y92963D01*
X103160Y94059D01*
X103665Y95277D01*
X103922Y96570D01*
Y97888D01*
X103665Y99181D01*
X103160Y100399D01*
X102428Y101496D01*
X101496Y102428D01*
X100399Y103160D01*
X99181Y103665D01*
X97888Y103922D01*
D02*
G37*
G36*
X-96570D02*
X-97888D01*
X-99181Y103665D01*
X-100399Y103160D01*
X-101496Y102428D01*
X-102428Y101496D01*
X-103160Y100399D01*
X-103665Y99181D01*
X-103922Y97888D01*
Y96570D01*
X-103665Y95277D01*
X-103160Y94059D01*
X-102428Y92963D01*
X-101496Y92031D01*
X-100399Y91298D01*
X-99181Y90794D01*
X-97888Y90536D01*
X-96570D01*
X-95277Y90794D01*
X-94059Y91298D01*
X-92963Y92031D01*
X-92031Y92963D01*
X-91298Y94059D01*
X-90794Y95277D01*
X-90536Y96570D01*
Y97888D01*
X-90794Y99181D01*
X-91298Y100399D01*
X-92031Y101496D01*
X-92963Y102428D01*
X-94059Y103160D01*
X-95277Y103665D01*
X-96570Y103922D01*
D02*
G37*
G36*
X77482Y83516D02*
X76164D01*
X74871Y83259D01*
X73653Y82754D01*
X72557Y82022D01*
X71624Y81090D01*
X70892Y79993D01*
X70388Y78775D01*
X70130Y77482D01*
Y76164D01*
X70388Y74871D01*
X70892Y73653D01*
X71624Y72557D01*
X72557Y71624D01*
X73653Y70892D01*
X74871Y70387D01*
X76164Y70130D01*
X77482D01*
X78775Y70387D01*
X79993Y70892D01*
X81090Y71624D01*
X82022Y72557D01*
X82754Y73653D01*
X83259Y74871D01*
X83516Y76164D01*
Y77482D01*
X83259Y78775D01*
X82754Y79993D01*
X82022Y81090D01*
X81090Y82022D01*
X79993Y82754D01*
X78775Y83259D01*
X77482Y83516D01*
D02*
G37*
G36*
X-76164D02*
X-77482D01*
X-78775Y83259D01*
X-79993Y82754D01*
X-81090Y82022D01*
X-82022Y81090D01*
X-82754Y79993D01*
X-83259Y78775D01*
X-83516Y77482D01*
Y76164D01*
X-83259Y74871D01*
X-82754Y73653D01*
X-82022Y72557D01*
X-81090Y71624D01*
X-79993Y70892D01*
X-78775Y70387D01*
X-77482Y70130D01*
X-76164D01*
X-74871Y70387D01*
X-73653Y70892D01*
X-72557Y71624D01*
X-71624Y72557D01*
X-70892Y73653D01*
X-70387Y74871D01*
X-70130Y76164D01*
Y77482D01*
X-70387Y78775D01*
X-70892Y79993D01*
X-71624Y81090D01*
X-72557Y82022D01*
X-73653Y82754D01*
X-74871Y83259D01*
X-76164Y83516D01*
D02*
G37*
%LPD*%
D11*
X85681Y76823D02*
G03*
X85681Y76823I-8858J0D01*
G01*
X-67965D02*
G03*
X-67965Y76823I-8858J0D01*
G01*
X8858Y-76823D02*
G03*
X8858Y-76823I-8858J0D01*
G01*
X-88371Y97229D02*
G03*
X-88371Y97229I-8858J0D01*
G01*
X-88371Y-97229D02*
G03*
X-88371Y-97229I-8858J0D01*
G01*
X106088D02*
G03*
X106088Y-97229I-8858J0D01*
G01*
X106088Y97229D02*
G03*
X106088Y97229I-8858J0D01*
G01*
M02*
